{
.appVersion = "919";
classes = (
{
code = "hungarumlaut acute ampersand circumflex grave a b c d e f g h i j k l m n o p q r s t u v w x y z tilde lslash scaron zcaron dieresis breve caron dotaccent macron ogonek ring cedilla agrave aacute acircumflex atilde adieresis aring ae ccedilla egrave eacute ecircumflex edieresis igrave iacute icircumflex idieresis eth ntilde ograve oacute ocircumflex otilde odieresis oe oslash ugrave uacute ucircumflex udieresis yacute thorn ydieresis fi fl germandbls ordfeminine ordmasculine exclam question exclamdown questiondown";
name = normal;
},
{
code = "parenleft parenright";
name = num_lfig;
},
{
code = "zero one two three four five six seven eight nine parenleft parenright";
name = snum;
},
{
code = "onesuperior twosuperior threesuperior";
name = num_sups;
},
{
code = "onehalf onequarter threequarters";
name = num_frac;
},
{
code = "A B C D E F G H I J K L M N O P Q R S T U V W X Y Z AE OE germandbls Eth Aacute Acircumflex Adieresis Agrave Aring Atilde Ccedilla Eacute Ecircumflex Edieresis Egrave Iacute Icircumflex Idieresis Igrave Ntilde Oacute Ocircumflex Odieresis Ograve Otilde Scaron Uacute Ucircumflex Udieresis Ugrave Yacute Ydieresis Zcaron";
name = mayusculas;
},
{
code = "parenleft parenright hyphen bracketleft bracketright braceleft bar braceright brokenbar guillemotleft guillemotright endash emdash bullet guilsinglleft guilsinglright";
name = case1;
}
);
copyright = "Copyright (c) 2013, Eduardo Tunni (http://www.tipo.net.ar), with Reserved Font Name 'Gabriela'";
customParameters = (
{
name = licenseURL;
value = "http://scripts.sil.org/OFL";
},
{
name = trademark;
value = "Gabriela is a trademark of Eduardo Rodriguez Tunni.";
},
{
name = license;
value = "This Font Software is licensed under the SIL Open Font License, Version 1.1. This license is available with a FAQ at: http://scripts.sil.org/OFL";
}
);
date = "2016-09-22 13:09:57 +0000";
designer = "Eduardo Rodriguez Tunni";
designerURL = "http://www.tipo.net.ar";

glyphs = (
{
glyphname = A;
lastChange = "2016-09-22 13:09:51 +0000";
layers = (
{
hints = (
{
horizontal = 1;
place = "{273, 62}";
},
{
horizontal = 1;
place = "{0, 21}";
target = up;
type = BottomGhost;
},
{
horizontal = 1;
place = "{718, -20}";
target = down;
type = TopGhost;
}
);
layerId = UUID0;
paths = (
{
closed = 1;
nodes = (
"682 0 LINE",
"695 16 LINE",
"652 49 OFFCURVE",
"628 72 OFFCURVE",
"605 138 CURVE SMOOTH",
"404 718 LINE",
"211 718 LINE",
"199 684 LINE",
"222 678 LINE SMOOTH",
"253 670 OFFCURVE",
"267 659 OFFCURVE",
"267 634 CURVE SMOOTH",
"267 621 OFFCURVE",
"263 606 OFFCURVE",
"256 585 CURVE SMOOTH",
"99 133 LINE SMOOTH",
"78 71 OFFCURVE",
"60 55 OFFCURVE",
"7 40 CURVE SMOOTH",
"-16 34 LINE",
"-4 0 LINE",
"180 0 LINE",
"199 16 LINE",
"190 34 LINE SMOOTH",
"180 53 OFFCURVE",
"176 73 OFFCURVE",
"176 95 CURVE SMOOTH",
"176 123 OFFCURVE",
"184 155 OFFCURVE",
"199 200 CURVE SMOOTH",
"223 273 LINE",
"454 273 LINE",
"502 133 LINE SMOOTH",
"509 112 OFFCURVE",
"513 97 OFFCURVE",
"513 84 CURVE SMOOTH",
"513 59 OFFCURVE",
"499 48 OFFCURVE",
"468 40 CURVE SMOOTH",
"445 34 LINE",
"457 0 LINE"
);
},
{
closed = 1;
nodes = (
"337 615 LINE",
"433 335 LINE",
"244 335 LINE"
);
}
);
width = 706;
}
);
leftKerningGroup = A;
rightKerningGroup = A;
unicode = 0041;
},
{
glyphname = AE;
lastChange = "2016-09-22 13:09:51 +0000";
layers = (
{
hints = (
{
place = "{481, 99}";
},
{
horizontal = 1;
place = "{0, 57}";
},
{
horizontal = 1;
place = "{306, 57}";
},
{
horizontal = 1;
place = "{661, 57}";
},
{
horizontal = 1;
place = "{752, -20}";
target = down;
type = TopGhost;
},
{
horizontal = 1;
place = "{-25, 21}";
target = up;
type = BottomGhost;
}
);
layerId = UUID0;
paths = (
{
closed = 1;
nodes = (
"665 306 LINE SMOOTH",
"736 306 OFFCURVE",
"762 296 OFFCURVE",
"774 249 CURVE SMOOTH",
"780 226 LINE",
"814 238 LINE",
"814 409 LINE",
"794 420 LINE",
"786 409 LINE SMOOTH",
"761 374 OFFCURVE",
"738 363 OFFCURVE",
"707 363 CURVE SMOOTH",
"580 363 LINE",
"580 585 LINE SMOOTH",
"580 647 OFFCURVE",
"592 661 OFFCURVE",
"644 661 CURVE SMOOTH",
"741 661 LINE SMOOTH",
"812 661 OFFCURVE",
"831 643 OFFCURVE",
"850 572 CURVE SMOOTH",
"856 549 LINE",
"890 561 LINE",
"890 739 LINE",
"874 752 LINE",
"856 739 LINE SMOOTH",
"836 724 OFFCURVE",
"800 718 OFFCURVE",
"742 718 CURVE SMOOTH",
"435 718 LINE",
"87 94 LINE SMOOTH",
"66 57 OFFCURVE",
"38 48 OFFCURVE",
"9 40 CURVE SMOOTH",
"-14 34 LINE",
"-2 0 LINE",
"182 0 LINE",
"201 16 LINE",
"192 34 LINE SMOOTH",
"187 45 OFFCURVE",
"179 63 OFFCURVE",
"179 79 CURVE SMOOTH",
"179 100 OFFCURVE",
"180 117 OFFCURVE",
"200 154 CURVE SMOOTH",
"283 306 LINE",
"481 306 LINE",
"481 126 LINE SMOOTH",
"481 67 OFFCURVE",
"468 52 OFFCURVE",
"420 38 CURVE SMOOTH",
"399 32 LINE",
"410 0 LINE",
"831 0 LINE SMOOTH",
"852 0 OFFCURVE",
"865 -4 OFFCURVE",
"873 -14 CURVE SMOOTH",
"881 -25 LINE",
"901 -14 LINE",
"901 157 LINE",
"867 169 LINE",
"861 146 LINE SMOOTH",
"842 75 OFFCURVE",
"823 57 OFFCURVE",
"752 57 CURVE SMOOTH",
"644 57 LINE SMOOTH",
"592 57 OFFCURVE",
"580 71 OFFCURVE",
"580 133 CURVE SMOOTH",
"580 306 LINE"
);
},
{
closed = 1;
nodes = (
"315 363 LINE",
"481 665 LINE",
"481 363 LINE"
);
}
);
width = 964;
}
);
unicode = 00C6;
},
{
glyphname = B;
lastChange = "2016-09-22 13:09:51 +0000";
layers = (
{
hints = (
{
place = "{132, 99}";
},
{
place = "{460, 99}";
},
{
place = "{492, 104}";
},
{
horizontal = 1;
place = "{0, 52}";
},
{
horizontal = 1;
place = "{341, 46}";
},
{
horizontal = 1;
place = "{676, 56}";
}
);
layerId = UUID0;
paths = (
{
closed = 1;
nodes = (
"559 643 OFFCURVE",
"481 732 OFFCURVE",
"288 732 CURVE SMOOTH",
"195 732 OFFCURVE",
"91 708 OFFCURVE",
"40 688 CURVE",
"52 651 LINE",
"110 651 LINE SMOOTH",
"125 651 OFFCURVE",
"132 645 OFFCURVE",
"132 627 CURVE SMOOTH",
"132 133 LINE SMOOTH",
"132 71 OFFCURVE",
"118 55 OFFCURVE",
"68 40 CURVE SMOOTH",
"45 34 LINE",
"57 0 LINE",
"336 0 LINE SMOOTH",
"526 0 OFFCURVE",
"596 83 OFFCURVE",
"596 197 CURVE SMOOTH",
"596 269 OFFCURVE",
"544 334 OFFCURVE",
"454 364 CURVE",
"526 398 OFFCURVE",
"559 464 OFFCURVE",
"559 535 CURVE SMOOTH"
);
},
{
closed = 1;
nodes = (
"231 630 LINE SMOOTH",
"231 648 OFFCURVE",
"238 676 OFFCURVE",
"298 676 CURVE SMOOTH",
"404 676 OFFCURVE",
"460 614 OFFCURVE",
"460 533 CURVE SMOOTH",
"460 447 OFFCURVE",
"409 387 OFFCURVE",
"317 387 CURVE SMOOTH",
"286 387 OFFCURVE",
"275 394 OFFCURVE",
"267 394 CURVE SMOOTH",
"257 394 OFFCURVE",
"253 386 OFFCURVE",
"253 376 CURVE SMOOTH",
"253 368 OFFCURVE",
"257 359 OFFCURVE",
"268 354 CURVE SMOOTH",
"282 347 OFFCURVE",
"309 341 OFFCURVE",
"333 341 CURVE SMOOTH",
"432 341 OFFCURVE",
"492 277 OFFCURVE",
"492 202 CURVE SMOOTH",
"492 115 OFFCURVE",
"438 52 OFFCURVE",
"342 52 CURVE SMOOTH",
"303 52 OFFCURVE",
"231 58 OFFCURVE",
"231 183 CURVE SMOOTH"
);
}
);
width = 651;
}
);
unicode = 0042;
},
{
glyphname = C;
lastChange = "2016-09-22 13:09:51 +0000";
layers = (
{
hints = (
{
place = "{35, 113}";
},
{
place = "{485, 98}";
},
{
horizontal = 1;
place = "{-14, 69}";
},
{
horizontal = 1;
place = "{676, 56}";
}
);
layerId = UUID0;
paths = (
{
closed = 1;
nodes = (
"139 732 OFFCURVE",
"35 564 OFFCURVE",
"35 358 CURVE SMOOTH",
"35 153 OFFCURVE",
"139 -14 OFFCURVE",
"355 -14 CURVE SMOOTH",
"461 -14 OFFCURVE",
"536 36 OFFCURVE",
"588 113 CURVE SMOOTH",
"590 116 OFFCURVE",
"591 119 OFFCURVE",
"591 121 CURVE SMOOTH",
"591 134 OFFCURVE",
"571 149 OFFCURVE",
"559 149 CURVE SMOOTH",
"556 149 OFFCURVE",
"554 148 OFFCURVE",
"552 145 CURVE SMOOTH",
"514 90 OFFCURVE",
"452 55 OFFCURVE",
"364 55 CURVE SMOOTH",
"230 55 OFFCURVE",
"148 192 OFFCURVE",
"148 358 CURVE SMOOTH",
"148 508 OFFCURVE",
"201 676 OFFCURVE",
"358 676 CURVE SMOOTH",
"434 676 OFFCURVE",
"485 633 OFFCURVE",
"485 571 CURVE SMOOTH",
"485 515 OFFCURVE",
"455 490 OFFCURVE",
"455 480 CURVE SMOOTH",
"455 472 OFFCURVE",
"461 468 OFFCURVE",
"476 468 CURVE SMOOTH",
"537 468 OFFCURVE",
"583 516 OFFCURVE",
"583 585 CURVE SMOOTH",
"583 672 OFFCURVE",
"490 732 OFFCURVE",
"358 732 CURVE SMOOTH"
);
}
);
width = 617;
}
);
leftKerningGroup = C;
unicode = 0043;
},
{
glyphname = D;
lastChange = "2016-09-22 13:09:51 +0000";
layers = (
{
hints = (
{
place = "{127, 99}";
},
{
place = "{589, 109}";
},
{
horizontal = 1;
place = "{0, 51}";
},
{
horizontal = 1;
place = "{676, 56}";
}
);
layerId = UUID0;
paths = (
{
closed = 1;
nodes = (
"366 0 LINE SMOOTH",
"589 0 OFFCURVE",
"698 159 OFFCURVE",
"698 358 CURVE SMOOTH",
"698 557 OFFCURVE",
"605 732 OFFCURVE",
"306 732 CURVE SMOOTH",
"204 732 OFFCURVE",
"91 708 OFFCURVE",
"35 688 CURVE",
"47 651 LINE",
"105 651 LINE SMOOTH",
"120 651 OFFCURVE",
"127 645 OFFCURVE",
"127 627 CURVE SMOOTH",
"127 122 LINE SMOOTH",
"127 67 OFFCURVE",
"100 50 OFFCURVE",
"63 40 CURVE SMOOTH",
"40 34 LINE",
"52 0 LINE"
);
},
{
closed = 1;
nodes = (
"226 630 LINE",
"226 648 OFFCURVE",
"236 676 OFFCURVE",
"324 676 CURVE SMOOTH",
"508 676 OFFCURVE",
"589 521 OFFCURVE",
"589 360 CURVE SMOOTH",
"589 160 OFFCURVE",
"508 51 OFFCURVE",
"334 51 CURVE SMOOTH",
"279 51 OFFCURVE",
"226 71 OFFCURVE",
"226 175 CURVE SMOOTH"
);
}
);
width = 733;
}
);
rightKerningGroup = D;
unicode = 0044;
},
{
glyphname = Eth;
lastChange = "2016-09-22 13:09:51 +0000";
layers = (
{
components = (
{
name = D;
}
);
hints = (
{
horizontal = 1;
place = "{332, 63}";
}
);
layerId = UUID0;
paths = (
{
closed = 1;
nodes = (
"398 332 LINE",
"416 346 OFFCURVE",
"421 373 OFFCURVE",
"421 395 CURVE",
"33 395 LINE",
"15 382 OFFCURVE",
"10 354 OFFCURVE",
"10 332 CURVE"
);
}
);
width = 733;
}
);
rightKerningGroup = D;
unicode = 00D0;
},
{
glyphname = E;
lastChange = "2016-09-22 13:09:51 +0000";
layers = (
{
hints = (
{
place = "{127, 99}";
},
{
horizontal = 1;
place = "{0, 57}";
},
{
horizontal = 1;
place = "{336, 57}";
},
{
horizontal = 1;
place = "{661, 57}";
},
{
horizontal = 1;
place = "{752, -20}";
target = down;
type = TopGhost;
},
{
horizontal = 1;
place = "{-25, 21}";
target = up;
type = BottomGhost;
}
);
layerId = UUID0;
paths = (
{
closed = 1;
nodes = (
"311 336 LINE SMOOTH",
"382 336 OFFCURVE",
"408 326 OFFCURVE",
"420 279 CURVE SMOOTH",
"426 256 LINE",
"460 268 LINE",
"460 439 LINE",
"440 450 LINE",
"432 439 LINE SMOOTH",
"407 404 OFFCURVE",
"384 393 OFFCURVE",
"353 393 CURVE SMOOTH",
"226 393 LINE",
"226 585 LINE SMOOTH",
"226 647 OFFCURVE",
"238 661 OFFCURVE",
"290 661 CURVE SMOOTH",
"387 661 LINE SMOOTH",
"458 661 OFFCURVE",
"477 643 OFFCURVE",
"496 572 CURVE SMOOTH",
"502 549 LINE",
"536 561 LINE",
"536 739 LINE",
"520 752 LINE",
"502 739 LINE SMOOTH",
"482 724 OFFCURVE",
"446 718 OFFCURVE",
"388 718 CURVE SMOOTH",
"82 718 LINE",
"69 702 LINE",
"82 684 LINE SMOOTH",
"115 640 OFFCURVE",
"127 598 OFFCURVE",
"127 517 CURVE SMOOTH",
"127 126 LINE SMOOTH",
"127 67 OFFCURVE",
"114 52 OFFCURVE",
"66 38 CURVE SMOOTH",
"45 32 LINE",
"56 0 LINE",
"477 0 LINE SMOOTH",
"498 0 OFFCURVE",
"511 -4 OFFCURVE",
"519 -14 CURVE SMOOTH",
"527 -25 LINE",
"547 -14 LINE",
"547 157 LINE",
"513 169 LINE",
"507 146 LINE SMOOTH",
"488 75 OFFCURVE",
"469 57 OFFCURVE",
"398 57 CURVE SMOOTH",
"290 57 LINE SMOOTH",
"238 57 OFFCURVE",
"226 71 OFFCURVE",
"226 133 CURVE SMOOTH",
"226 336 LINE"
);
}
);
width = 610;
}
);
unicode = 0045;
},
{
glyphname = F;
lastChange = "2016-09-22 13:09:51 +0000";
layers = (
{
hints = (
{
place = "{103, 99}";
},
{
horizontal = 1;
place = "{326, 57}";
},
{
horizontal = 1;
place = "{661, 57}";
},
{
horizontal = 1;
place = "{752, -20}";
target = down;
type = TopGhost;
},
{
horizontal = 1;
place = "{0, 21}";
target = up;
type = BottomGhost;
}
);
layerId = UUID0;
paths = (
{
closed = 1;
nodes = (
"468 549 LINE",
"502 561 LINE",
"502 739 LINE",
"486 752 LINE",
"468 739 LINE SMOOTH",
"448 724 OFFCURVE",
"412 718 OFFCURVE",
"354 718 CURVE SMOOTH",
"58 718 LINE",
"45 702 LINE",
"58 684 LINE SMOOTH",
"91 640 OFFCURVE",
"103 598 OFFCURVE",
"103 517 CURVE SMOOTH",
"103 201 LINE SMOOTH",
"103 120 OFFCURVE",
"91 78 OFFCURVE",
"58 34 CURVE SMOOTH",
"45 16 LINE",
"58 0 LINE",
"277 0 LINE",
"289 34 LINE",
"266 40 LINE SMOOTH",
"216 55 OFFCURVE",
"202 71 OFFCURVE",
"202 133 CURVE SMOOTH",
"202 326 LINE",
"277 326 LINE SMOOTH",
"348 326 OFFCURVE",
"374 316 OFFCURVE",
"386 269 CURVE SMOOTH",
"392 246 LINE",
"426 258 LINE",
"426 429 LINE",
"406 440 LINE",
"398 429 LINE SMOOTH",
"373 394 OFFCURVE",
"350 383 OFFCURVE",
"319 383 CURVE SMOOTH",
"202 383 LINE",
"202 585 LINE SMOOTH",
"202 647 OFFCURVE",
"214 661 OFFCURVE",
"266 661 CURVE SMOOTH",
"353 661 LINE SMOOTH",
"424 661 OFFCURVE",
"443 643 OFFCURVE",
"462 572 CURVE SMOOTH"
);
}
);
width = 547;
}
);
rightKerningGroup = F;
unicode = 0046;
},
{
glyphname = G;
lastChange = "2016-09-22 13:09:51 +0000";
layers = (
{
hints = (
{
place = "{35, 108}";
},
{
place = "{191, 97}";
},
{
place = "{509, 102}";
},
{
place = "{521, 90}";
},
{
horizontal = 1;
place = "{-278, 52}";
},
{
horizontal = 1;
place = "{17, 64}";
},
{
horizontal = 1;
place = "{676, 56}";
},
{
horizontal = 1;
place = "{-14, 21}";
target = up;
type = BottomGhost;
}
);
layerId = UUID0;
paths = (
{
closed = 1;
nodes = (
"521 -12 LINE SMOOTH",
"521 -168 OFFCURVE",
"474 -226 OFFCURVE",
"390 -226 CURVE SMOOTH",
"325 -226 OFFCURVE",
"288 -184 OFFCURVE",
"288 -133 CURVE SMOOTH",
"288 -60 OFFCURVE",
"337 -38 OFFCURVE",
"337 -25 CURVE SMOOTH",
"337 -20 OFFCURVE",
"332 -14 OFFCURVE",
"318 -14 CURVE SMOOTH",
"235 -14 OFFCURVE",
"191 -73 OFFCURVE",
"191 -135 CURVE SMOOTH",
"191 -205 OFFCURVE",
"250 -278 OFFCURVE",
"373 -278 CURVE SMOOTH",
"518 -278 OFFCURVE",
"611 -197 OFFCURVE",
"611 16 CURVE SMOOTH",
"611 132 LINE SMOOTH",
"611 213 OFFCURVE",
"623 255 OFFCURVE",
"656 299 CURVE SMOOTH",
"669 317 LINE",
"656 333 LINE",
"446 333 LINE",
"434 299 LINE",
"457 293 LINE SMOOTH",
"507 278 OFFCURVE",
"521 262 OFFCURVE",
"521 200 CURVE SMOOTH",
"521 149 LINE",
"478 106 OFFCURVE",
"423 81 OFFCURVE",
"354 81 CURVE SMOOTH",
"222 81 OFFCURVE",
"143 216 OFFCURVE",
"143 381 CURVE SMOOTH",
"143 508 OFFCURVE",
"198 676 OFFCURVE",
"366 676 CURVE SMOOTH",
"452 676 OFFCURVE",
"509 629 OFFCURVE",
"509 561 CURVE SMOOTH",
"509 505 OFFCURVE",
"479 480 OFFCURVE",
"479 470 CURVE SMOOTH",
"479 460 OFFCURVE",
"479 458 OFFCURVE",
"500 458 CURVE SMOOTH",
"561 458 OFFCURVE",
"607 506 OFFCURVE",
"607 575 CURVE SMOOTH",
"607 668 OFFCURVE",
"507 732 OFFCURVE",
"366 732 CURVE SMOOTH",
"142 732 OFFCURVE",
"35 564 OFFCURVE",
"35 376 CURVE SMOOTH",
"35 177 OFFCURVE",
"136 17 OFFCURVE",
"345 17 CURVE SMOOTH",
"415 17 OFFCURVE",
"473 42 OFFCURVE",
"521 82 CURVE"
);
}
);
width = 691;
}
);
leftKerningGroup = C;
unicode = 0047;
},
{
glyphname = H;
lastChange = "2016-09-22 13:09:51 +0000";
layers = (
{
hints = (
{
place = "{127, 99}";
},
{
place = "{553, 99}";
},
{
horizontal = 1;
place = "{334, 61}";
},
{
horizontal = 1;
place = "{0, 21}";
target = up;
type = BottomGhost;
},
{
horizontal = 1;
place = "{718, -20}";
target = down;
type = TopGhost;
}
);
layerId = UUID0;
paths = (
{
closed = 1;
nodes = (
"723 0 LINE",
"734 32 LINE",
"713 38 LINE SMOOTH",
"665 52 OFFCURVE",
"652 67 OFFCURVE",
"652 126 CURVE SMOOTH",
"652 517 LINE SMOOTH",
"652 598 OFFCURVE",
"664 640 OFFCURVE",
"697 684 CURVE SMOOTH",
"710 702 LINE",
"697 718 LINE",
"478 718 LINE",
"466 684 LINE",
"489 678 LINE SMOOTH",
"539 663 OFFCURVE",
"553 647 OFFCURVE",
"553 585 CURVE SMOOTH",
"553 395 LINE",
"226 395 LINE",
"226 517 LINE SMOOTH",
"226 598 OFFCURVE",
"238 640 OFFCURVE",
"271 684 CURVE SMOOTH",
"284 702 LINE",
"271 718 LINE",
"52 718 LINE",
"40 684 LINE",
"63 678 LINE SMOOTH",
"113 663 OFFCURVE",
"127 647 OFFCURVE",
"127 585 CURVE SMOOTH",
"127 133 LINE SMOOTH",
"127 71 OFFCURVE",
"113 55 OFFCURVE",
"63 40 CURVE SMOOTH",
"40 34 LINE",
"52 0 LINE",
"297 0 LINE",
"308 32 LINE",
"287 38 LINE SMOOTH",
"239 52 OFFCURVE",
"226 67 OFFCURVE",
"226 126 CURVE SMOOTH",
"226 334 LINE",
"553 334 LINE",
"553 133 LINE SMOOTH",
"553 71 OFFCURVE",
"539 55 OFFCURVE",
"489 40 CURVE SMOOTH",
"466 34 LINE",
"478 0 LINE"
);
}
);
width = 779;
}
);
unicode = 0048;
},
{
glyphname = I;
lastChange = "2016-09-22 13:09:51 +0000";
layers = (
{
hints = (
{
place = "{127, 99}";
},
{
horizontal = 1;
place = "{0, 21}";
target = up;
type = BottomGhost;
},
{
horizontal = 1;
place = "{718, -20}";
target = down;
type = TopGhost;
}
);
layerId = UUID0;
paths = (
{
closed = 1;
nodes = (
"297 0 LINE",
"308 32 LINE",
"287 38 LINE SMOOTH",
"239 52 OFFCURVE",
"226 67 OFFCURVE",
"226 126 CURVE SMOOTH",
"226 517 LINE SMOOTH",
"226 598 OFFCURVE",
"238 640 OFFCURVE",
"271 684 CURVE SMOOTH",
"284 702 LINE",
"271 718 LINE",
"52 718 LINE",
"40 684 LINE",
"63 678 LINE SMOOTH",
"113 663 OFFCURVE",
"127 647 OFFCURVE",
"127 585 CURVE SMOOTH",
"127 133 LINE SMOOTH",
"127 71 OFFCURVE",
"113 55 OFFCURVE",
"63 40 CURVE SMOOTH",
"40 34 LINE",
"52 0 LINE"
);
}
);
width = 353;
}
);
unicode = 0049;
},
{
glyphname = J;
lastChange = "2016-09-22 13:09:51 +0000";
layers = (
{
hints = (
{
place = "{-20, 97}";
},
{
place = "{272, 99}";
},
{
horizontal = 1;
place = "{-14, 52}";
},
{
horizontal = 1;
place = "{718, -20}";
target = down;
type = TopGhost;
}
);
layerId = UUID0;
paths = (
{
closed = 1;
nodes = (
"272 175 LINE SMOOTH",
"272 65 OFFCURVE",
"223 38 OFFCURVE",
"169 38 CURVE SMOOTH",
"110 38 OFFCURVE",
"77 80 OFFCURVE",
"77 131 CURVE SMOOTH",
"77 204 OFFCURVE",
"126 226 OFFCURVE",
"126 239 CURVE SMOOTH",
"126 244 OFFCURVE",
"121 250 OFFCURVE",
"107 250 CURVE SMOOTH",
"24 250 OFFCURVE",
"-20 191 OFFCURVE",
"-20 129 CURVE SMOOTH",
"-20 59 OFFCURVE",
"39 -14 OFFCURVE",
"162 -14 CURVE SMOOTH",
"285 -14 OFFCURVE",
"371 55 OFFCURVE",
"371 236 CURVE SMOOTH",
"371 517 LINE SMOOTH",
"371 598 OFFCURVE",
"383 640 OFFCURVE",
"416 684 CURVE SMOOTH",
"429 702 LINE",
"416 718 LINE",
"197 718 LINE",
"185 684 LINE",
"208 678 LINE SMOOTH",
"258 663 OFFCURVE",
"272 647 OFFCURVE",
"272 585 CURVE SMOOTH"
);
}
);
width = 469;
}
);
rightKerningGroup = J;
unicode = 004A;
},
{
glyphname = K;
lastChange = "2016-09-22 13:09:51 +0000";
layers = (
{
hints = (
{
place = "{127, 99}";
},
{
horizontal = 1;
place = "{-14, 55}";
},
{
horizontal = 1;
place = "{718, -20}";
target = down;
type = TopGhost;
},
{
horizontal = 1;
place = "{0, 21}";
target = up;
type = BottomGhost;
}
);
layerId = UUID0;
paths = (
{
closed = 1;
nodes = (
"297 0 LINE",
"308 32 LINE",
"287 38 LINE SMOOTH",
"239 52 OFFCURVE",
"226 67 OFFCURVE",
"226 126 CURVE SMOOTH",
"226 517 LINE SMOOTH",
"226 598 OFFCURVE",
"238 640 OFFCURVE",
"271 684 CURVE SMOOTH",
"284 702 LINE",
"271 718 LINE",
"52 718 LINE",
"40 684 LINE",
"63 678 LINE SMOOTH",
"113 663 OFFCURVE",
"127 647 OFFCURVE",
"127 585 CURVE SMOOTH",
"127 133 LINE SMOOTH",
"127 71 OFFCURVE",
"113 55 OFFCURVE",
"63 40 CURVE SMOOTH",
"40 34 LINE",
"52 0 LINE"
);
},
{
closed = 1;
nodes = (
"429 299 LINE SMOOTH",
"410 332 OFFCURVE",
"386 352 OFFCURVE",
"360 364 CURVE",
"540 624 LINE SMOOTH",
"564 659 OFFCURVE",
"589 670 OFFCURVE",
"618 678 CURVE SMOOTH",
"641 684 LINE",
"629 718 LINE",
"448 718 LINE",
"429 702 LINE",
"438 684 LINE SMOOTH",
"443 673 OFFCURVE",
"451 655 OFFCURVE",
"451 639 CURVE SMOOTH",
"451 623 OFFCURVE",
"448 611 OFFCURVE",
"430 583 CURVE SMOOTH",
"294 380 LINE",
"286 381 OFFCURVE",
"278 381 OFFCURVE",
"270 381 CURVE SMOOTH",
"253 381 OFFCURVE",
"250 366 OFFCURVE",
"250 357 CURVE SMOOTH",
"250 352 OFFCURVE",
"251 348 OFFCURVE",
"255 346 CURVE SMOOTH",
"280 335 OFFCURVE",
"291 327 OFFCURVE",
"306 301 CURVE SMOOTH",
"425 83 LINE SMOOTH",
"459 22 OFFCURVE",
"496 -14 OFFCURVE",
"559 -14 CURVE SMOOTH",
"590 -14 OFFCURVE",
"622 -2 OFFCURVE",
"651 26 CURVE",
"634 55 LINE",
"620 45 OFFCURVE",
"608 41 OFFCURVE",
"595 41 CURVE SMOOTH",
"577 41 OFFCURVE",
"567 54 OFFCURVE",
"557 72 CURVE SMOOTH"
);
}
);
width = 668;
}
);
rightKerningGroup = K;
unicode = 004B;
},
{
glyphname = L;
lastChange = "2016-09-22 13:09:51 +0000";
layers = (
{
hints = (
{
place = "{127, 99}";
},
{
horizontal = 1;
place = "{0, 57}";
},
{
horizontal = 1;
place = "{718, -20}";
target = down;
type = TopGhost;
},
{
horizontal = 1;
place = "{-25, 21}";
target = up;
type = BottomGhost;
}
);
layerId = UUID0;
paths = (
{
closed = 1;
nodes = (
"226 517 LINE SMOOTH",
"226 598 OFFCURVE",
"238 640 OFFCURVE",
"271 684 CURVE SMOOTH",
"284 702 LINE",
"271 718 LINE",
"52 718 LINE",
"40 684 LINE",
"63 678 LINE SMOOTH",
"113 663 OFFCURVE",
"127 647 OFFCURVE",
"127 585 CURVE SMOOTH",
"127 126 LINE SMOOTH",
"127 67 OFFCURVE",
"114 52 OFFCURVE",
"66 38 CURVE SMOOTH",
"45 32 LINE",
"56 0 LINE",
"456 0 LINE SMOOTH",
"477 0 OFFCURVE",
"490 -4 OFFCURVE",
"498 -14 CURVE SMOOTH",
"506 -25 LINE",
"526 -14 LINE",
"526 157 LINE",
"492 169 LINE",
"486 146 LINE SMOOTH",
"467 75 OFFCURVE",
"448 57 OFFCURVE",
"377 57 CURVE SMOOTH",
"290 57 LINE SMOOTH",
"238 57 OFFCURVE",
"226 71 OFFCURVE",
"226 133 CURVE SMOOTH"
);
}
);
width = 550;
}
);
rightKerningGroup = L;
unicode = 004C;
},
{
glyphname = M;
lastChange = "2016-09-22 13:09:51 +0000";
layers = (
{
hints = (
{
place = "{109, 72}";
},
{
place = "{122, 59}";
},
{
place = "{695, 87}";
},
{
place = "{712, 85}";
},
{
place = "{122, 76}";
},
{
horizontal = 1;
place = "{718, -20}";
target = down;
type = TopGhost;
},
{
horizontal = 1;
place = "{0, 21}";
target = up;
type = BottomGhost;
}
);
layerId = UUID0;
paths = (
{
closed = 1;
nodes = (
"787 468 LINE SMOOTH",
"786 483 OFFCURVE",
"782 546 OFFCURVE",
"782 558 CURVE SMOOTH",
"782 614 OFFCURVE",
"793 648 OFFCURVE",
"818 684 CURVE SMOOTH",
"830 702 LINE",
"815 718 LINE",
"671 718 LINE",
"459 215 LINE",
"253 718 LINE",
"71 718 LINE",
"60 684 LINE",
"83 678 LINE SMOOTH",
"127 667 OFFCURVE",
"141 652 OFFCURVE",
"141 606 CURVE SMOOTH",
"141 590 OFFCURVE",
"137 537 OFFCURVE",
"136 529 CURVE SMOOTH",
"109 133 LINE SMOOTH",
"105 71 OFFCURVE",
"89 55 OFFCURVE",
"38 40 CURVE SMOOTH",
"15 34 LINE",
"26 0 LINE",
"214 0 LINE",
"229 16 LINE",
"217 34 LINE SMOOTH",
"192 70 OFFCURVE",
"181 104 OFFCURVE",
"181 160 CURVE SMOOTH",
"181 172 OFFCURVE",
"184 223 OFFCURVE",
"187 258 CURVE SMOOTH",
"209 566 LINE",
"418 72 LINE",
"472 72 LINE",
"681 566 LINE",
"710 149 LINE SMOOTH",
"711 138 OFFCURVE",
"712 121 OFFCURVE",
"712 112 CURVE SMOOTH",
"712 71 OFFCURVE",
"698 53 OFFCURVE",
"655 40 CURVE SMOOTH",
"632 34 LINE",
"644 0 LINE",
"863 0 LINE",
"876 16 LINE",
"831 61 OFFCURVE",
"813 113 OFFCURVE",
"807 194 CURVE SMOOTH"
);
}
);
width = 921;
}
);
unicode = 004D;
},
{
glyphname = N;
lastChange = "2016-09-22 13:09:51 +0000";
layers = (
{
hints = (
{
place = "{121, 70}";
},
{
place = "{589, 70}";
},
{
horizontal = 1;
place = "{0, 21}";
target = up;
type = BottomGhost;
},
{
horizontal = 1;
place = "{718, -20}";
target = down;
type = TopGhost;
}
);
layerId = UUID0;
paths = (
{
closed = 1;
nodes = (
"572 0 LINE",
"673 0 LINE",
"686 16 LINE",
"673 34 LINE SMOOTH",
"663 48 OFFCURVE",
"659 62 OFFCURVE",
"659 88 CURVE SMOOTH",
"659 517 LINE SMOOTH",
"659 598 OFFCURVE",
"671 640 OFFCURVE",
"704 684 CURVE SMOOTH",
"717 702 LINE",
"704 718 LINE",
"514 718 LINE",
"502 684 LINE",
"525 678 LINE SMOOTH",
"575 663 OFFCURVE",
"589 647 OFFCURVE",
"589 585 CURVE SMOOTH",
"589 151 LINE",
"207 718 LINE",
"46 718 LINE",
"34 684 LINE",
"57 678 LINE SMOOTH",
"107 663 OFFCURVE",
"121 647 OFFCURVE",
"121 585 CURVE SMOOTH",
"121 133 LINE SMOOTH",
"121 71 OFFCURVE",
"107 55 OFFCURVE",
"57 40 CURVE SMOOTH",
"34 34 LINE",
"46 0 LINE",
"236 0 LINE",
"249 16 LINE",
"236 34 LINE SMOOTH",
"203 78 OFFCURVE",
"191 120 OFFCURVE",
"191 201 CURVE SMOOTH",
"191 565 LINE"
);
}
);
width = 779;
}
);
rightKerningGroup = N;
unicode = 004E;
},
{
glyphname = O;
lastChange = "2016-09-22 13:09:51 +0000";
layers = (
{
hints = (
{
place = "{35, 108}";
},
{
place = "{589, 109}";
},
{
horizontal = 1;
place = "{-14, 59}";
},
{
horizontal = 1;
place = "{675, 57}";
}
);
layerId = UUID0;
paths = (
{
closed = 1;
nodes = (
"589 183 OFFCURVE",
"506 45 OFFCURVE",
"362 45 CURVE SMOOTH",
"217 45 OFFCURVE",
"143 180 OFFCURVE",
"143 350 CURVE SMOOTH",
"143 527 OFFCURVE",
"225 675 OFFCURVE",
"371 675 CURVE SMOOTH",
"541 675 OFFCURVE",
"589 480 OFFCURVE",
"589 355 CURVE SMOOTH"
);
},
{
closed = 1;
nodes = (
"35 152 OFFCURVE",
"142 -14 OFFCURVE",
"366 -14 CURVE SMOOTH",
"589 -14 OFFCURVE",
"698 152 OFFCURVE",
"698 358 CURVE SMOOTH",
"698 564 OFFCURVE",
"589 732 OFFCURVE",
"366 732 CURVE SMOOTH",
"142 732 OFFCURVE",
"35 564 OFFCURVE",
"35 358 CURVE SMOOTH"
);
}
);
width = 733;
}
);
leftKerningGroup = C;
rightKerningGroup = D;
unicode = 004F;
},
{
glyphname = OE;
lastChange = "2016-09-22 13:09:51 +0000";
layers = (
{
hints = (
{
place = "{35, 108}";
},
{
place = "{473, 99}";
},
{
horizontal = 1;
place = "{0, 45}";
},
{
horizontal = 1;
place = "{336, 57}";
},
{
horizontal = 1;
place = "{661, 57}";
},
{
horizontal = 1;
place = "{674, 44}";
},
{
horizontal = 1;
place = "{0, 57}";
},
{
horizontal = 1;
place = "{-25, 21}";
target = up;
type = BottomGhost;
},
{
horizontal = 1;
place = "{752, -20}";
target = down;
type = TopGhost;
}
);
layerId = UUID0;
paths = (
{
closed = 1;
nodes = (
"366 718 LINE SMOOTH",
"142 718 OFFCURVE",
"35 556 OFFCURVE",
"35 358 CURVE SMOOTH",
"35 160 OFFCURVE",
"142 0 OFFCURVE",
"366 0 CURVE SMOOTH",
"823 0 LINE SMOOTH",
"844 0 OFFCURVE",
"857 -4 OFFCURVE",
"865 -14 CURVE SMOOTH",
"873 -25 LINE",
"893 -14 LINE",
"893 157 LINE",
"859 169 LINE",
"853 146 LINE SMOOTH",
"834 75 OFFCURVE",
"815 57 OFFCURVE",
"744 57 CURVE SMOOTH",
"636 57 LINE SMOOTH",
"584 57 OFFCURVE",
"572 71 OFFCURVE",
"572 133 CURVE SMOOTH",
"572 336 LINE",
"657 336 LINE SMOOTH",
"728 336 OFFCURVE",
"754 326 OFFCURVE",
"766 279 CURVE SMOOTH",
"772 256 LINE",
"806 268 LINE",
"806 439 LINE",
"786 450 LINE",
"778 439 LINE SMOOTH",
"753 404 OFFCURVE",
"730 393 OFFCURVE",
"699 393 CURVE SMOOTH",
"572 393 LINE",
"572 585 LINE SMOOTH",
"572 647 OFFCURVE",
"584 661 OFFCURVE",
"636 661 CURVE SMOOTH",
"733 661 LINE SMOOTH",
"804 661 OFFCURVE",
"823 643 OFFCURVE",
"842 572 CURVE SMOOTH",
"848 549 LINE",
"882 561 LINE",
"882 739 LINE",
"866 752 LINE",
"848 739 LINE SMOOTH",
"828 724 OFFCURVE",
"792 718 OFFCURVE",
"734 718 CURVE SMOOTH"
);
},
{
closed = 1;
nodes = (
"230 45 OFFCURVE",
"143 185 OFFCURVE",
"143 358 CURVE SMOOTH",
"143 508 OFFCURVE",
"195 674 OFFCURVE",
"355 674 CURVE SMOOTH",
"399 674 OFFCURVE",
"440 658 OFFCURVE",
"473 633 CURVE",
"473 70 LINE",
"445 54 OFFCURVE",
"412 45 OFFCURVE",
"375 45 CURVE SMOOTH"
);
}
);
width = 956;
}
);
leftKerningGroup = C;
unicode = 0152;
},
{
glyphname = P;
lastChange = "2016-09-22 13:09:51 +0000";
layers = (
{
hints = (
{
place = "{127, 99}";
},
{
place = "{472, 104}";
},
{
horizontal = 1;
place = "{261, 52}";
},
{
horizontal = 1;
place = "{676, 56}";
},
{
horizontal = 1;
place = "{0, 21}";
target = up;
type = BottomGhost;
}
);
layerId = UUID0;
paths = (
{
closed = 1;
nodes = (
"226 630 LINE SMOOTH",
"226 648 OFFCURVE",
"234 676 OFFCURVE",
"302 676 CURVE SMOOTH",
"414 676 OFFCURVE",
"472 595 OFFCURVE",
"472 491 CURVE SMOOTH",
"472 384 OFFCURVE",
"415 313 OFFCURVE",
"313 313 CURVE SMOOTH",
"283 313 OFFCURVE",
"272 320 OFFCURVE",
"264 320 CURVE SMOOTH",
"253 320 OFFCURVE",
"248 308 OFFCURVE",
"248 296 CURVE SMOOTH",
"248 272 OFFCURVE",
"291 261 OFFCURVE",
"336 261 CURVE SMOOTH",
"502 261 OFFCURVE",
"576 369 OFFCURVE",
"576 494 CURVE SMOOTH",
"576 624 OFFCURVE",
"492 732 OFFCURVE",
"284 732 CURVE SMOOTH",
"190 732 OFFCURVE",
"86 708 OFFCURVE",
"35 688 CURVE",
"47 651 LINE",
"105 651 LINE SMOOTH",
"120 651 OFFCURVE",
"127 645 OFFCURVE",
"127 627 CURVE SMOOTH",
"127 133 LINE SMOOTH",
"127 72 OFFCURVE",
"113 53 OFFCURVE",
"63 40 CURVE SMOOTH",
"40 34 LINE",
"52 0 LINE",
"271 0 LINE",
"284 16 LINE",
"271 34 LINE SMOOTH",
"238 78 OFFCURVE",
"226 119 OFFCURVE",
"226 201 CURVE SMOOTH"
);
}
);
width = 596;
}
);
rightKerningGroup = P;
unicode = 0050;
},
{
glyphname = Thorn;
lastChange = "2016-09-22 13:09:51 +0000";
layers = (
{
hints = (
{
place = "{127, 99}";
},
{
place = "{472, 104}";
},
{
horizontal = 1;
place = "{130, 52}";
},
{
horizontal = 1;
place = "{548, 53}";
},
{
horizontal = 1;
place = "{0, 21}";
target = up;
type = BottomGhost;
},
{
horizontal = 1;
place = "{718, -20}";
target = down;
type = TopGhost;
}
);
layerId = UUID0;
paths = (
{
closed = 1;
nodes = (
"297 0 LINE",
"308 32 LINE",
"287 38 LINE SMOOTH",
"239 52 OFFCURVE",
"226 67 OFFCURVE",
"226 126 CURVE SMOOTH",
"226 498 LINE SMOOTH",
"226 518 OFFCURVE",
"235 548 OFFCURVE",
"313 548 CURVE SMOOTH",
"418 548 OFFCURVE",
"472 466 OFFCURVE",
"472 360 CURVE SMOOTH",
"472 253 OFFCURVE",
"415 182 OFFCURVE",
"313 182 CURVE SMOOTH",
"283 182 OFFCURVE",
"272 189 OFFCURVE",
"264 189 CURVE SMOOTH",
"253 189 OFFCURVE",
"248 177 OFFCURVE",
"248 165 CURVE SMOOTH",
"248 141 OFFCURVE",
"291 130 OFFCURVE",
"336 130 CURVE SMOOTH",
"502 130 OFFCURVE",
"576 238 OFFCURVE",
"576 363 CURVE SMOOTH",
"576 496 OFFCURVE",
"477 601 OFFCURVE",
"340 601 CURVE SMOOTH",
"305 601 OFFCURVE",
"268 595 OFFCURVE",
"229 581 CURVE",
"235 623 OFFCURVE",
"248 653 OFFCURVE",
"271 684 CURVE SMOOTH",
"284 702 LINE",
"271 718 LINE",
"52 718 LINE",
"40 684 LINE",
"63 678 LINE SMOOTH",
"113 663 OFFCURVE",
"127 647 OFFCURVE",
"127 585 CURVE SMOOTH",
"127 133 LINE SMOOTH",
"127 71 OFFCURVE",
"113 55 OFFCURVE",
"63 40 CURVE SMOOTH",
"40 34 LINE",
"52 0 LINE"
);
}
);
width = 596;
}
);
unicode = 00DE;
},
{
glyphname = Q;
lastChange = "2016-09-22 13:09:51 +0000";
layers = (
{
hints = (
{
place = "{35, 108}";
},
{
place = "{201, 43}";
},
{
place = "{589, 109}";
},
{
horizontal = 1;
place = "{-222, 80}";
},
{
horizontal = 1;
place = "{-14, 59}";
},
{
horizontal = 1;
place = "{196, 58}";
},
{
horizontal = 1;
place = "{675, 57}";
}
);
layerId = UUID0;
paths = (
{
closed = 1;
nodes = (
"35 152 OFFCURVE",
"142 -14 OFFCURVE",
"366 -14 CURVE SMOOTH",
"411 -14 OFFCURVE",
"451 -7 OFFCURVE",
"487 5 CURVE",
"526 -80 LINE SMOOTH",
"559 -154 OFFCURVE",
"606 -222 OFFCURVE",
"690 -222 CURVE SMOOTH",
"737 -222 OFFCURVE",
"783 -189 OFFCURVE",
"783 -139 CURVE SMOOTH",
"783 -134 OFFCURVE",
"780 -129 OFFCURVE",
"774 -129 CURVE SMOOTH",
"766 -129 OFFCURVE",
"749 -142 OFFCURVE",
"719 -142 CURVE SMOOTH",
"670 -142 OFFCURVE",
"638 -119 OFFCURVE",
"614 -65 CURVE SMOOTH",
"564 46 LINE",
"654 112 OFFCURVE",
"698 227 OFFCURVE",
"698 358 CURVE SMOOTH",
"698 564 OFFCURVE",
"589 732 OFFCURVE",
"366 732 CURVE SMOOTH",
"142 732 OFFCURVE",
"35 564 OFFCURVE",
"35 358 CURVE SMOOTH"
);
},
{
closed = 1;
nodes = (
"589 264 OFFCURVE",
"565 183 OFFCURVE",
"522 126 CURVE",
"466 214 OFFCURVE",
"398 254 OFFCURVE",
"327 254 CURVE SMOOTH",
"249 254 OFFCURVE",
"201 213 OFFCURVE",
"201 147 CURVE SMOOTH",
"201 140 OFFCURVE",
"201 134 OFFCURVE",
"203 127 CURVE",
"163 182 OFFCURVE",
"143 261 OFFCURVE",
"143 350 CURVE SMOOTH",
"143 527 OFFCURVE",
"225 675 OFFCURVE",
"371 675 CURVE SMOOTH",
"541 675 OFFCURVE",
"589 480 OFFCURVE",
"589 355 CURVE SMOOTH"
);
},
{
closed = 1;
nodes = (
"244 172 OFFCURVE",
"272 196 OFFCURVE",
"310 196 CURVE SMOOTH",
"354 196 OFFCURVE",
"412 163 OFFCURVE",
"458 70 CURVE",
"430 54 OFFCURVE",
"398 45 OFFCURVE",
"362 45 CURVE SMOOTH",
"304 45 OFFCURVE",
"244 70 OFFCURVE",
"244 133 CURVE SMOOTH"
);
}
);
width = 733;
}
);
leftKerningGroup = C;
rightKerningGroup = D;
unicode = 0051;
},
{
glyphname = R;
lastChange = "2016-09-22 13:09:51 +0000";
layers = (
{
hints = (
{
place = "{107, 99}";
},
{
place = "{452, 104}";
},
{
horizontal = 1;
place = "{-14, 55}";
},
{
horizontal = 1;
place = "{676, 56}";
},
{
horizontal = 1;
place = "{0, 21}";
target = up;
type = BottomGhost;
}
);
layerId = UUID0;
paths = (
{
closed = 1;
nodes = (
"604 55 LINE",
"590 45 OFFCURVE",
"578 41 OFFCURVE",
"565 41 CURVE SMOOTH",
"547 41 OFFCURVE",
"536 54 OFFCURVE",
"527 72 CURVE SMOOTH",
"434 261 LINE SMOOTH",
"423 282 OFFCURVE",
"412 298 OFFCURVE",
"394 310 CURVE",
"505 336 OFFCURVE",
"556 419 OFFCURVE",
"556 513 CURVE SMOOTH",
"556 633 OFFCURVE",
"472 732 OFFCURVE",
"264 732 CURVE SMOOTH",
"170 732 OFFCURVE",
"66 708 OFFCURVE",
"15 688 CURVE",
"27 651 LINE",
"85 651 LINE SMOOTH",
"100 651 OFFCURVE",
"107 645 OFFCURVE",
"107 627 CURVE SMOOTH",
"107 133 LINE SMOOTH",
"107 72 OFFCURVE",
"93 53 OFFCURVE",
"43 40 CURVE SMOOTH",
"20 34 LINE",
"32 0 LINE",
"251 0 LINE",
"264 16 LINE",
"251 34 LINE SMOOTH",
"219 78 OFFCURVE",
"206 119 OFFCURVE",
"206 201 CURVE SMOOTH",
"206 630 LINE SMOOTH",
"206 648 OFFCURVE",
"214 676 OFFCURVE",
"282 676 CURVE SMOOTH",
"394 676 OFFCURVE",
"452 603 OFFCURVE",
"452 510 CURVE SMOOTH",
"452 417 OFFCURVE",
"395 354 OFFCURVE",
"293 354 CURVE SMOOTH",
"263 354 OFFCURVE",
"252 361 OFFCURVE",
"244 361 CURVE SMOOTH",
"233 361 OFFCURVE",
"228 349 OFFCURVE",
"228 337 CURVE SMOOTH",
"228 327 OFFCURVE",
"234 319 OFFCURVE",
"247 314 CURVE SMOOTH",
"286 300 OFFCURVE",
"302 293 OFFCURVE",
"315 264 CURVE SMOOTH",
"391 103 LINE SMOOTH",
"426 28 OFFCURVE",
"459 -14 OFFCURVE",
"529 -14 CURVE SMOOTH",
"560 -14 OFFCURVE",
"592 -2 OFFCURVE",
"621 26 CURVE"
);
}
);
width = 640;
}
);
unicode = 0052;
},
{
glyphname = S;
lastChange = "2016-09-22 13:09:51 +0000";
layers = (
{
hints = (
{
place = "{45, 111}";
},
{
place = "{61, 95}";
},
{
place = "{406, 98}";
},
{
place = "{421, 83}";
},
{
place = "{421, 101}";
},
{
horizontal = 1;
place = "{-14, 56}";
},
{
horizontal = 1;
place = "{676, 56}";
}
);
layerId = UUID0;
paths = (
{
closed = 1;
nodes = (
"206 42 OFFCURVE",
"148 91 OFFCURVE",
"148 161 CURVE SMOOTH",
"148 217 OFFCURVE",
"180 243 OFFCURVE",
"180 252 CURVE SMOOTH",
"180 258 OFFCURVE",
"174 264 OFFCURVE",
"159 264 CURVE SMOOTH",
"94 264 OFFCURVE",
"45 216 OFFCURVE",
"45 147 CURVE SMOOTH",
"45 52 OFFCURVE",
"147 -14 OFFCURVE",
"292 -14 CURVE SMOOTH",
"443 -14 OFFCURVE",
"522 65 OFFCURVE",
"522 181 CURVE SMOOTH",
"522 429 OFFCURVE",
"156 386 OFFCURVE",
"156 561 CURVE SMOOTH",
"156 620 OFFCURVE",
"196 676 OFFCURVE",
"279 676 CURVE SMOOTH",
"355 676 OFFCURVE",
"406 633 OFFCURVE",
"406 571 CURVE SMOOTH",
"406 515 OFFCURVE",
"376 490 OFFCURVE",
"376 480 CURVE SMOOTH",
"376 472 OFFCURVE",
"382 468 OFFCURVE",
"397 468 CURVE SMOOTH",
"458 468 OFFCURVE",
"504 516 OFFCURVE",
"504 585 CURVE SMOOTH",
"504 672 OFFCURVE",
"411 732 OFFCURVE",
"279 732 CURVE SMOOTH",
"131 732 OFFCURVE",
"61 636 OFFCURVE",
"61 538 CURVE SMOOTH",
"61 294 OFFCURVE",
"421 350 OFFCURVE",
"421 155 CURVE SMOOTH",
"421 83 OFFCURVE",
"367 42 OFFCURVE",
"292 42 CURVE SMOOTH"
);
}
);
width = 572;
}
);
rightKerningGroup = S;
unicode = 0053;
},
{
glyphname = T;
lastChange = "2016-09-22 13:09:51 +0000";
layers = (
{
hints = (
{
place = "{248, 99}";
},
{
horizontal = 1;
place = "{661, 57}";
},
{
horizontal = 1;
place = "{752, -20}";
target = down;
type = TopGhost;
},
{
horizontal = 1;
place = "{0, 21}";
target = up;
type = BottomGhost;
}
);
layerId = UUID0;
paths = (
{
closed = 1;
nodes = (
"541 549 LINE",
"575 561 LINE",
"575 739 LINE",
"559 752 LINE",
"541 739 LINE SMOOTH",
"521 724 OFFCURVE",
"485 718 OFFCURVE",
"427 718 CURVE SMOOTH",
"168 718 LINE SMOOTH",
"110 718 OFFCURVE",
"74 724 OFFCURVE",
"54 739 CURVE SMOOTH",
"36 752 LINE",
"20 739 LINE",
"20 561 LINE",
"54 549 LINE",
"60 572 LINE SMOOTH",
"79 643 OFFCURVE",
"98 661 OFFCURVE",
"169 661 CURVE SMOOTH",
"214 661 LINE SMOOTH",
"242 661 OFFCURVE",
"248 647 OFFCURVE",
"248 585 CURVE SMOOTH",
"248 201 LINE SMOOTH",
"248 120 OFFCURVE",
"236 78 OFFCURVE",
"203 34 CURVE SMOOTH",
"190 16 LINE",
"203 0 LINE",
"422 0 LINE",
"434 34 LINE",
"411 40 LINE SMOOTH",
"361 55 OFFCURVE",
"347 71 OFFCURVE",
"347 133 CURVE SMOOTH",
"347 585 LINE SMOOTH",
"347 647 OFFCURVE",
"353 661 OFFCURVE",
"381 661 CURVE SMOOTH",
"426 661 LINE SMOOTH",
"497 661 OFFCURVE",
"516 643 OFFCURVE",
"535 572 CURVE SMOOTH"
);
}
);
width = 595;
}
);
leftKerningGroup = T;
rightKerningGroup = T;
unicode = 0054;
},
{
glyphname = U;
lastChange = "2016-09-22 13:09:51 +0000";
layers = (
{
hints = (
{
place = "{111, 99}";
},
{
place = "{562, 70}";
},
{
horizontal = 1;
place = "{-14, 63}";
},
{
horizontal = 1;
place = "{718, -20}";
target = down;
type = TopGhost;
}
);
layerId = UUID0;
paths = (
{
closed = 1;
nodes = (
"210 517 LINE SMOOTH",
"210 598 OFFCURVE",
"222 640 OFFCURVE",
"255 684 CURVE SMOOTH",
"268 702 LINE",
"255 718 LINE",
"36 718 LINE",
"24 684 LINE",
"47 678 LINE SMOOTH",
"97 663 OFFCURVE",
"111 647 OFFCURVE",
"111 585 CURVE SMOOTH",
"111 220 LINE SMOOTH",
"111 55 OFFCURVE",
"227 -14 OFFCURVE",
"373 -14 CURVE SMOOTH",
"517 -14 OFFCURVE",
"632 55 OFFCURVE",
"632 220 CURVE SMOOTH",
"632 517 LINE SMOOTH",
"632 598 OFFCURVE",
"644 640 OFFCURVE",
"677 684 CURVE SMOOTH",
"690 702 LINE",
"677 718 LINE",
"487 718 LINE",
"475 684 LINE",
"498 678 LINE SMOOTH",
"548 663 OFFCURVE",
"562 647 OFFCURVE",
"562 585 CURVE SMOOTH",
"562 220 LINE SMOOTH",
"562 111 OFFCURVE",
"484 49 OFFCURVE",
"386 49 CURVE SMOOTH",
"288 49 OFFCURVE",
"210 111 OFFCURVE",
"210 220 CURVE SMOOTH"
);
}
);
width = 739;
}
);
leftKerningGroup = U;
rightKerningGroup = U;
unicode = 0055;
},
{
glyphname = V;
lastChange = "2016-09-22 13:09:51 +0000";
layers = (
{
hints = (
{
horizontal = 1;
place = "{718, -20}";
target = down;
type = TopGhost;
},
{
horizontal = 1;
place = "{0, 21}";
target = up;
type = BottomGhost;
}
);
layerId = UUID0;
paths = (
{
closed = 1;
nodes = (
"597 584 LINE SMOOTH",
"609 621 OFFCURVE",
"626 653 OFFCURVE",
"652 684 CURVE SMOOTH",
"667 702 LINE",
"654 718 LINE",
"464 718 LINE",
"452 684 LINE",
"475 678 LINE SMOOTH",
"505 670 OFFCURVE",
"519 647 OFFCURVE",
"520 611 CURVE SMOOTH",
"520 587 OFFCURVE",
"513 556 OFFCURVE",
"501 518 CURVE SMOOTH",
"361 83 LINE",
"198 585 LINE SMOOTH",
"191 606 OFFCURVE",
"187 621 OFFCURVE",
"187 634 CURVE SMOOTH",
"187 659 OFFCURVE",
"201 670 OFFCURVE",
"232 678 CURVE SMOOTH",
"255 684 LINE",
"243 718 LINE",
"18 718 LINE",
"5 702 LINE",
"48 669 OFFCURVE",
"73 646 OFFCURVE",
"95 580 CURVE SMOOTH",
"290 0 LINE",
"404 0 LINE"
);
}
);
width = 682;
}
);
leftKerningGroup = V;
rightKerningGroup = V;
unicode = 0056;
},
{
glyphname = W;
lastChange = "2016-09-22 13:09:51 +0000";
layers = (
{
hints = (
{
horizontal = 1;
place = "{718, -20}";
target = down;
type = TopGhost;
},
{
horizontal = 1;
place = "{0, 21}";
target = up;
type = BottomGhost;
}
);
layerId = UUID0;
paths = (
{
closed = 1;
nodes = (
"1002 584 LINE SMOOTH",
"1014 621 OFFCURVE",
"1031 653 OFFCURVE",
"1057 684 CURVE SMOOTH",
"1072 702 LINE",
"1059 718 LINE",
"869 718 LINE",
"857 684 LINE",
"880 678 LINE SMOOTH",
"910 670 OFFCURVE",
"924 647 OFFCURVE",
"925 611 CURVE SMOOTH",
"925 587 OFFCURVE",
"918 556 OFFCURVE",
"906 518 CURVE SMOOTH",
"766 83 LINE",
"603 585 LINE SMOOTH",
"596 606 OFFCURVE",
"592 621 OFFCURVE",
"592 634 CURVE SMOOTH",
"592 659 OFFCURVE",
"606 670 OFFCURVE",
"637 678 CURVE SMOOTH",
"660 684 LINE",
"648 718 LINE",
"423 718 LINE",
"410 702 LINE",
"453 669 OFFCURVE",
"478 646 OFFCURVE",
"500 580 CURVE SMOOTH",
"510 548 LINE",
"361 83 LINE",
"198 585 LINE SMOOTH",
"191 606 OFFCURVE",
"187 621 OFFCURVE",
"187 634 CURVE SMOOTH",
"187 659 OFFCURVE",
"201 670 OFFCURVE",
"232 678 CURVE SMOOTH",
"255 684 LINE",
"243 718 LINE",
"18 718 LINE",
"5 702 LINE",
"48 669 OFFCURVE",
"73 646 OFFCURVE",
"95 580 CURVE SMOOTH",
"290 0 LINE",
"404 0 LINE",
"548 436 LINE",
"695 0 LINE",
"809 0 LINE"
);
}
);
width = 1087;
}
);
leftKerningGroup = V;
rightKerningGroup = V;
unicode = 0057;
},
{
glyphname = X;
lastChange = "2016-09-22 13:09:51 +0000";
layers = (
{
hints = (
{
horizontal = 1;
place = "{718, -20}";
target = down;
type = TopGhost;
},
{
horizontal = 1;
place = "{0, 21}";
target = up;
type = BottomGhost;
}
);
layerId = UUID0;
paths = (
{
closed = 1;
nodes = (
"250 576 LINE SMOOTH",
"240 591 OFFCURVE",
"228 614 OFFCURVE",
"228 635 CURVE SMOOTH",
"228 654 OFFCURVE",
"238 670 OFFCURVE",
"267 678 CURVE SMOOTH",
"290 684 LINE",
"278 718 LINE",
"41 718 LINE",
"28 702 LINE",
"63 672 OFFCURVE",
"94 631 OFFCURVE",
"119 596 CURVE SMOOTH",
"290 353 LINE",
"111 94 LINE SMOOTH",
"87 59 OFFCURVE",
"62 48 OFFCURVE",
"33 40 CURVE SMOOTH",
"10 34 LINE",
"22 0 LINE",
"206 0 LINE",
"225 16 LINE",
"216 34 LINE SMOOTH",
"211 45 OFFCURVE",
"203 63 OFFCURVE",
"203 79 CURVE SMOOTH",
"203 95 OFFCURVE",
"206 107 OFFCURVE",
"224 135 CURVE SMOOTH",
"330 295 LINE",
"439 142 LINE SMOOTH",
"449 127 OFFCURVE",
"461 104 OFFCURVE",
"461 83 CURVE SMOOTH",
"461 64 OFFCURVE",
"451 48 OFFCURVE",
"422 40 CURVE SMOOTH",
"399 34 LINE",
"411 0 LINE",
"648 0 LINE",
"661 16 LINE",
"622 48 OFFCURVE",
"601 78 OFFCURVE",
"574 116 CURVE SMOOTH",
"394 371 LINE",
"569 624 LINE SMOOTH",
"593 659 OFFCURVE",
"618 670 OFFCURVE",
"647 678 CURVE SMOOTH",
"670 684 LINE",
"658 718 LINE",
"474 718 LINE",
"455 702 LINE",
"464 684 LINE SMOOTH",
"469 673 OFFCURVE",
"477 655 OFFCURVE",
"477 639 CURVE SMOOTH",
"477 623 OFFCURVE",
"474 611 OFFCURVE",
"456 583 CURVE SMOOTH",
"353 429 LINE"
);
}
);
width = 680;
}
);
unicode = 0058;
},
{
glyphname = Y;
lastChange = "2016-09-22 13:09:51 +0000";
layers = (
{
hints = (
{
horizontal = 1;
place = "{718, -20}";
target = down;
type = TopGhost;
},
{
horizontal = 1;
place = "{0, 21}";
target = up;
type = BottomGhost;
}
);
layerId = UUID0;
paths = (
{
closed = 1;
nodes = (
"218 571 LINE SMOOTH",
"207 590 OFFCURVE",
"187 621 OFFCURVE",
"187 634 CURVE SMOOTH",
"187 659 OFFCURVE",
"201 670 OFFCURVE",
"232 678 CURVE SMOOTH",
"255 684 LINE",
"243 718 LINE",
"18 718 LINE",
"5 702 LINE",
"48 669 OFFCURVE",
"71 636 OFFCURVE",
"105 576 CURVE SMOOTH",
"265 295 LINE",
"265 201 LINE SMOOTH",
"265 119 OFFCURVE",
"250 78 OFFCURVE",
"218 34 CURVE SMOOTH",
"205 16 LINE",
"218 0 LINE",
"437 0 LINE",
"449 34 LINE",
"426 40 LINE SMOOTH",
"376 53 OFFCURVE",
"360 72 OFFCURVE",
"360 133 CURVE SMOOTH",
"360 303 LINE",
"515 578 LINE SMOOTH",
"534 612 OFFCURVE",
"560 653 OFFCURVE",
"586 684 CURVE SMOOTH",
"601 702 LINE",
"588 718 LINE",
"398 718 LINE",
"386 684 LINE",
"409 678 LINE SMOOTH",
"430 672 OFFCURVE",
"451 654 OFFCURVE",
"451 625 CURVE SMOOTH",
"451 613 OFFCURVE",
"447 599 OFFCURVE",
"439 584 CURVE SMOOTH",
"326 382 LINE"
);
}
);
width = 626;
}
);
leftKerningGroup = V;
rightKerningGroup = V;
unicode = 0059;
},
{
glyphname = Z;
lastChange = "2016-09-22 13:09:51 +0000";
layers = (
{
hints = (
{
horizontal = 1;
place = "{0, 57}";
},
{
horizontal = 1;
place = "{661, 57}";
},
{
horizontal = 1;
place = "{-25, 21}";
target = up;
type = BottomGhost;
},
{
horizontal = 1;
place = "{752, -20}";
target = down;
type = TopGhost;
}
);
layerId = UUID0;
paths = (
{
closed = 1;
nodes = (
"97 572 LINE SMOOTH",
"116 643 OFFCURVE",
"135 661 OFFCURVE",
"206 661 CURVE SMOOTH",
"417 661 LINE",
"20 0 LINE",
"480 0 LINE SMOOTH",
"501 0 OFFCURVE",
"514 -4 OFFCURVE",
"522 -14 CURVE SMOOTH",
"530 -25 LINE",
"550 -14 LINE",
"550 157 LINE",
"516 169 LINE",
"510 146 LINE SMOOTH",
"491 75 OFFCURVE",
"472 57 OFFCURVE",
"401 57 CURVE SMOOTH",
"175 57 LINE",
"570 718 LINE",
"205 718 LINE SMOOTH",
"147 718 OFFCURVE",
"111 724 OFFCURVE",
"91 739 CURVE SMOOTH",
"73 752 LINE",
"57 739 LINE",
"57 561 LINE",
"91 549 LINE"
);
}
);
width = 590;
}
);
unicode = 005A;
},
{
glyphname = a;
lastChange = "2016-09-22 13:09:51 +0000";
layers = (
{
hints = (
{
place = "{45, 105}";
},
{
place = "{401, 89}";
},
{
horizontal = 1;
place = "{-14, 77}";
},
{
horizontal = 1;
place = "{455, 55}";
}
);
layerId = UUID0;
paths = (
{
closed = 1;
nodes = (
"401 17 OFFCURVE",
"423 -14 OFFCURVE",
"478 -14 CURVE SMOOTH",
"512 -14 OFFCURVE",
"554 10 OFFCURVE",
"589 49 CURVE",
"570 75 LINE",
"553 63 OFFCURVE",
"535 57 OFFCURVE",
"520 57 CURVE SMOOTH",
"501 57 OFFCURVE",
"490 67 OFFCURVE",
"490 88 CURVE SMOOTH",
"490 415 LINE SMOOTH",
"490 432 OFFCURVE",
"495 442 OFFCURVE",
"503 454 CURVE SMOOTH",
"515 472 LINE",
"504 485 LINE",
"436 490 OFFCURVE",
"366 510 OFFCURVE",
"304 510 CURVE SMOOTH",
"145 510 OFFCURVE",
"45 402 OFFCURVE",
"45 229 CURVE SMOOTH",
"45 67 OFFCURVE",
"130 -14 OFFCURVE",
"224 -14 CURVE SMOOTH",
"286 -14 OFFCURVE",
"343 11 OFFCURVE",
"401 92 CURVE"
);
},
{
closed = 1;
nodes = (
"150 379 OFFCURVE",
"206 455 OFFCURVE",
"303 455 CURVE SMOOTH",
"336 455 OFFCURVE",
"370 445 OFFCURVE",
"401 424 CURVE",
"401 154 LINE",
"364 91 OFFCURVE",
"315 63 OFFCURVE",
"264 63 CURVE SMOOTH",
"205 63 OFFCURVE",
"150 112 OFFCURVE",
"150 248 CURVE SMOOTH"
);
}
);
width = 604;
}
);
leftKerningGroup = a;
unicode = 0061;
},
{
glyphname = ae;
lastChange = "2016-09-22 13:09:51 +0000";
layers = (
{
hints = (
{
place = "{45, 95}";
},
{
place = "{381, 103}";
},
{
place = "{715, 95}";
},
{
horizontal = 1;
place = "{-14, 54}";
},
{
horizontal = 1;
place = "{194, 56}";
},
{
horizontal = 1;
place = "{250, 56}";
},
{
horizontal = 1;
place = "{444, 66}";
},
{
horizontal = 1;
place = "{460, 50}";
},
{
horizontal = 1;
place = "{-14, 66}";
}
);
layerId = UUID0;
paths = (
{
closed = 1;
nodes = (
"138 510 OFFCURVE",
"59 448 OFFCURVE",
"59 428 CURVE SMOOTH",
"59 415 OFFCURVE",
"74 399 OFFCURVE",
"85 399 CURVE SMOOTH",
"99 399 OFFCURVE",
"123 444 OFFCURVE",
"233 444 CURVE SMOOTH",
"330 444 OFFCURVE",
"381 371 OFFCURVE",
"381 254 CURVE SMOOTH",
"381 116 OFFCURVE",
"326 40 OFFCURVE",
"235 40 CURVE SMOOTH",
"172 40 OFFCURVE",
"140 85 OFFCURVE",
"140 132 CURVE SMOOTH",
"140 191 OFFCURVE",
"182 250 OFFCURVE",
"267 250 CURVE SMOOTH",
"314 250 OFFCURVE",
"329 237 OFFCURVE",
"341 237 CURVE SMOOTH",
"349 237 OFFCURVE",
"356 248 OFFCURVE",
"356 259 CURVE SMOOTH",
"356 294 OFFCURVE",
"267 306 OFFCURVE",
"236 306 CURVE SMOOTH",
"111 306 OFFCURVE",
"45 217 OFFCURVE",
"45 133 CURVE SMOOTH",
"45 58 OFFCURVE",
"100 -14 OFFCURVE",
"215 -14 CURVE SMOOTH",
"308 -14 OFFCURVE",
"376 31 OFFCURVE",
"410 106 CURVE",
"447 31 OFFCURVE",
"518 -14 OFFCURVE",
"611 -14 CURVE SMOOTH",
"690 -14 OFFCURVE",
"759 17 OFFCURVE",
"809 75 CURVE SMOOTH",
"811 77 OFFCURVE",
"813 80 OFFCURVE",
"813 84 CURVE SMOOTH",
"813 97 OFFCURVE",
"798 113 OFFCURVE",
"787 113 CURVE SMOOTH",
"782 113 OFFCURVE",
"780 111 OFFCURVE",
"778 109 CURVE SMOOTH",
"738 70 OFFCURVE",
"688 52 OFFCURVE",
"632 52 CURVE SMOOTH",
"535 52 OFFCURVE",
"484 125 OFFCURVE",
"484 242 CURVE SMOOTH",
"484 383 OFFCURVE",
"535 460 OFFCURVE",
"620 460 CURVE SMOOTH",
"683 460 OFFCURVE",
"715 413 OFFCURVE",
"715 364 CURVE SMOOTH",
"715 307 OFFCURVE",
"673 250 OFFCURVE",
"588 250 CURVE SMOOTH",
"547 250 OFFCURVE",
"534 263 OFFCURVE",
"524 263 CURVE SMOOTH",
"516 263 OFFCURVE",
"509 252 OFFCURVE",
"509 241 CURVE SMOOTH",
"509 206 OFFCURVE",
"591 194 OFFCURVE",
"619 194 CURVE SMOOTH",
"744 194 OFFCURVE",
"810 281 OFFCURVE",
"810 363 CURVE SMOOTH",
"810 438 OFFCURVE",
"755 510 OFFCURVE",
"640 510 CURVE SMOOTH",
"552 510 OFFCURVE",
"482 476 OFFCURVE",
"437 419 CURVE",
"397 476 OFFCURVE",
"333 510 OFFCURVE",
"254 510 CURVE SMOOTH"
);
}
);
width = 865;
}
);
leftKerningGroup = a;
unicode = 00E6;
},
{
glyphname = b;
lastChange = "2016-09-22 13:09:51 +0000";
layers = (
{
hints = (
{
place = "{98, 91}";
},
{
place = "{439, 106}";
},
{
horizontal = 1;
place = "{-14, 56}";
},
{
horizontal = 1;
place = "{441, 69}";
},
{
horizontal = 1;
place = "{454, 56}";
},
{
horizontal = 1;
place = "{782, -20}";
target = down;
type = TopGhost;
}
);
layerId = UUID0;
paths = (
{
closed = 1;
nodes = (
"383 454 OFFCURVE",
"439 370 OFFCURVE",
"439 248 CURVE SMOOTH",
"439 122 OFFCURVE",
"383 42 OFFCURVE",
"294 42 CURVE SMOOTH",
"251 42 OFFCURVE",
"220 52 OFFCURVE",
"189 74 CURVE",
"189 750 LINE SMOOTH",
"189 769 OFFCURVE",
"176 782 OFFCURVE",
"157 782 CURVE SMOOTH",
"119 782 OFFCURVE",
"64 757 OFFCURVE",
"25 722 CURVE",
"34 696 LINE",
"78 696 LINE SMOOTH",
"92 696 OFFCURVE",
"98 690 OFFCURVE",
"98 674 CURVE SMOOTH",
"98 49 LINE",
"137 10 OFFCURVE",
"208 -14 OFFCURVE",
"285 -14 CURVE SMOOTH",
"434 -14 OFFCURVE",
"545 106 OFFCURVE",
"545 268 CURVE SMOOTH",
"545 410 OFFCURVE",
"457 510 OFFCURVE",
"332 510 CURVE SMOOTH",
"298 510 OFFCURVE",
"264 502 OFFCURVE",
"231 481 CURVE SMOOTH",
"225 477 OFFCURVE",
"222 470 OFFCURVE",
"222 463 CURVE SMOOTH",
"222 452 OFFCURVE",
"229 441 OFFCURVE",
"237 441 CURVE SMOOTH",
"247 441 OFFCURVE",
"260 454 OFFCURVE",
"301 454 CURVE SMOOTH"
);
}
);
width = 590;
}
);
unicode = 0062;
},
{
glyphname = c;
lastChange = "2016-09-22 13:09:51 +0000";
layers = (
{
hints = (
{
place = "{45, 104}";
},
{
place = "{370, 93}";
},
{
horizontal = 1;
place = "{-14, 67}";
},
{
horizontal = 1;
place = "{458, 52}";
}
);
layerId = UUID0;
paths = (
{
closed = 1;
nodes = (
"394 69 OFFCURVE",
"352 53 OFFCURVE",
"303 53 CURVE SMOOTH",
"208 53 OFFCURVE",
"149 131 OFFCURVE",
"149 255 CURVE SMOOTH",
"149 376 OFFCURVE",
"200 458 OFFCURVE",
"276 458 CURVE SMOOTH",
"333 458 OFFCURVE",
"370 424 OFFCURVE",
"370 371 CURVE SMOOTH",
"370 315 OFFCURVE",
"346 298 OFFCURVE",
"346 289 CURVE SMOOTH",
"346 281 OFFCURVE",
"352 278 OFFCURVE",
"365 278 CURVE SMOOTH",
"422 278 OFFCURVE",
"463 318 OFFCURVE",
"463 376 CURVE SMOOTH",
"463 455 OFFCURVE",
"390 510 OFFCURVE",
"287 510 CURVE SMOOTH",
"140 510 OFFCURVE",
"45 407 OFFCURVE",
"45 247 CURVE SMOOTH",
"45 96 OFFCURVE",
"146 -14 OFFCURVE",
"286 -14 CURVE SMOOTH",
"355 -14 OFFCURVE",
"419 15 OFFCURVE",
"466 69 CURVE SMOOTH",
"468 71 OFFCURVE",
"469 74 OFFCURVE",
"469 78 CURVE SMOOTH",
"469 91 OFFCURVE",
"455 106 OFFCURVE",
"444 106 CURVE SMOOTH",
"439 106 OFFCURVE",
"436 104 OFFCURVE",
"435 103 CURVE SMOOTH"
);
}
);
width = 509;
}
);
leftKerningGroup = c;
unicode = 0063;
},
{
glyphname = d;
lastChange = "2016-09-22 13:09:51 +0000";
layers = (
{
hints = (
{
place = "{45, 105}";
},
{
place = "{401, 89}";
},
{
horizontal = 1;
place = "{-14, 77}";
},
{
horizontal = 1;
place = "{455, 55}";
},
{
horizontal = 1;
place = "{782, -20}";
target = down;
type = TopGhost;
}
);
layerId = UUID0;
paths = (
{
closed = 1;
nodes = (
"150 379 OFFCURVE",
"206 455 OFFCURVE",
"303 455 CURVE SMOOTH",
"336 455 OFFCURVE",
"370 445 OFFCURVE",
"401 424 CURVE",
"401 154 LINE",
"364 91 OFFCURVE",
"315 63 OFFCURVE",
"264 63 CURVE SMOOTH",
"205 63 OFFCURVE",
"150 112 OFFCURVE",
"150 248 CURVE SMOOTH"
);
},
{
closed = 1;
nodes = (
"490 750 LINE SMOOTH",
"490 769 OFFCURVE",
"477 782 OFFCURVE",
"458 782 CURVE SMOOTH",
"420 782 OFFCURVE",
"365 757 OFFCURVE",
"326 722 CURVE",
"335 696 LINE",
"379 696 LINE SMOOTH",
"393 696 OFFCURVE",
"399 690 OFFCURVE",
"399 674 CURVE SMOOTH",
"399 497 LINE",
"369 506 OFFCURVE",
"338 510 OFFCURVE",
"304 510 CURVE SMOOTH",
"145 510 OFFCURVE",
"45 402 OFFCURVE",
"45 229 CURVE SMOOTH",
"45 67 OFFCURVE",
"130 -14 OFFCURVE",
"224 -14 CURVE SMOOTH",
"286 -14 OFFCURVE",
"343 11 OFFCURVE",
"401 92 CURVE",
"401 17 OFFCURVE",
"423 -14 OFFCURVE",
"478 -14 CURVE SMOOTH",
"512 -14 OFFCURVE",
"554 10 OFFCURVE",
"589 49 CURVE",
"570 75 LINE",
"553 63 OFFCURVE",
"535 57 OFFCURVE",
"520 57 CURVE SMOOTH",
"501 57 OFFCURVE",
"490 67 OFFCURVE",
"490 88 CURVE SMOOTH"
);
}
);
width = 604;
}
);
leftKerningGroup = c;
unicode = 0064;
},
{
glyphname = eth;
lastChange = "2016-09-22 13:09:51 +0000";
layers = (
{
components = (
{
name = eslash;
transform = "{0.9, 0, 0, 0.9, 266, 324}";
}
);
hints = (
{
place = "{43, 104}";
},
{
place = "{74, 85}";
},
{
place = "{448, 93}";
},
{
horizontal = 1;
place = "{-14, 54}";
},
{
horizontal = 1;
place = "{438, 52}";
},
{
horizontal = 1;
place = "{745, 45}";
}
);
layerId = UUID0;
paths = (
{
closed = 1;
nodes = (
"126 790 OFFCURVE",
"74 727 OFFCURVE",
"74 665 CURVE SMOOTH",
"74 611 OFFCURVE",
"113 559 OFFCURVE",
"186 559 CURVE SMOOTH",
"198 559 OFFCURVE",
"202 564 OFFCURVE",
"202 569 CURVE SMOOTH",
"202 580 OFFCURVE",
"159 599 OFFCURVE",
"159 664 CURVE SMOOTH",
"159 708 OFFCURVE",
"187 745 OFFCURVE",
"236 745 CURVE SMOOTH",
"327 745 OFFCURVE",
"399 607 OFFCURVE",
"431 430 CURVE",
"393 472 OFFCURVE",
"344 490 OFFCURVE",
"292 490 CURVE SMOOTH",
"139 490 OFFCURVE",
"43 393 OFFCURVE",
"43 238 CURVE SMOOTH",
"43 84 OFFCURVE",
"139 -14 OFFCURVE",
"292 -14 CURVE SMOOTH",
"444 -14 OFFCURVE",
"541 84 OFFCURVE",
"541 238 CURVE SMOOTH",
"541 411 OFFCURVE",
"473 790 OFFCURVE",
"237 790 CURVE SMOOTH"
);
},
{
closed = 1;
nodes = (
"147 361 OFFCURVE",
"202 438 OFFCURVE",
"289 438 CURVE SMOOTH",
"383 438 OFFCURVE",
"448 352 OFFCURVE",
"448 229 CURVE SMOOTH",
"448 113 OFFCURVE",
"392 40 OFFCURVE",
"304 40 CURVE SMOOTH",
"213 40 OFFCURVE",
"147 119 OFFCURVE",
"147 238 CURVE SMOOTH"
);
}
);
width = 584;
}
);
leftKerningGroup = c;
unicode = 00F0;
},
{
glyphname = e;
lastChange = "2016-09-22 13:09:51 +0000";
layers = (
{
hints = (
{
place = "{45, 103}";
},
{
place = "{379, 95}";
},
{
horizontal = 1;
place = "{-14, 66}";
},
{
horizontal = 1;
place = "{194, 56}";
},
{
horizontal = 1;
place = "{460, 50}";
}
);
layerId = UUID0;
paths = (
{
closed = 1;
nodes = (
"475 77 OFFCURVE",
"477 80 OFFCURVE",
"477 84 CURVE SMOOTH",
"477 97 OFFCURVE",
"462 113 OFFCURVE",
"451 113 CURVE SMOOTH",
"446 113 OFFCURVE",
"444 111 OFFCURVE",
"442 109 CURVE SMOOTH",
"402 70 OFFCURVE",
"352 52 OFFCURVE",
"296 52 CURVE SMOOTH",
"199 52 OFFCURVE",
"148 125 OFFCURVE",
"148 242 CURVE SMOOTH",
"148 383 OFFCURVE",
"199 460 OFFCURVE",
"284 460 CURVE SMOOTH",
"347 460 OFFCURVE",
"379 413 OFFCURVE",
"379 364 CURVE SMOOTH",
"379 307 OFFCURVE",
"337 250 OFFCURVE",
"252 250 CURVE SMOOTH",
"211 250 OFFCURVE",
"198 263 OFFCURVE",
"188 263 CURVE SMOOTH",
"180 263 OFFCURVE",
"173 252 OFFCURVE",
"173 241 CURVE SMOOTH",
"173 206 OFFCURVE",
"255 194 OFFCURVE",
"283 194 CURVE SMOOTH",
"408 194 OFFCURVE",
"474 281 OFFCURVE",
"474 363 CURVE SMOOTH",
"474 438 OFFCURVE",
"419 510 OFFCURVE",
"304 510 CURVE SMOOTH",
"147 510 OFFCURVE",
"45 403 OFFCURVE",
"45 242 CURVE SMOOTH",
"45 88 OFFCURVE",
"135 -14 OFFCURVE",
"275 -14 CURVE SMOOTH",
"354 -14 OFFCURVE",
"423 17 OFFCURVE",
"473 75 CURVE SMOOTH"
);
}
);
width = 529;
}
);
leftKerningGroup = c;
unicode = 0065;
},
{
glyphname = f;
lastChange = "2016-09-22 13:09:51 +0000";
layers = (
{
hints = (
{
place = "{-105, 89}";
},
{
place = "{109, 90}";
},
{
place = "{351, 93}";
},
{
horizontal = 1;
place = "{-238, 43}";
},
{
horizontal = 1;
place = "{434, 63}";
},
{
horizontal = 1;
place = "{737, 45}";
}
);
layerId = UUID0;
paths = (
{
closed = 1;
nodes = (
"45 481 LINE SMOOTH",
"24 476 OFFCURVE",
"21 470 OFFCURVE",
"21 434 CURVE",
"109 434 LINE",
"109 -90 LINE SMOOTH",
"109 -163 OFFCURVE",
"76 -195 OFFCURVE",
"39 -195 CURVE SMOOTH",
"8 -195 OFFCURVE",
"-16 -171 OFFCURVE",
"-16 -129 CURVE SMOOTH",
"-16 -82 OFFCURVE",
"12 -66 OFFCURVE",
"12 -57 CURVE SMOOTH",
"12 -49 OFFCURVE",
"6 -46 OFFCURVE",
"-7 -46 CURVE SMOOTH",
"-64 -46 OFFCURVE",
"-105 -85 OFFCURVE",
"-105 -136 CURVE SMOOTH",
"-105 -200 OFFCURVE",
"-51 -238 OFFCURVE",
"19 -238 CURVE SMOOTH",
"142 -238 OFFCURVE",
"199 -147 OFFCURVE",
"199 -13 CURVE SMOOTH",
"199 434 LINE",
"316 434 LINE",
"330 445 OFFCURVE",
"339 468 OFFCURVE",
"339 497 CURVE",
"199 497 LINE",
"199 573 LINE SMOOTH",
"199 670 OFFCURVE",
"223 737 OFFCURVE",
"284 737 CURVE SMOOTH",
"325 737 OFFCURVE",
"351 709 OFFCURVE",
"351 666 CURVE SMOOTH",
"351 610 OFFCURVE",
"327 593 OFFCURVE",
"327 584 CURVE SMOOTH",
"327 576 OFFCURVE",
"333 573 OFFCURVE",
"346 573 CURVE SMOOTH",
"403 573 OFFCURVE",
"444 613 OFFCURVE",
"444 671 CURVE SMOOTH",
"444 736 OFFCURVE",
"382 782 OFFCURVE",
"295 782 CURVE SMOOTH",
"170 782 OFFCURVE",
"109 670 OFFCURVE",
"109 497 CURVE"
);
}
);
width = 334;
}
);
rightKerningGroup = f;
unicode = 0066;
},
{
glyphname = g;
lastChange = "2016-09-22 13:09:51 +0000";
layers = (
{
hints = (
{
place = "{60, 105}";
},
{
place = "{112, 53}";
},
{
place = "{416, 89}";
},
{
place = "{112, 97}";
},
{
horizontal = 1;
place = "{-278, 52}";
},
{
horizontal = 1;
place = "{15, 77}";
},
{
horizontal = 1;
place = "{455, 55}";
},
{
horizontal = 1;
place = "{-14, 21}";
target = up;
type = BottomGhost;
}
);
layerId = UUID0;
paths = (
{
closed = 1;
nodes = (
"165 379 OFFCURVE",
"221 455 OFFCURVE",
"318 455 CURVE SMOOTH",
"351 455 OFFCURVE",
"385 445 OFFCURVE",
"416 424 CURVE",
"416 183 LINE",
"379 120 OFFCURVE",
"330 92 OFFCURVE",
"279 92 CURVE SMOOTH",
"220 92 OFFCURVE",
"165 133 OFFCURVE",
"165 248 CURVE SMOOTH"
);
},
{
closed = 1;
nodes = (
"241 -226 OFFCURVE",
"209 -184 OFFCURVE",
"209 -133 CURVE SMOOTH",
"209 -60 OFFCURVE",
"258 -38 OFFCURVE",
"258 -25 CURVE SMOOTH",
"258 -20 OFFCURVE",
"253 -14 OFFCURVE",
"239 -14 CURVE SMOOTH",
"156 -14 OFFCURVE",
"112 -73 OFFCURVE",
"112 -135 CURVE SMOOTH",
"112 -205 OFFCURVE",
"167 -278 OFFCURVE",
"283 -278 CURVE SMOOTH",
"418 -278 OFFCURVE",
"505 -188 OFFCURVE",
"505 -22 CURVE SMOOTH",
"505 415 LINE SMOOTH",
"505 432 OFFCURVE",
"510 442 OFFCURVE",
"518 454 CURVE SMOOTH",
"530 472 LINE",
"519 485 LINE",
"451 490 OFFCURVE",
"381 510 OFFCURVE",
"319 510 CURVE SMOOTH",
"160 510 OFFCURVE",
"60 402 OFFCURVE",
"60 229 CURVE SMOOTH",
"60 86 OFFCURVE",
"145 15 OFFCURVE",
"239 15 CURVE SMOOTH",
"301 15 OFFCURVE",
"358 40 OFFCURVE",
"416 121 CURVE",
"416 -38 LINE SMOOTH",
"416 -146 OFFCURVE",
"382 -226 OFFCURVE",
"296 -226 CURVE SMOOTH"
);
}
);
width = 602;
}
);
leftKerningGroup = c;
unicode = 0067;
},
{
glyphname = h;
lastChange = "2016-09-22 13:09:51 +0000";
layers = (
{
hints = (
{
place = "{108, 91}";
},
{
place = "{430, 90}";
},
{
horizontal = 1;
place = "{-16, 68}";
},
{
horizontal = 1;
place = "{432, 78}";
},
{
horizontal = 1;
place = "{0, 21}";
target = up;
type = BottomGhost;
},
{
horizontal = 1;
place = "{782, -20}";
target = down;
type = TopGhost;
}
);
layerId = UUID0;
paths = (
{
closed = 1;
nodes = (
"108 111 LINE SMOOTH",
"108 61 OFFCURVE",
"100 44 OFFCURVE",
"66 36 CURVE SMOOTH",
"45 31 LINE",
"56 0 LINE",
"231 0 LINE",
"243 15 LINE",
"231 31 LINE SMOOTH",
"207 65 OFFCURVE",
"199 97 OFFCURVE",
"199 160 CURVE SMOOTH",
"199 322 OFFCURVE",
"258 432 OFFCURVE",
"344 432 CURVE SMOOTH",
"408 432 OFFCURVE",
"430 396 OFFCURVE",
"430 328 CURVE SMOOTH",
"430 90 LINE SMOOTH",
"430 15 OFFCURVE",
"452 -16 OFFCURVE",
"507 -16 CURVE SMOOTH",
"541 -16 OFFCURVE",
"584 8 OFFCURVE",
"619 47 CURVE",
"600 73 LINE",
"583 59 OFFCURVE",
"565 52 OFFCURVE",
"550 52 CURVE SMOOTH",
"530 52 OFFCURVE",
"520 64 OFFCURVE",
"520 86 CURVE SMOOTH",
"520 328 LINE SMOOTH",
"520 453 OFFCURVE",
"486 510 OFFCURVE",
"386 510 CURVE SMOOTH",
"310 510 OFFCURVE",
"233 448 OFFCURVE",
"199 361 CURVE",
"199 750 LINE SMOOTH",
"199 769 OFFCURVE",
"186 782 OFFCURVE",
"167 782 CURVE SMOOTH",
"129 782 OFFCURVE",
"74 757 OFFCURVE",
"35 722 CURVE",
"44 696 LINE",
"88 696 LINE SMOOTH",
"102 696 OFFCURVE",
"108 690 OFFCURVE",
"108 674 CURVE SMOOTH"
);
}
);
width = 639;
}
);
unicode = 0068;
},
{
glyphname = i;
lastChange = "2016-09-22 13:09:51 +0000";
layers = (
{
hints = (
{
place = "{108, 90}";
},
{
horizontal = 1;
place = "{-14, 68}";
},
{
horizontal = 1;
place = "{724, -20}";
target = down;
type = TopGhost;
},
{
horizontal = 1;
place = "{510, -20}";
target = down;
type = TopGhost;
}
);
layerId = UUID0;
paths = (
{
closed = 1;
nodes = (
"92 632 OFFCURVE",
"130 593 OFFCURVE",
"153 593 CURVE SMOOTH",
"178 593 OFFCURVE",
"216 632 OFFCURVE",
"216 658 CURVE SMOOTH",
"216 684 OFFCURVE",
"178 724 OFFCURVE",
"153 724 CURVE SMOOTH",
"129 724 OFFCURVE",
"92 684 OFFCURVE",
"92 658 CURVE SMOOTH"
);
},
{
closed = 1;
nodes = (
"199 478 LINE SMOOTH",
"199 497 OFFCURVE",
"186 510 OFFCURVE",
"167 510 CURVE SMOOTH",
"129 510 OFFCURVE",
"74 485 OFFCURVE",
"35 450 CURVE",
"44 424 LINE",
"88 424 LINE SMOOTH",
"102 424 OFFCURVE",
"108 418 OFFCURVE",
"108 402 CURVE SMOOTH",
"108 92 LINE SMOOTH",
"108 17 OFFCURVE",
"130 -14 OFFCURVE",
"185 -14 CURVE SMOOTH",
"219 -14 OFFCURVE",
"262 10 OFFCURVE",
"297 49 CURVE",
"278 75 LINE",
"261 61 OFFCURVE",
"243 54 OFFCURVE",
"228 54 CURVE SMOOTH",
"208 54 OFFCURVE",
"198 66 OFFCURVE",
"198 88 CURVE SMOOTH"
);
}
);
width = 312;
}
);
leftKerningGroup = i;
unicode = 0069;
},
{
glyphname = dotlessi;
lastChange = "2016-09-22 13:09:51 +0000";
layers = (
{
hints = (
{
place = "{108, 90}";
},
{
horizontal = 1;
place = "{-14, 68}";
},
{
horizontal = 1;
place = "{510, -20}";
target = down;
type = TopGhost;
}
);
layerId = UUID0;
paths = (
{
closed = 1;
nodes = (
"199 478 LINE SMOOTH",
"199 497 OFFCURVE",
"186 510 OFFCURVE",
"167 510 CURVE SMOOTH",
"129 510 OFFCURVE",
"74 485 OFFCURVE",
"35 450 CURVE",
"44 424 LINE",
"88 424 LINE SMOOTH",
"102 424 OFFCURVE",
"108 418 OFFCURVE",
"108 402 CURVE SMOOTH",
"108 92 LINE SMOOTH",
"108 17 OFFCURVE",
"130 -14 OFFCURVE",
"185 -14 CURVE SMOOTH",
"219 -14 OFFCURVE",
"262 10 OFFCURVE",
"297 49 CURVE",
"278 75 LINE",
"261 61 OFFCURVE",
"243 54 OFFCURVE",
"228 54 CURVE SMOOTH",
"208 54 OFFCURVE",
"198 66 OFFCURVE",
"198 88 CURVE SMOOTH"
);
}
);
width = 312;
}
);
leftKerningGroup = m;
unicode = 0131;
},
{
glyphname = j;
lastChange = "2016-09-22 13:09:51 +0000";
layers = (
{
hints = (
{
place = "{-111, 89}";
},
{
place = "{103, 91}";
},
{
horizontal = 1;
place = "{-278, 43}";
},
{
horizontal = 1;
place = "{724, -20}";
target = down;
type = TopGhost;
},
{
horizontal = 1;
place = "{510, -20}";
target = down;
type = TopGhost;
}
);
layerId = UUID0;
paths = (
{
closed = 1;
nodes = (
"87 632 OFFCURVE",
"125 593 OFFCURVE",
"148 593 CURVE SMOOTH",
"173 593 OFFCURVE",
"211 632 OFFCURVE",
"211 658 CURVE SMOOTH",
"211 684 OFFCURVE",
"173 724 OFFCURVE",
"148 724 CURVE SMOOTH",
"124 724 OFFCURVE",
"87 684 OFFCURVE",
"87 658 CURVE SMOOTH"
);
},
{
closed = 1;
nodes = (
"103 -130 LINE SMOOTH",
"103 -203 OFFCURVE",
"70 -235 OFFCURVE",
"33 -235 CURVE SMOOTH",
"2 -235 OFFCURVE",
"-22 -211 OFFCURVE",
"-22 -169 CURVE SMOOTH",
"-22 -122 OFFCURVE",
"6 -106 OFFCURVE",
"6 -97 CURVE SMOOTH",
"6 -89 OFFCURVE",
"0 -86 OFFCURVE",
"-13 -86 CURVE SMOOTH",
"-70 -86 OFFCURVE",
"-111 -125 OFFCURVE",
"-111 -176 CURVE SMOOTH",
"-111 -240 OFFCURVE",
"-57 -278 OFFCURVE",
"13 -278 CURVE SMOOTH",
"136 -278 OFFCURVE",
"194 -187 OFFCURVE",
"194 -53 CURVE SMOOTH",
"194 478 LINE SMOOTH",
"194 497 OFFCURVE",
"181 510 OFFCURVE",
"162 510 CURVE SMOOTH",
"124 510 OFFCURVE",
"69 485 OFFCURVE",
"30 450 CURVE",
"39 424 LINE",
"83 424 LINE SMOOTH",
"97 424 OFFCURVE",
"103 418 OFFCURVE",
"103 402 CURVE SMOOTH"
);
}
);
width = 291;
}
);
leftKerningGroup = i;
unicode = 006A;
},
{
glyphname = k;
lastChange = "2016-09-22 13:09:51 +0000";
layers = (
{
hints = (
{
place = "{108, 91}";
},
{
place = "{428, 90}";
},
{
horizontal = 1;
place = "{-14, 63}";
},
{
horizontal = 1;
place = "{441, 69}";
},
{
horizontal = 1;
place = "{782, -20}";
target = down;
type = TopGhost;
},
{
horizontal = 1;
place = "{0, 21}";
target = up;
type = BottomGhost;
}
);
layerId = UUID0;
paths = (
{
closed = 1;
nodes = (
"336 92 LINE SMOOTH",
"371 25 OFFCURVE",
"394 -14 OFFCURVE",
"457 -14 CURVE SMOOTH",
"494 -14 OFFCURVE",
"531 4 OFFCURVE",
"564 49 CURVE",
"543 75 LINE",
"528 60 OFFCURVE",
"508 49 OFFCURVE",
"490 49 CURVE SMOOTH",
"473 49 OFFCURVE",
"459 55 OFFCURVE",
"448 77 CURVE SMOOTH",
"370 225 LINE",
"466 236 OFFCURVE",
"518 310 OFFCURVE",
"518 379 CURVE SMOOTH",
"518 447 OFFCURVE",
"473 510 OFFCURVE",
"380 510 CURVE SMOOTH",
"306 510 OFFCURVE",
"232 448 OFFCURVE",
"199 361 CURVE",
"199 750 LINE SMOOTH",
"199 769 OFFCURVE",
"186 782 OFFCURVE",
"167 782 CURVE SMOOTH",
"129 782 OFFCURVE",
"74 757 OFFCURVE",
"35 722 CURVE",
"44 696 LINE",
"88 696 LINE SMOOTH",
"102 696 OFFCURVE",
"108 690 OFFCURVE",
"108 674 CURVE SMOOTH",
"108 111 LINE SMOOTH",
"108 61 OFFCURVE",
"100 44 OFFCURVE",
"66 36 CURVE SMOOTH",
"45 31 LINE",
"56 0 LINE",
"231 0 LINE",
"243 15 LINE",
"231 31 LINE SMOOTH",
"206 64 OFFCURVE",
"199 97 OFFCURVE",
"199 160 CURVE SMOOTH",
"199 327 OFFCURVE",
"261 441 OFFCURVE",
"361 441 CURVE SMOOTH",
"406 441 OFFCURVE",
"428 408 OFFCURVE",
"428 370 CURVE SMOOTH",
"428 322 OFFCURVE",
"390 267 OFFCURVE",
"313 267 CURVE SMOOTH",
"272 267 OFFCURVE",
"259 276 OFFCURVE",
"249 276 CURVE SMOOTH",
"238 276 OFFCURVE",
"234 266 OFFCURVE",
"234 257 CURVE SMOOTH",
"234 247 OFFCURVE",
"238 240 OFFCURVE",
"253 236 CURVE SMOOTH",
"262 233 LINE"
);
}
);
width = 584;
}
);
unicode = 006B;
},
{
glyphname = l;
lastChange = "2016-09-22 13:09:51 +0000";
layers = (
{
hints = (
{
place = "{98, 90}";
},
{
horizontal = 1;
place = "{-14, 68}";
},
{
horizontal = 1;
place = "{782, -20}";
target = down;
type = TopGhost;
}
);
layerId = UUID0;
paths = (
{
closed = 1;
nodes = (
"189 750 LINE SMOOTH",
"189 769 OFFCURVE",
"176 782 OFFCURVE",
"157 782 CURVE SMOOTH",
"119 782 OFFCURVE",
"64 757 OFFCURVE",
"25 722 CURVE",
"34 696 LINE",
"78 696 LINE SMOOTH",
"92 696 OFFCURVE",
"98 690 OFFCURVE",
"98 674 CURVE SMOOTH",
"98 92 LINE SMOOTH",
"98 17 OFFCURVE",
"120 -14 OFFCURVE",
"175 -14 CURVE SMOOTH",
"209 -14 OFFCURVE",
"252 10 OFFCURVE",
"287 49 CURVE",
"268 75 LINE",
"251 61 OFFCURVE",
"233 54 OFFCURVE",
"218 54 CURVE SMOOTH",
"198 54 OFFCURVE",
"188 66 OFFCURVE",
"188 88 CURVE SMOOTH"
);
}
);
width = 302;
}
);
unicode = 006C;
},
{
glyphname = m;
lastChange = "2016-09-22 13:09:51 +0000";
layers = (
{
hints = (
{
place = "{113, 91}";
},
{
place = "{423, 90}";
},
{
place = "{732, 90}";
},
{
horizontal = 1;
place = "{-14, 68}";
},
{
horizontal = 1;
place = "{432, 78}";
},
{
horizontal = 1;
place = "{0, 21}";
target = up;
type = BottomGhost;
},
{
horizontal = 1;
place = "{500, -20}";
target = down;
type = TopGhost;
}
);
layerId = UUID0;
paths = (
{
closed = 1;
nodes = (
"204 322 OFFCURVE",
"263 432 OFFCURVE",
"349 432 CURVE SMOOTH",
"398 432 OFFCURVE",
"423 398 OFFCURVE",
"423 330 CURVE SMOOTH",
"423 0 LINE",
"545 0 LINE",
"557 15 LINE",
"519 60 OFFCURVE",
"513 96 OFFCURVE",
"513 160 CURVE SMOOTH",
"513 172 LINE SMOOTH",
"516 327 OFFCURVE",
"574 432 OFFCURVE",
"658 432 CURVE SMOOTH",
"707 432 OFFCURVE",
"732 398 OFFCURVE",
"732 330 CURVE SMOOTH",
"732 92 LINE SMOOTH",
"732 17 OFFCURVE",
"754 -14 OFFCURVE",
"809 -14 CURVE SMOOTH",
"843 -14 OFFCURVE",
"886 10 OFFCURVE",
"921 49 CURVE",
"902 75 LINE",
"884 61 OFFCURVE",
"867 54 OFFCURVE",
"852 54 CURVE SMOOTH",
"832 54 OFFCURVE",
"822 66 OFFCURVE",
"822 88 CURVE SMOOTH",
"822 330 LINE SMOOTH",
"822 455 OFFCURVE",
"783 510 OFFCURVE",
"694 510 CURVE SMOOTH",
"621 510 OFFCURVE",
"547 448 OFFCURVE",
"513 361 CURVE",
"506 464 OFFCURVE",
"466 510 OFFCURVE",
"385 510 CURVE SMOOTH",
"312 510 OFFCURVE",
"238 448 OFFCURVE",
"204 361 CURVE",
"204 468 LINE SMOOTH",
"204 487 OFFCURVE",
"191 500 OFFCURVE",
"172 500 CURVE SMOOTH",
"134 500 OFFCURVE",
"79 475 OFFCURVE",
"40 440 CURVE",
"49 414 LINE",
"93 414 LINE SMOOTH",
"107 414 OFFCURVE",
"113 408 OFFCURVE",
"113 392 CURVE SMOOTH",
"113 111 LINE SMOOTH",
"113 61 OFFCURVE",
"105 44 OFFCURVE",
"71 36 CURVE SMOOTH",
"50 31 LINE",
"61 0 LINE",
"236 0 LINE",
"248 15 LINE",
"236 31 LINE SMOOTH",
"212 65 OFFCURVE",
"204 97 OFFCURVE",
"204 160 CURVE SMOOTH"
);
}
);
width = 941;
}
);
leftKerningGroup = m;
unicode = 006D;
},
{
glyphname = n;
lastChange = "2016-09-22 13:09:51 +0000";
layers = (
{
hints = (
{
place = "{113, 91}";
},
{
place = "{435, 90}";
},
{
horizontal = 1;
place = "{-14, 68}";
},
{
horizontal = 1;
place = "{432, 78}";
},
{
horizontal = 1;
place = "{500, -20}";
target = down;
type = TopGhost;
},
{
horizontal = 1;
place = "{0, 21}";
target = up;
type = BottomGhost;
}
);
layerId = UUID0;
paths = (
{
closed = 1;
nodes = (
"204 322 OFFCURVE",
"263 432 OFFCURVE",
"349 432 CURVE SMOOTH",
"406 432 OFFCURVE",
"435 398 OFFCURVE",
"435 330 CURVE SMOOTH",
"435 92 LINE SMOOTH",
"435 17 OFFCURVE",
"457 -14 OFFCURVE",
"512 -14 CURVE SMOOTH",
"546 -14 OFFCURVE",
"589 10 OFFCURVE",
"624 49 CURVE",
"605 75 LINE",
"587 61 OFFCURVE",
"570 54 OFFCURVE",
"555 54 CURVE SMOOTH",
"535 54 OFFCURVE",
"525 66 OFFCURVE",
"525 88 CURVE SMOOTH",
"525 330 LINE SMOOTH",
"525 455 OFFCURVE",
"484 510 OFFCURVE",
"391 510 CURVE SMOOTH",
"315 510 OFFCURVE",
"238 448 OFFCURVE",
"204 361 CURVE",
"204 468 LINE SMOOTH",
"204 487 OFFCURVE",
"191 500 OFFCURVE",
"172 500 CURVE SMOOTH",
"134 500 OFFCURVE",
"79 475 OFFCURVE",
"40 440 CURVE",
"49 414 LINE",
"93 414 LINE SMOOTH",
"107 414 OFFCURVE",
"113 408 OFFCURVE",
"113 392 CURVE SMOOTH",
"113 111 LINE SMOOTH",
"113 61 OFFCURVE",
"105 44 OFFCURVE",
"71 36 CURVE SMOOTH",
"50 31 LINE",
"61 0 LINE",
"236 0 LINE",
"248 15 LINE",
"236 31 LINE SMOOTH",
"212 65 OFFCURVE",
"204 97 OFFCURVE",
"204 160 CURVE SMOOTH"
);
}
);
width = 644;
}
);
leftKerningGroup = m;
unicode = 006E;
},
{
glyphname = o;
lastChange = "2016-09-22 13:09:51 +0000";
layers = (
{
hints = (
{
place = "{45, 104}";
},
{
place = "{428, 105}";
},
{
horizontal = 1;
place = "{-14, 54}";
},
{
horizontal = 1;
place = "{458, 52}";
}
);
layerId = UUID0;
paths = (
{
closed = 1;
nodes = (
"428 122 OFFCURVE",
"369 40 OFFCURVE",
"286 40 CURVE SMOOTH",
"202 40 OFFCURVE",
"149 121 OFFCURVE",
"149 247 CURVE SMOOTH",
"149 372 OFFCURVE",
"207 458 OFFCURVE",
"292 458 CURVE SMOOTH",
"398 458 OFFCURVE",
"428 326 OFFCURVE",
"428 245 CURVE SMOOTH"
);
},
{
closed = 1;
nodes = (
"45 88 OFFCURVE",
"139 -14 OFFCURVE",
"289 -14 CURVE SMOOTH",
"438 -14 OFFCURVE",
"533 88 OFFCURVE",
"533 248 CURVE SMOOTH",
"533 409 OFFCURVE",
"438 510 OFFCURVE",
"289 510 CURVE SMOOTH",
"139 510 OFFCURVE",
"45 409 OFFCURVE",
"45 248 CURVE SMOOTH"
);
}
);
width = 578;
}
);
leftKerningGroup = c;
unicode = 006F;
},
{
glyphname = p;
lastChange = "2016-09-22 13:09:51 +0000";
layers = (
{
hints = (
{
place = "{103, 90}";
},
{
place = "{444, 106}";
},
{
horizontal = 1;
place = "{-14, 54}";
},
{
horizontal = 1;
place = "{444, 66}";
},
{
horizontal = 1;
place = "{-14, 70}";
},
{
horizontal = 1;
place = "{498, -20}";
target = down;
type = TopGhost;
},
{
horizontal = 1;
place = "{-266, 21}";
target = up;
type = BottomGhost;
}
);
layerId = UUID0;
paths = (
{
closed = 1;
nodes = (
"193 452 LINE SMOOTH",
"193 482 OFFCURVE",
"185 498 OFFCURVE",
"169 498 CURVE SMOOTH",
"125 498 OFFCURVE",
"52 477 OFFCURVE",
"30 458 CURVE",
"30 425 LINE",
"82 414 LINE SMOOTH",
"99 410 OFFCURVE",
"103 401 OFFCURVE",
"103 381 CURVE SMOOTH",
"103 -106 LINE SMOOTH",
"103 -169 OFFCURVE",
"95 -201 OFFCURVE",
"71 -235 CURVE SMOOTH",
"59 -251 LINE",
"71 -266 LINE",
"245 -266 LINE",
"256 -235 LINE",
"235 -230 LINE SMOOTH",
"201 -222 OFFCURVE",
"193 -205 OFFCURVE",
"193 -155 CURVE SMOOTH",
"193 405 LINE",
"228 432 OFFCURVE",
"263 444 OFFCURVE",
"305 444 CURVE SMOOTH",
"387 444 OFFCURVE",
"444 364 OFFCURVE",
"444 248 CURVE SMOOTH",
"444 128 OFFCURVE",
"387 40 OFFCURVE",
"307 40 CURVE SMOOTH",
"262 40 OFFCURVE",
"247 56 OFFCURVE",
"236 56 CURVE SMOOTH",
"225 56 OFFCURVE",
"221 43 OFFCURVE",
"221 31 CURVE SMOOTH",
"221 24 OFFCURVE",
"224 17 OFFCURVE",
"230 13 CURVE SMOOTH",
"257 -5 OFFCURVE",
"292 -14 OFFCURVE",
"330 -14 CURVE SMOOTH",
"457 -14 OFFCURVE",
"550 106 OFFCURVE",
"550 268 CURVE SMOOTH",
"550 410 OFFCURVE",
"462 510 OFFCURVE",
"337 510 CURVE SMOOTH",
"284 510 OFFCURVE",
"235 488 OFFCURVE",
"193 447 CURVE"
);
}
);
width = 595;
}
);
leftKerningGroup = m;
unicode = 0070;
},
{
glyphname = thorn;
lastChange = "2016-09-22 13:09:51 +0000";
layers = (
{
hints = (
{
place = "{103, 90}";
},
{
place = "{444, 106}";
},
{
horizontal = 1;
place = "{-14, 54}";
},
{
horizontal = 1;
place = "{444, 66}";
},
{
horizontal = 1;
place = "{-14, 70}";
},
{
horizontal = 1;
place = "{782, -20}";
target = down;
type = TopGhost;
},
{
horizontal = 1;
place = "{-266, 21}";
target = up;
type = BottomGhost;
}
);
layerId = UUID0;
paths = (
{
closed = 1;
nodes = (
"193 736 LINE SMOOTH",
"193 766 OFFCURVE",
"185 782 OFFCURVE",
"169 782 CURVE SMOOTH",
"125 782 OFFCURVE",
"52 761 OFFCURVE",
"30 742 CURVE",
"30 709 LINE",
"82 698 LINE SMOOTH",
"99 694 OFFCURVE",
"103 685 OFFCURVE",
"103 665 CURVE SMOOTH",
"103 -106 LINE SMOOTH",
"103 -169 OFFCURVE",
"95 -201 OFFCURVE",
"71 -235 CURVE SMOOTH",
"59 -251 LINE",
"71 -266 LINE",
"245 -266 LINE",
"256 -235 LINE",
"235 -230 LINE SMOOTH",
"201 -222 OFFCURVE",
"193 -205 OFFCURVE",
"193 -155 CURVE SMOOTH",
"193 405 LINE",
"228 432 OFFCURVE",
"263 444 OFFCURVE",
"305 444 CURVE SMOOTH",
"387 444 OFFCURVE",
"444 364 OFFCURVE",
"444 248 CURVE SMOOTH",
"444 128 OFFCURVE",
"387 40 OFFCURVE",
"307 40 CURVE SMOOTH",
"262 40 OFFCURVE",
"247 56 OFFCURVE",
"236 56 CURVE SMOOTH",
"225 56 OFFCURVE",
"221 43 OFFCURVE",
"221 31 CURVE SMOOTH",
"221 24 OFFCURVE",
"224 17 OFFCURVE",
"230 13 CURVE SMOOTH",
"257 -5 OFFCURVE",
"292 -14 OFFCURVE",
"330 -14 CURVE SMOOTH",
"457 -14 OFFCURVE",
"550 106 OFFCURVE",
"550 268 CURVE SMOOTH",
"550 410 OFFCURVE",
"462 510 OFFCURVE",
"337 510 CURVE SMOOTH",
"284 510 OFFCURVE",
"235 488 OFFCURVE",
"193 447 CURVE"
);
}
);
width = 595;
}
);
unicode = 00FE;
},
{
glyphname = q;
lastChange = "2016-09-22 13:09:51 +0000";
layers = (
{
hints = (
{
place = "{45, 105}";
},
{
place = "{401, 91}";
},
{
horizontal = 1;
place = "{-14, 77}";
},
{
horizontal = 1;
place = "{455, 55}";
},
{
horizontal = 1;
place = "{-266, 21}";
target = up;
type = BottomGhost;
}
);
layerId = UUID0;
paths = (
{
closed = 1;
nodes = (
"492 415 LINE SMOOTH",
"492 432 OFFCURVE",
"498 442 OFFCURVE",
"505 454 CURVE SMOOTH",
"517 472 LINE",
"506 485 LINE",
"438 490 OFFCURVE",
"366 510 OFFCURVE",
"304 510 CURVE SMOOTH",
"145 510 OFFCURVE",
"45 402 OFFCURVE",
"45 229 CURVE SMOOTH",
"45 67 OFFCURVE",
"130 -14 OFFCURVE",
"224 -14 CURVE SMOOTH",
"286 -14 OFFCURVE",
"343 11 OFFCURVE",
"401 92 CURVE",
"401 -146 LINE SMOOTH",
"401 -190 OFFCURVE",
"390 -205 OFFCURVE",
"359 -219 CURVE SMOOTH",
"328 -233 LINE",
"328 -266 LINE",
"514 -266 LINE",
"526 -251 LINE",
"516 -235 LINE SMOOTH",
"497 -208 OFFCURVE",
"492 -181 OFFCURVE",
"492 -118 CURVE SMOOTH"
);
},
{
closed = 1;
nodes = (
"150 379 OFFCURVE",
"206 455 OFFCURVE",
"303 455 CURVE SMOOTH",
"336 455 OFFCURVE",
"370 445 OFFCURVE",
"401 424 CURVE",
"401 154 LINE",
"364 91 OFFCURVE",
"315 63 OFFCURVE",
"264 63 CURVE SMOOTH",
"205 63 OFFCURVE",
"150 112 OFFCURVE",
"150 248 CURVE SMOOTH"
);
}
);
width = 589;
}
);
leftKerningGroup = c;
unicode = 0071;
},
{
glyphname = r;
lastChange = "2016-09-22 13:09:51 +0000";
layers = (
{
hints = (
{
place = "{113, 91}";
},
{
place = "{348, 89}";
},
{
horizontal = 1;
place = "{437, 63}";
},
{
horizontal = 1;
place = "{0, 21}";
target = up;
type = BottomGhost;
},
{
horizontal = 1;
place = "{510, -20}";
target = down;
type = TopGhost;
}
);
layerId = UUID0;
paths = (
{
closed = 1;
nodes = (
"204 468 LINE SMOOTH",
"204 487 OFFCURVE",
"191 500 OFFCURVE",
"172 500 CURVE SMOOTH",
"134 500 OFFCURVE",
"79 475 OFFCURVE",
"40 440 CURVE",
"49 414 LINE",
"93 414 LINE SMOOTH",
"107 414 OFFCURVE",
"113 408 OFFCURVE",
"113 392 CURVE SMOOTH",
"113 111 LINE SMOOTH",
"113 61 OFFCURVE",
"105 44 OFFCURVE",
"71 36 CURVE SMOOTH",
"50 31 LINE",
"61 0 LINE",
"236 0 LINE",
"248 15 LINE",
"236 31 LINE SMOOTH",
"212 64 OFFCURVE",
"204 96 OFFCURVE",
"204 156 CURVE SMOOTH",
"204 366 OFFCURVE",
"273 437 OFFCURVE",
"315 437 CURVE SMOOTH",
"334 437 OFFCURVE",
"348 422 OFFCURVE",
"348 398 CURVE SMOOTH",
"348 361 OFFCURVE",
"320 338 OFFCURVE",
"320 329 CURVE SMOOTH",
"320 321 OFFCURVE",
"326 318 OFFCURVE",
"339 318 CURVE SMOOTH",
"396 318 OFFCURVE",
"437 357 OFFCURVE",
"437 408 CURVE SMOOTH",
"437 472 OFFCURVE",
"395 510 OFFCURVE",
"340 510 CURVE SMOOTH",
"284 510 OFFCURVE",
"233 450 OFFCURVE",
"210 361 CURVE",
"204 361 LINE"
);
}
);
width = 437;
}
);
leftKerningGroup = m;
unicode = 0072;
},
{
glyphname = s;
lastChange = "2016-09-22 13:09:51 +0000";
layers = (
{
hints = (
{
place = "{54, 92}";
},
{
place = "{66, 80}";
},
{
place = "{323, 90}";
},
{
place = "{335, 91}";
},
{
horizontal = 1;
place = "{-14, 49}";
},
{
horizontal = 1;
place = "{462, 48}";
}
);
layerId = UUID0;
paths = (
{
closed = 1;
nodes = (
"199 35 OFFCURVE",
"146 60 OFFCURVE",
"146 121 CURVE SMOOTH",
"146 154 OFFCURVE",
"158 169 OFFCURVE",
"158 177 CURVE SMOOTH",
"158 186 OFFCURVE",
"147 189 OFFCURVE",
"137 189 CURVE SMOOTH",
"88 189 OFFCURVE",
"54 156 OFFCURVE",
"54 111 CURVE SMOOTH",
"54 34 OFFCURVE",
"129 -14 OFFCURVE",
"228 -14 CURVE SMOOTH",
"348 -14 OFFCURVE",
"426 45 OFFCURVE",
"426 136 CURVE SMOOTH",
"426 217 OFFCURVE",
"343 253 OFFCURVE",
"270 283 CURVE SMOOTH",
"209 308 OFFCURVE",
"153 334 OFFCURVE",
"153 389 CURVE SMOOTH",
"153 431 OFFCURVE",
"185 462 OFFCURVE",
"241 462 CURVE SMOOTH",
"278 462 OFFCURVE",
"323 442 OFFCURVE",
"323 389 CURVE SMOOTH",
"323 358 OFFCURVE",
"308 344 OFFCURVE",
"308 333 CURVE SMOOTH",
"308 325 OFFCURVE",
"314 320 OFFCURVE",
"329 320 CURVE SMOOTH",
"378 320 OFFCURVE",
"413 357 OFFCURVE",
"413 407 CURVE SMOOTH",
"413 471 OFFCURVE",
"341 510 OFFCURVE",
"248 510 CURVE SMOOTH",
"144 510 OFFCURVE",
"66 456 OFFCURVE",
"66 375 CURVE SMOOTH",
"66 279 OFFCURVE",
"153 241 OFFCURVE",
"226 211 CURVE SMOOTH",
"282 187 OFFCURVE",
"335 163 OFFCURVE",
"335 116 CURVE SMOOTH",
"335 68 OFFCURVE",
"296 35 OFFCURVE",
"241 35 CURVE SMOOTH"
);
}
);
width = 481;
}
);
leftKerningGroup = s;
unicode = 0073;
},
{
glyphname = germandbls;
lastChange = "2016-09-22 13:09:51 +0000";
layers = (
{
hints = (
{
place = "{100, 99}";
},
{
place = "{277, 89}";
},
{
place = "{408, 91}";
},
{
place = "{529, 88}";
},
{
horizontal = 1;
place = "{-14, 50}";
},
{
horizontal = 1;
place = "{730, 52}";
},
{
horizontal = 1;
place = "{-14, 70}";
},
{
horizontal = 1;
place = "{0, 21}";
target = up;
type = BottomGhost;
}
);
layerId = UUID0;
paths = (
{
closed = 1;
nodes = (
"366 36 OFFCURVE",
"343 56 OFFCURVE",
"326 56 CURVE SMOOTH",
"315 56 OFFCURVE",
"311 43 OFFCURVE",
"311 31 CURVE SMOOTH",
"311 24 OFFCURVE",
"314 15 OFFCURVE",
"320 11 CURVE SMOOTH",
"352 -6 OFFCURVE",
"391 -14 OFFCURVE",
"435 -14 CURVE SMOOTH",
"543 -14 OFFCURVE",
"617 60 OFFCURVE",
"617 145 CURVE SMOOTH",
"617 223 OFFCURVE",
"560 276 OFFCURVE",
"490 312 CURVE SMOOTH",
"419 348 LINE SMOOTH",
"382 367 OFFCURVE",
"366 391 OFFCURVE",
"366 424 CURVE SMOOTH",
"366 503 OFFCURVE",
"499 557 OFFCURVE",
"499 654 CURVE SMOOTH",
"499 740 OFFCURVE",
"433 782 OFFCURVE",
"350 782 CURVE SMOOTH",
"204 782 OFFCURVE",
"100 692 OFFCURVE",
"100 526 CURVE SMOOTH",
"100 133 LINE SMOOTH",
"100 71 OFFCURVE",
"86 55 OFFCURVE",
"36 40 CURVE SMOOTH",
"13 34 LINE",
"25 0 LINE",
"244 0 LINE",
"257 16 LINE",
"244 34 LINE SMOOTH",
"211 78 OFFCURVE",
"199 120 OFFCURVE",
"199 201 CURVE SMOOTH",
"199 542 LINE SMOOTH",
"199 650 OFFCURVE",
"235 730 OFFCURVE",
"326 730 CURVE SMOOTH",
"366 730 OFFCURVE",
"408 714 OFFCURVE",
"408 654 CURVE SMOOTH",
"408 553 OFFCURVE",
"277 475 OFFCURVE",
"277 395 CURVE SMOOTH",
"277 336 OFFCURVE",
"304 308 OFFCURVE",
"355 276 CURVE SMOOTH",
"430 238 LINE SMOOTH",
"491 207 OFFCURVE",
"529 170 OFFCURVE",
"529 117 CURVE SMOOTH",
"529 58 OFFCURVE",
"478 36 OFFCURVE",
"436 36 CURVE SMOOTH"
);
}
);
width = 635;
}
);
unicode = 00DF;
},
{
glyphname = t;
lastChange = "2016-09-22 13:09:51 +0000";
layers = (
{
hints = (
{
place = "{99, 91}";
},
{
horizontal = 1;
place = "{-14, 69}";
},
{
horizontal = 1;
place = "{434, 63}";
},
{
horizontal = 1;
place = "{632, -20}";
target = down;
type = TopGhost;
}
);
layerId = UUID0;
paths = (
{
closed = 1;
nodes = (
"190 632 LINE",
"151 632 OFFCURVE",
"147 629 OFFCURVE",
"143 608 CURVE SMOOTH",
"132 552 OFFCURVE",
"113 501 OFFCURVE",
"35 481 CURVE SMOOTH",
"14 476 OFFCURVE",
"11 470 OFFCURVE",
"11 434 CURVE",
"99 434 LINE",
"99 82 LINE SMOOTH",
"99 22 OFFCURVE",
"130 -14 OFFCURVE",
"185 -14 CURVE SMOOTH",
"228 -14 OFFCURVE",
"280 16 OFFCURVE",
"315 61 CURVE",
"296 87 LINE",
"271 66 OFFCURVE",
"247 55 OFFCURVE",
"228 55 CURVE SMOOTH",
"201 55 OFFCURVE",
"190 71 OFFCURVE",
"190 112 CURVE SMOOTH",
"190 434 LINE",
"297 434 LINE",
"311 445 OFFCURVE",
"320 468 OFFCURVE",
"320 497 CURVE",
"190 497 LINE"
);
}
);
width = 341;
}
);
leftKerningGroup = m;
unicode = 0074;
},
{
glyphname = u;
lastChange = "2016-09-22 13:09:51 +0000";
layers = (
{
hints = (
{
place = "{103, 91}";
},
{
place = "{432, 83}";
},
{
horizontal = 1;
place = "{-14, 67}";
},
{
horizontal = 1;
place = "{510, -20}";
target = down;
type = TopGhost;
}
);
layerId = UUID0;
paths = (
{
closed = 1;
nodes = (
"515 510 LINE",
"393 497 LINE",
"381 482 LINE",
"393 466 LINE SMOOTH",
"423 415 OFFCURVE",
"432 369 OFFCURVE",
"432 271 CURVE SMOOTH",
"432 135 OFFCURVE",
"379 53 OFFCURVE",
"290 53 CURVE SMOOTH",
"227 53 OFFCURVE",
"194 95 OFFCURVE",
"194 175 CURVE SMOOTH",
"194 478 LINE SMOOTH",
"194 497 OFFCURVE",
"181 510 OFFCURVE",
"162 510 CURVE SMOOTH",
"121 510 OFFCURVE",
"65 485 OFFCURVE",
"30 450 CURVE",
"39 424 LINE",
"83 424 LINE SMOOTH",
"96 424 OFFCURVE",
"103 418 OFFCURVE",
"103 402 CURVE SMOOTH",
"103 152 LINE SMOOTH",
"103 47 OFFCURVE",
"160 -14 OFFCURVE",
"256 -14 CURVE SMOOTH",
"330 -14 OFFCURVE",
"395 23 OFFCURVE",
"425 82 CURVE",
"425 16 OFFCURVE",
"449 -14 OFFCURVE",
"502 -14 CURVE SMOOTH",
"537 -14 OFFCURVE",
"581 11 OFFCURVE",
"612 49 CURVE",
"593 75 LINE",
"577 64 OFFCURVE",
"559 57 OFFCURVE",
"544 57 CURVE SMOOTH",
"525 57 OFFCURVE",
"515 67 OFFCURVE",
"515 88 CURVE SMOOTH"
);
}
);
width = 632;
}
);
leftKerningGroup = u;
unicode = 0075;
},
{
glyphname = v;
lastChange = "2016-09-22 13:09:51 +0000";
layers = (
{
hints = (
{
place = "{406, 82}";
},
{
horizontal = 1;
place = "{-14, 65}";
},
{
horizontal = 1;
place = "{510, -20}";
target = down;
type = TopGhost;
}
);
layerId = UUID0;
paths = (
{
closed = 1;
nodes = (
"235 51 OFFCURVE",
"215 84 OFFCURVE",
"203 166 CURVE SMOOTH",
"158 478 LINE SMOOTH",
"155 498 OFFCURVE",
"144 510 OFFCURVE",
"126 510 CURVE SMOOTH",
"89 510 OFFCURVE",
"35 484 OFFCURVE",
"0 450 CURVE",
"9 424 LINE",
"53 424 LINE SMOOTH",
"66 424 OFFCURVE",
"70 419 OFFCURVE",
"73 402 CURVE SMOOTH",
"104 190 LINE SMOOTH",
"126 38 OFFCURVE",
"166 -14 OFFCURVE",
"268 -14 CURVE SMOOTH",
"383 -14 OFFCURVE",
"488 128 OFFCURVE",
"488 404 CURVE SMOOTH",
"488 437 OFFCURVE",
"486 473 OFFCURVE",
"483 510 CURVE",
"364 496 LINE",
"352 483 LINE",
"362 467 LINE SMOOTH",
"392 419 OFFCURVE",
"406 356 OFFCURVE",
"406 294 CURVE SMOOTH",
"406 171 OFFCURVE",
"367 51 OFFCURVE",
"279 51 CURVE SMOOTH"
);
}
);
width = 553;
}
);
leftKerningGroup = v;
unicode = 0076;
},
{
glyphname = w;
lastChange = "2016-09-22 13:09:51 +0000";
layers = (
{
hints = (
{
place = "{388, 80}";
},
{
place = "{673, 80}";
},
{
horizontal = 1;
place = "{-14, 65}";
},
{
horizontal = 1;
place = "{510, -20}";
target = down;
type = TopGhost;
}
);
layerId = UUID0;
paths = (
{
closed = 1;
nodes = (
"235 51 OFFCURVE",
"215 84 OFFCURVE",
"203 166 CURVE SMOOTH",
"158 478 LINE SMOOTH",
"155 498 OFFCURVE",
"144 510 OFFCURVE",
"126 510 CURVE SMOOTH",
"89 510 OFFCURVE",
"35 484 OFFCURVE",
"0 450 CURVE",
"9 424 LINE",
"53 424 LINE SMOOTH",
"66 424 OFFCURVE",
"70 419 OFFCURVE",
"73 402 CURVE SMOOTH",
"104 190 LINE SMOOTH",
"126 38 OFFCURVE",
"166 -14 OFFCURVE",
"268 -14 CURVE SMOOTH",
"325 -14 OFFCURVE",
"379 28 OFFCURVE",
"416 112 CURVE",
"440 20 OFFCURVE",
"480 -14 OFFCURVE",
"557 -14 CURVE SMOOTH",
"659 -14 OFFCURVE",
"753 128 OFFCURVE",
"753 404 CURVE SMOOTH",
"753 437 OFFCURVE",
"751 473 OFFCURVE",
"748 510 CURVE",
"631 497 LINE",
"619 484 LINE",
"629 468 LINE SMOOTH",
"659 420 OFFCURVE",
"673 357 OFFCURVE",
"673 295 CURVE SMOOTH",
"673 172 OFFCURVE",
"631 51 OFFCURVE",
"564 51 CURVE SMOOTH",
"517 51 OFFCURVE",
"496 84 OFFCURVE",
"484 166 CURVE SMOOTH",
"463 306 LINE",
"466 337 OFFCURVE",
"468 369 OFFCURVE",
"468 404 CURVE SMOOTH",
"468 437 OFFCURVE",
"466 473 OFFCURVE",
"463 510 CURVE",
"346 497 LINE",
"334 484 LINE",
"344 468 LINE SMOOTH",
"374 420 OFFCURVE",
"388 357 OFFCURVE",
"388 295 CURVE SMOOTH",
"388 172 OFFCURVE",
"346 51 OFFCURVE",
"279 51 CURVE SMOOTH"
);
}
);
width = 813;
}
);
leftKerningGroup = v;
unicode = 0077;
},
{
glyphname = x;
lastChange = "2016-09-22 13:09:51 +0000";
layers = (
{
hints = (
{
horizontal = 1;
place = "{-14, 63}";
},
{
horizontal = 1;
place = "{447, 63}";
},
{
horizontal = 1;
place = "{497, -20}";
target = down;
type = TopGhost;
},
{
horizontal = 1;
place = "{0, 21}";
target = up;
type = BottomGhost;
}
);
layerId = UUID0;
paths = (
{
closed = 1;
nodes = (
"515 497 LINE",
"360 497 LINE",
"348 482 LINE",
"367 466 LINE SMOOTH",
"378 457 OFFCURVE",
"386 448 OFFCURVE",
"386 434 CURVE SMOOTH",
"386 412 OFFCURVE",
"349 362 OFFCURVE",
"298 304 CURVE",
"220 440 LINE SMOOTH",
"193 487 OFFCURVE",
"157 510 OFFCURVE",
"113 510 CURVE SMOOTH",
"81 510 OFFCURVE",
"51 497 OFFCURVE",
"20 464 CURVE",
"42 434 LINE",
"54 442 OFFCURVE",
"68 447 OFFCURVE",
"80 447 CURVE SMOOTH",
"97 447 OFFCURVE",
"109 441 OFFCURVE",
"122 419 CURVE SMOOTH",
"231 231 LINE",
"153 149 OFFCURVE",
"67 64 OFFCURVE",
"24 21 CURVE",
"35 0 LINE",
"190 0 LINE",
"202 15 LINE",
"183 31 LINE SMOOTH",
"172 40 OFFCURVE",
"164 49 OFFCURVE",
"164 63 CURVE SMOOTH",
"164 85 OFFCURVE",
"201 135 OFFCURVE",
"252 194 CURVE",
"333 56 LINE SMOOTH",
"360 9 OFFCURVE",
"396 -14 OFFCURVE",
"440 -14 CURVE SMOOTH",
"472 -14 OFFCURVE",
"502 -1 OFFCURVE",
"533 32 CURVE",
"511 62 LINE",
"499 54 OFFCURVE",
"485 49 OFFCURVE",
"473 49 CURVE SMOOTH",
"456 49 OFFCURVE",
"444 55 OFFCURVE",
"431 77 CURVE SMOOTH",
"320 267 LINE",
"397 349 OFFCURVE",
"483 432 OFFCURVE",
"526 476 CURVE"
);
}
);
width = 553;
}
);
unicode = 0078;
},
{
glyphname = y;
lastChange = "2016-09-22 13:09:51 +0000";
layers = (
{
hints = (
{
place = "{103, 91}";
},
{
place = "{120, 97}";
},
{
place = "{430, 83}";
},
{
horizontal = 1;
place = "{-278, 52}";
},
{
horizontal = 1;
place = "{15, 67}";
},
{
horizontal = 1;
place = "{511, -20}";
target = down;
type = TopGhost;
},
{
horizontal = 1;
place = "{-14, 21}";
target = up;
type = BottomGhost;
}
);
layerId = UUID0;
paths = (
{
closed = 1;
nodes = (
"426 -278 OFFCURVE",
"513 -188 OFFCURVE",
"513 -22 CURVE SMOOTH",
"513 511 LINE",
"391 498 LINE",
"379 483 LINE",
"391 467 LINE SMOOTH",
"427 420 OFFCURVE",
"430 370 OFFCURVE",
"430 272 CURVE SMOOTH",
"430 153 OFFCURVE",
"377 82 OFFCURVE",
"288 82 CURVE SMOOTH",
"227 82 OFFCURVE",
"194 124 OFFCURVE",
"194 204 CURVE SMOOTH",
"194 479 LINE SMOOTH",
"194 498 OFFCURVE",
"181 511 OFFCURVE",
"162 511 CURVE SMOOTH",
"121 511 OFFCURVE",
"65 486 OFFCURVE",
"30 451 CURVE",
"39 425 LINE",
"83 425 LINE SMOOTH",
"97 425 OFFCURVE",
"103 419 OFFCURVE",
"103 403 CURVE SMOOTH",
"103 181 LINE SMOOTH",
"103 76 OFFCURVE",
"159 15 OFFCURVE",
"254 15 CURVE SMOOTH",
"328 15 OFFCURVE",
"393 52 OFFCURVE",
"424 110 CURVE",
"424 -38 LINE SMOOTH",
"424 -146 OFFCURVE",
"390 -226 OFFCURVE",
"304 -226 CURVE SMOOTH",
"249 -226 OFFCURVE",
"217 -184 OFFCURVE",
"217 -133 CURVE SMOOTH",
"217 -60 OFFCURVE",
"266 -38 OFFCURVE",
"266 -25 CURVE SMOOTH",
"266 -20 OFFCURVE",
"261 -14 OFFCURVE",
"247 -14 CURVE SMOOTH",
"164 -14 OFFCURVE",
"120 -73 OFFCURVE",
"120 -135 CURVE SMOOTH",
"120 -205 OFFCURVE",
"175 -278 OFFCURVE",
"291 -278 CURVE SMOOTH"
);
}
);
width = 610;
}
);
leftKerningGroup = v;
unicode = 0079;
},
{
color = (187,255,0,1);
glyphname = z;
lastChange = "2016-09-22 13:09:51 +0000";
layers = (
{
hints = (
{
place = "{22, 93}";
},
{
place = "{364, 104}";
},
{
horizontal = 1;
place = "{-242, 58}";
},
{
horizontal = 1;
place = "{134, 37}";
},
{
horizontal = 1;
place = "{439, 58}";
},
{
horizontal = 1;
place = "{521, -20}";
target = down;
type = TopGhost;
}
);
layerId = UUID0;
paths = (
{
closed = 1;
nodes = (
"419 438 LINE",
"446 454 LINE",
"446 472 OFFCURVE",
"440 485 OFFCURVE",
"426 497 CURVE",
"177 497 LINE SMOOTH",
"116 497 OFFCURVE",
"87 502 OFFCURVE",
"58 521 CURVE",
"46 509 LINE",
"46 355 LINE",
"77 344 LINE",
"89 397 LINE SMOOTH",
"97 431 OFFCURVE",
"114 439 OFFCURVE",
"164 439 CURVE SMOOTH",
"314 439 LINE",
"33 31 LINE",
"44 0 LINE",
"300 0 LINE SMOOTH",
"361 0 OFFCURVE",
"390 -5 OFFCURVE",
"419 -24 CURVE",
"431 -12 LINE",
"431 142 LINE",
"400 153 LINE",
"388 100 LINE SMOOTH",
"380 66 OFFCURVE",
"363 58 OFFCURVE",
"313 58 CURVE SMOOTH",
"156 58 LINE"
);
}
);
width = 479;
}
);
leftKerningGroup = m;
unicode = 007A;
},
{
glyphname = f.alt;
lastChange = "2016-09-22 13:09:51 +0000";
layers = (
{
hints = (
{
place = "{-105, 89}";
},
{
place = "{109, 90}";
},
{
place = "{407, 93}";
},
{
horizontal = 1;
place = "{-238, 43}";
},
{
horizontal = 1;
place = "{434, 63}";
},
{
horizontal = 1;
place = "{737, 45}";
}
);
layerId = UUID0;
paths = (
{
closed = 1;
nodes = (
"45 481 LINE SMOOTH",
"24 476 OFFCURVE",
"21 470 OFFCURVE",
"21 434 CURVE",
"109 434 LINE",
"109 -90 LINE SMOOTH",
"109 -163 OFFCURVE",
"76 -195 OFFCURVE",
"39 -195 CURVE SMOOTH",
"8 -195 OFFCURVE",
"-16 -171 OFFCURVE",
"-16 -129 CURVE SMOOTH",
"-16 -82 OFFCURVE",
"12 -66 OFFCURVE",
"12 -57 CURVE SMOOTH",
"12 -49 OFFCURVE",
"6 -46 OFFCURVE",
"-7 -46 CURVE SMOOTH",
"-64 -46 OFFCURVE",
"-105 -85 OFFCURVE",
"-105 -136 CURVE SMOOTH",
"-105 -200 OFFCURVE",
"-51 -238 OFFCURVE",
"19 -238 CURVE SMOOTH",
"142 -238 OFFCURVE",
"199 -147 OFFCURVE",
"199 -13 CURVE SMOOTH",
"199 434 LINE",
"316 434 LINE",
"330 445 OFFCURVE",
"339 468 OFFCURVE",
"339 497 CURVE",
"199 497 LINE",
"199 640 OFFCURVE",
"239 737 OFFCURVE",
"340 737 CURVE SMOOTH",
"383 737 OFFCURVE",
"407 709 OFFCURVE",
"407 666 CURVE SMOOTH",
"407 610 OFFCURVE",
"383 593 OFFCURVE",
"383 584 CURVE SMOOTH",
"383 576 OFFCURVE",
"389 573 OFFCURVE",
"402 573 CURVE SMOOTH",
"458 573 OFFCURVE",
"500 613 OFFCURVE",
"500 671 CURVE SMOOTH",
"500 736 OFFCURVE",
"438 782 OFFCURVE",
"351 782 CURVE SMOOTH",
"205 782 OFFCURVE",
"127 668 OFFCURVE",
"112 497 CURVE"
);
}
);
width = 334;
}
);
},
{
glyphname = z.alt;
lastChange = "2016-09-22 13:09:51 +0000";
layers = (
{
hints = (
{
place = "{20, 93}";
},
{
place = "{362, 104}";
},
{
horizontal = 1;
place = "{-242, 58}";
},
{
horizontal = 1;
place = "{134, 37}";
},
{
horizontal = 1;
place = "{439, 58}";
},
{
horizontal = 1;
place = "{521, -20}";
target = down;
type = TopGhost;
}
);
layerId = UUID0;
paths = (
{
closed = 1;
nodes = (
"412 438 LINE",
"439 454 LINE",
"439 472 OFFCURVE",
"433 485 OFFCURVE",
"419 497 CURVE",
"175 497 LINE SMOOTH",
"114 497 OFFCURVE",
"85 502 OFFCURVE",
"56 521 CURVE",
"44 509 LINE",
"44 355 LINE",
"75 344 LINE",
"87 397 LINE SMOOTH",
"95 431 OFFCURVE",
"112 439 OFFCURVE",
"162 439 CURVE SMOOTH",
"307 439 LINE",
"123 147 LINE",
"131 127 LINE",
"149 132 OFFCURVE",
"167 134 OFFCURVE",
"182 134 CURVE SMOOTH",
"307 134 OFFCURVE",
"362 51 OFFCURVE",
"362 -31 CURVE SMOOTH",
"362 -108 OFFCURVE",
"309 -184 OFFCURVE",
"217 -184 CURVE SMOOTH",
"153 -184 OFFCURVE",
"113 -141 OFFCURVE",
"113 -80 CURVE SMOOTH",
"113 -4 OFFCURVE",
"166 20 OFFCURVE",
"166 32 CURVE SMOOTH",
"166 36 OFFCURVE",
"166 43 OFFCURVE",
"147 43 CURVE SMOOTH",
"64 43 OFFCURVE",
"20 -16 OFFCURVE",
"20 -78 CURVE SMOOTH",
"20 -158 OFFCURVE",
"79 -242 OFFCURVE",
"204 -242 CURVE SMOOTH",
"374 -242 OFFCURVE",
"466 -126 OFFCURVE",
"466 -18 CURVE SMOOTH",
"466 80 OFFCURVE",
"396 171 OFFCURVE",
"245 171 CURVE"
);
}
);
width = 486;
}
);
},
{
glyphname = y.calt;
lastChange = "2016-09-22 13:09:51 +0000";
layers = (
{
hints = (
{
place = "{85, 97}";
},
{
place = "{439, 76}";
},
{
horizontal = 1;
place = "{-278, 58}";
},
{
horizontal = 1;
place = "{15, 64}";
},
{
horizontal = 1;
place = "{510, -20}";
target = down;
type = TopGhost;
},
{
horizontal = 1;
place = "{-14, 21}";
target = up;
type = BottomGhost;
}
);
layerId = UUID0;
paths = (
{
closed = 1;
nodes = (
"245 79 OFFCURVE",
"222 103 OFFCURVE",
"213 166 CURVE SMOOTH",
"168 478 LINE SMOOTH",
"165 498 OFFCURVE",
"154 510 OFFCURVE",
"136 510 CURVE SMOOTH",
"99 510 OFFCURVE",
"45 484 OFFCURVE",
"10 450 CURVE",
"19 424 LINE",
"63 424 LINE SMOOTH",
"76 424 OFFCURVE",
"80 419 OFFCURVE",
"83 402 CURVE SMOOTH",
"114 190 LINE SMOOTH",
"133 59 OFFCURVE",
"176 15 OFFCURVE",
"261 15 CURVE SMOOTH",
"334 15 OFFCURVE",
"400 56 OFFCURVE",
"439 141 CURVE",
"439 -89 OFFCURVE",
"377 -220 OFFCURVE",
"269 -220 CURVE SMOOTH",
"214 -220 OFFCURVE",
"182 -184 OFFCURVE",
"182 -133 CURVE SMOOTH",
"182 -60 OFFCURVE",
"231 -38 OFFCURVE",
"231 -25 CURVE SMOOTH",
"231 -20 OFFCURVE",
"226 -14 OFFCURVE",
"212 -14 CURVE SMOOTH",
"129 -14 OFFCURVE",
"85 -73 OFFCURVE",
"85 -135 CURVE SMOOTH",
"85 -205 OFFCURVE",
"140 -278 OFFCURVE",
"256 -278 CURVE SMOOTH",
"439 -278 OFFCURVE",
"515 -70 OFFCURVE",
"515 217 CURVE SMOOTH",
"515 308 OFFCURVE",
"507 407 OFFCURVE",
"493 510 CURVE",
"380 497 LINE",
"368 484 LINE",
"378 468 LINE SMOOTH",
"410 417 OFFCURVE",
"431 357 OFFCURVE",
"431 295 CURVE SMOOTH",
"431 186 OFFCURVE",
"377 79 OFFCURVE",
"289 79 CURVE SMOOTH"
);
}
);
width = 610;
}
);
},
{
glyphname = f_f;
lastChange = "2016-09-22 13:09:51 +0000";
layers = (
{
hints = (
{
place = "{-105, 89}";
},
{
place = "{109, 90}";
},
{
place = "{393, 90}";
},
{
place = "{414, 69}";
},
{
place = "{635, 93}";
},
{
horizontal = 1;
place = "{-238, 43}";
},
{
horizontal = 1;
place = "{-169, 45}";
},
{
horizontal = 1;
place = "{434, 63}";
},
{
horizontal = 1;
place = "{737, 45}";
}
);
layerId = UUID0;
paths = (
{
closed = 1;
nodes = (
"600 434 LINE",
"614 445 OFFCURVE",
"623 468 OFFCURVE",
"623 497 CURVE",
"483 497 LINE",
"483 573 LINE SMOOTH",
"483 670 OFFCURVE",
"507 737 OFFCURVE",
"568 737 CURVE SMOOTH",
"609 737 OFFCURVE",
"635 709 OFFCURVE",
"635 666 CURVE SMOOTH",
"635 610 OFFCURVE",
"611 593 OFFCURVE",
"611 584 CURVE SMOOTH",
"611 576 OFFCURVE",
"617 573 OFFCURVE",
"630 573 CURVE SMOOTH",
"687 573 OFFCURVE",
"728 613 OFFCURVE",
"728 671 CURVE SMOOTH",
"728 736 OFFCURVE",
"666 782 OFFCURVE",
"579 782 CURVE SMOOTH",
"531 782 OFFCURVE",
"493 765 OFFCURVE",
"464 736 CURVE",
"438 764 OFFCURVE",
"394 782 OFFCURVE",
"341 782 CURVE SMOOTH",
"202 782 OFFCURVE",
"126 668 OFFCURVE",
"112 497 CURVE",
"47 481 LINE SMOOTH",
"26 476 OFFCURVE",
"23 470 OFFCURVE",
"23 434 CURVE",
"109 434 LINE",
"109 -90 LINE SMOOTH",
"109 -163 OFFCURVE",
"76 -195 OFFCURVE",
"39 -195 CURVE SMOOTH",
"8 -195 OFFCURVE",
"-16 -171 OFFCURVE",
"-16 -129 CURVE SMOOTH",
"-16 -82 OFFCURVE",
"12 -66 OFFCURVE",
"12 -57 CURVE SMOOTH",
"12 -49 OFFCURVE",
"6 -46 OFFCURVE",
"-7 -46 CURVE SMOOTH",
"-64 -46 OFFCURVE",
"-105 -85 OFFCURVE",
"-105 -136 CURVE SMOOTH",
"-105 -200 OFFCURVE",
"-51 -238 OFFCURVE",
"19 -238 CURVE SMOOTH",
"97 -238 OFFCURVE",
"148 -201 OFFCURVE",
"175 -140 CURVE",
"202 -159 OFFCURVE",
"234 -169 OFFCURVE",
"270 -169 CURVE SMOOTH",
"413 -169 OFFCURVE",
"483 -27 OFFCURVE",
"483 180 CURVE SMOOTH",
"483 434 LINE"
);
},
{
closed = 1;
nodes = (
"199 434 LINE",
"393 434 LINE",
"393 114 LINE SMOOTH",
"393 -27 OFFCURVE",
"358 -124 OFFCURVE",
"271 -124 CURVE SMOOTH",
"238 -124 OFFCURVE",
"212 -109 OFFCURVE",
"193 -82 CURVE",
"197 -61 OFFCURVE",
"199 -37 OFFCURVE",
"199 -13 CURVE"
);
},
{
closed = 1;
nodes = (
"199 497 LINE SMOOTH",
"199 638 OFFCURVE",
"237 737 OFFCURVE",
"330 737 CURVE SMOOTH",
"384 737 OFFCURVE",
"414 704 OFFCURVE",
"414 654 CURVE SMOOTH",
"406 620 OFFCURVE",
"393 594 OFFCURVE",
"393 507 CURVE SMOOTH",
"393 497 LINE"
);
}
);
width = 618;
}
);
rightKerningGroup = f;
unicode = FB00;
},
{
glyphname = f_f_i;
lastChange = "2016-09-22 13:09:51 +0000";
layers = (
{
hints = (
{
place = "{-105, 89}";
},
{
place = "{109, 90}";
},
{
place = "{393, 90}";
},
{
place = "{676, 90}";
},
{
place = "{691, 93}";
},
{
horizontal = 1;
place = "{-238, 43}";
},
{
horizontal = 1;
place = "{-169, 45}";
},
{
horizontal = 1;
place = "{-14, 68}";
},
{
horizontal = 1;
place = "{434, 63}";
},
{
horizontal = 1;
place = "{737, 45}";
},
{
horizontal = 1;
place = "{510, -20}";
target = down;
type = TopGhost;
}
);
layerId = UUID0;
paths = (
{
closed = 1;
nodes = (
"483 497 LINE SMOOTH",
"483 638 OFFCURVE",
"523 737 OFFCURVE",
"624 737 CURVE SMOOTH",
"667 737 OFFCURVE",
"691 709 OFFCURVE",
"691 666 CURVE SMOOTH",
"691 610 OFFCURVE",
"667 593 OFFCURVE",
"667 584 CURVE SMOOTH",
"667 576 OFFCURVE",
"673 573 OFFCURVE",
"686 573 CURVE SMOOTH",
"742 573 OFFCURVE",
"784 613 OFFCURVE",
"784 671 CURVE SMOOTH",
"784 736 OFFCURVE",
"722 782 OFFCURVE",
"635 782 CURVE SMOOTH",
"569 782 OFFCURVE",
"517 759 OFFCURVE",
"479 718 CURVE",
"449 757 OFFCURVE",
"404 782 OFFCURVE",
"351 782 CURVE SMOOTH",
"205 782 OFFCURVE",
"127 668 OFFCURVE",
"112 497 CURVE",
"47 481 LINE SMOOTH",
"26 476 OFFCURVE",
"23 470 OFFCURVE",
"23 434 CURVE",
"109 434 LINE",
"109 -90 LINE SMOOTH",
"109 -163 OFFCURVE",
"76 -195 OFFCURVE",
"39 -195 CURVE SMOOTH",
"8 -195 OFFCURVE",
"-16 -171 OFFCURVE",
"-16 -129 CURVE SMOOTH",
"-16 -82 OFFCURVE",
"12 -66 OFFCURVE",
"12 -57 CURVE SMOOTH",
"12 -49 OFFCURVE",
"6 -46 OFFCURVE",
"-7 -46 CURVE SMOOTH",
"-64 -46 OFFCURVE",
"-105 -85 OFFCURVE",
"-105 -136 CURVE SMOOTH",
"-105 -200 OFFCURVE",
"-51 -238 OFFCURVE",
"19 -238 CURVE SMOOTH",
"97 -238 OFFCURVE",
"148 -201 OFFCURVE",
"175 -140 CURVE",
"202 -159 OFFCURVE",
"234 -169 OFFCURVE",
"270 -169 CURVE SMOOTH",
"420 -169 OFFCURVE",
"483 -27 OFFCURVE",
"483 180 CURVE SMOOTH",
"483 434 LINE",
"656 434 LINE SMOOTH",
"670 434 OFFCURVE",
"676 428 OFFCURVE",
"676 412 CURVE SMOOTH",
"676 92 LINE SMOOTH",
"676 17 OFFCURVE",
"698 -14 OFFCURVE",
"753 -14 CURVE SMOOTH",
"787 -14 OFFCURVE",
"830 10 OFFCURVE",
"865 49 CURVE",
"846 75 LINE",
"829 61 OFFCURVE",
"811 54 OFFCURVE",
"796 54 CURVE SMOOTH",
"776 54 OFFCURVE",
"766 66 OFFCURVE",
"766 88 CURVE SMOOTH",
"766 478 LINE SMOOTH",
"766 497 OFFCURVE",
"754 510 OFFCURVE",
"735 510 CURVE",
"713 502 OFFCURVE",
"693 497 OFFCURVE",
"656 497 CURVE SMOOTH"
);
},
{
closed = 1;
nodes = (
"199 434 LINE",
"393 434 LINE",
"393 114 LINE SMOOTH",
"393 -27 OFFCURVE",
"358 -124 OFFCURVE",
"267 -124 CURVE SMOOTH",
"236 -124 OFFCURVE",
"211 -109 OFFCURVE",
"193 -82 CURVE",
"197 -61 OFFCURVE",
"199 -37 OFFCURVE",
"199 -13 CURVE"
);
},
{
closed = 1;
nodes = (
"199 497 LINE",
"199 638 OFFCURVE",
"239 737 OFFCURVE",
"340 737 CURVE SMOOTH",
"393 737 OFFCURVE",
"426 704 OFFCURVE",
"434 652 CURVE",
"413 609 OFFCURVE",
"401 556 OFFCURVE",
"396 497 CURVE"
);
}
);
width = 880;
}
);
unicode = FB03;
},
{
glyphname = f_f_l;
lastChange = "2016-09-22 13:09:51 +0000";
layers = (
{
hints = (
{
place = "{-105, 89}";
},
{
place = "{109, 90}";
},
{
place = "{393, 90}";
},
{
place = "{706, 90}";
},
{
horizontal = 1;
place = "{-238, 43}";
},
{
horizontal = 1;
place = "{-169, 45}";
},
{
horizontal = 1;
place = "{-14, 68}";
},
{
horizontal = 1;
place = "{434, 63}";
},
{
horizontal = 1;
place = "{737, 45}";
}
);
layerId = UUID0;
paths = (
{
closed = 1;
nodes = (
"797 746 LINE SMOOTH",
"797 765 OFFCURVE",
"795 778 OFFCURVE",
"776 778 CURVE SMOOTH",
"764 778 OFFCURVE",
"739 768 OFFCURVE",
"715 751 CURVE",
"689 770 OFFCURVE",
"657 782 OFFCURVE",
"621 782 CURVE SMOOTH",
"561 782 OFFCURVE",
"513 760 OFFCURVE",
"477 721 CURVE",
"447 758 OFFCURVE",
"403 782 OFFCURVE",
"351 782 CURVE SMOOTH",
"205 782 OFFCURVE",
"127 668 OFFCURVE",
"112 497 CURVE",
"47 481 LINE SMOOTH",
"26 476 OFFCURVE",
"23 470 OFFCURVE",
"23 434 CURVE",
"109 434 LINE",
"109 -90 LINE SMOOTH",
"109 -163 OFFCURVE",
"76 -195 OFFCURVE",
"39 -195 CURVE SMOOTH",
"8 -195 OFFCURVE",
"-16 -171 OFFCURVE",
"-16 -129 CURVE SMOOTH",
"-16 -82 OFFCURVE",
"12 -66 OFFCURVE",
"12 -57 CURVE SMOOTH",
"12 -49 OFFCURVE",
"6 -46 OFFCURVE",
"-7 -46 CURVE SMOOTH",
"-64 -46 OFFCURVE",
"-105 -85 OFFCURVE",
"-105 -136 CURVE SMOOTH",
"-105 -200 OFFCURVE",
"-51 -238 OFFCURVE",
"19 -238 CURVE SMOOTH",
"97 -238 OFFCURVE",
"148 -201 OFFCURVE",
"175 -140 CURVE",
"202 -159 OFFCURVE",
"234 -169 OFFCURVE",
"270 -169 CURVE SMOOTH",
"420 -169 OFFCURVE",
"483 -27 OFFCURVE",
"483 180 CURVE SMOOTH",
"483 434 LINE",
"600 434 LINE",
"614 445 OFFCURVE",
"623 468 OFFCURVE",
"623 497 CURVE",
"483 497 LINE",
"483 640 OFFCURVE",
"518 737 OFFCURVE",
"609 737 CURVE SMOOTH",
"677 737 OFFCURVE",
"706 686 OFFCURVE",
"706 620 CURVE SMOOTH",
"706 92 LINE SMOOTH",
"706 17 OFFCURVE",
"728 -14 OFFCURVE",
"783 -14 CURVE SMOOTH",
"817 -14 OFFCURVE",
"860 10 OFFCURVE",
"895 49 CURVE",
"876 75 LINE",
"859 61 OFFCURVE",
"841 54 OFFCURVE",
"826 54 CURVE SMOOTH",
"806 54 OFFCURVE",
"796 66 OFFCURVE",
"796 88 CURVE SMOOTH"
);
},
{
closed = 1;
nodes = (
"199 434 LINE",
"393 434 LINE",
"393 114 LINE SMOOTH",
"393 -27 OFFCURVE",
"358 -124 OFFCURVE",
"267 -124 CURVE SMOOTH",
"236 -124 OFFCURVE",
"211 -109 OFFCURVE",
"193 -82 CURVE",
"197 -61 OFFCURVE",
"199 -37 OFFCURVE",
"199 -13 CURVE"
);
},
{
closed = 1;
nodes = (
"392 737 OFFCURVE",
"425 705 OFFCURVE",
"433 655 CURVE",
"413 611 OFFCURVE",
"401 557 OFFCURVE",
"396 497 CURVE",
"199 497 LINE",
"199 638 OFFCURVE",
"239 737 OFFCURVE",
"340 737 CURVE SMOOTH"
);
}
);
width = 880;
}
);
unicode = FB04;
},
{
glyphname = fi;
lastChange = "2016-09-22 13:09:51 +0000";
layers = (
{
hints = (
{
place = "{-105, 89}";
},
{
place = "{109, 90}";
},
{
place = "{392, 90}";
},
{
place = "{407, 93}";
},
{
horizontal = 1;
place = "{-238, 43}";
},
{
horizontal = 1;
place = "{-14, 68}";
},
{
horizontal = 1;
place = "{434, 63}";
},
{
horizontal = 1;
place = "{737, 45}";
},
{
horizontal = 1;
place = "{510, -20}";
target = down;
type = TopGhost;
}
);
layerId = UUID0;
paths = (
{
closed = 1;
nodes = (
"372 434 LINE SMOOTH",
"386 434 OFFCURVE",
"392 428 OFFCURVE",
"392 412 CURVE SMOOTH",
"392 92 LINE SMOOTH",
"392 17 OFFCURVE",
"414 -14 OFFCURVE",
"469 -14 CURVE SMOOTH",
"503 -14 OFFCURVE",
"546 10 OFFCURVE",
"581 49 CURVE",
"562 75 LINE",
"545 61 OFFCURVE",
"527 54 OFFCURVE",
"512 54 CURVE SMOOTH",
"492 54 OFFCURVE",
"482 66 OFFCURVE",
"482 88 CURVE SMOOTH",
"482 478 LINE SMOOTH",
"482 497 OFFCURVE",
"470 510 OFFCURVE",
"451 510 CURVE",
"429 502 OFFCURVE",
"409 497 OFFCURVE",
"372 497 CURVE SMOOTH",
"199 497 LINE",
"199 640 OFFCURVE",
"239 737 OFFCURVE",
"340 737 CURVE SMOOTH",
"383 737 OFFCURVE",
"407 709 OFFCURVE",
"407 666 CURVE SMOOTH",
"407 610 OFFCURVE",
"383 593 OFFCURVE",
"383 584 CURVE SMOOTH",
"383 576 OFFCURVE",
"389 573 OFFCURVE",
"402 573 CURVE SMOOTH",
"458 573 OFFCURVE",
"500 613 OFFCURVE",
"500 671 CURVE SMOOTH",
"500 736 OFFCURVE",
"438 782 OFFCURVE",
"351 782 CURVE SMOOTH",
"205 782 OFFCURVE",
"127 668 OFFCURVE",
"112 497 CURVE",
"45 481 LINE SMOOTH",
"24 476 OFFCURVE",
"21 470 OFFCURVE",
"21 434 CURVE",
"109 434 LINE",
"109 -90 LINE SMOOTH",
"109 -163 OFFCURVE",
"76 -195 OFFCURVE",
"39 -195 CURVE SMOOTH",
"8 -195 OFFCURVE",
"-16 -171 OFFCURVE",
"-16 -129 CURVE SMOOTH",
"-16 -82 OFFCURVE",
"12 -66 OFFCURVE",
"12 -57 CURVE SMOOTH",
"12 -49 OFFCURVE",
"6 -46 OFFCURVE",
"-7 -46 CURVE SMOOTH",
"-64 -46 OFFCURVE",
"-105 -85 OFFCURVE",
"-105 -136 CURVE SMOOTH",
"-105 -200 OFFCURVE",
"-51 -238 OFFCURVE",
"19 -238 CURVE SMOOTH",
"142 -238 OFFCURVE",
"199 -147 OFFCURVE",
"199 -13 CURVE SMOOTH",
"199 434 LINE"
);
}
);
width = 616;
}
);
unicode = FB01;
},
{
glyphname = fl;
lastChange = "2016-09-22 13:09:51 +0000";
layers = (
{
hints = (
{
place = "{-105, 89}";
},
{
place = "{109, 90}";
},
{
place = "{422, 90}";
},
{
horizontal = 1;
place = "{-238, 43}";
},
{
horizontal = 1;
place = "{-14, 68}";
},
{
horizontal = 1;
place = "{434, 63}";
},
{
horizontal = 1;
place = "{737, 45}";
}
);
layerId = UUID0;
paths = (
{
closed = 1;
nodes = (
"45 481 LINE SMOOTH",
"24 476 OFFCURVE",
"21 470 OFFCURVE",
"21 434 CURVE",
"109 434 LINE",
"109 -90 LINE SMOOTH",
"109 -163 OFFCURVE",
"76 -195 OFFCURVE",
"39 -195 CURVE SMOOTH",
"8 -195 OFFCURVE",
"-16 -171 OFFCURVE",
"-16 -129 CURVE SMOOTH",
"-16 -82 OFFCURVE",
"12 -66 OFFCURVE",
"12 -57 CURVE SMOOTH",
"12 -49 OFFCURVE",
"6 -46 OFFCURVE",
"-7 -46 CURVE SMOOTH",
"-64 -46 OFFCURVE",
"-105 -85 OFFCURVE",
"-105 -136 CURVE SMOOTH",
"-105 -200 OFFCURVE",
"-51 -238 OFFCURVE",
"19 -238 CURVE SMOOTH",
"142 -238 OFFCURVE",
"199 -147 OFFCURVE",
"199 -13 CURVE SMOOTH",
"199 434 LINE",
"316 434 LINE",
"330 445 OFFCURVE",
"339 468 OFFCURVE",
"339 497 CURVE",
"199 497 LINE",
"199 640 OFFCURVE",
"234 737 OFFCURVE",
"325 737 CURVE SMOOTH",
"393 737 OFFCURVE",
"422 686 OFFCURVE",
"422 620 CURVE SMOOTH",
"422 92 LINE SMOOTH",
"422 17 OFFCURVE",
"444 -14 OFFCURVE",
"499 -14 CURVE SMOOTH",
"533 -14 OFFCURVE",
"576 10 OFFCURVE",
"611 49 CURVE",
"592 75 LINE",
"575 61 OFFCURVE",
"557 54 OFFCURVE",
"542 54 CURVE SMOOTH",
"522 54 OFFCURVE",
"512 66 OFFCURVE",
"512 88 CURVE SMOOTH",
"513 746 LINE SMOOTH",
"513 765 OFFCURVE",
"511 778 OFFCURVE",
"492 778 CURVE SMOOTH",
"480 778 OFFCURVE",
"455 768 OFFCURVE",
"431 751 CURVE",
"405 770 OFFCURVE",
"373 782 OFFCURVE",
"337 782 CURVE SMOOTH",
"201 782 OFFCURVE",
"126 668 OFFCURVE",
"112 497 CURVE"
);
}
);
width = 626;
}
);
unicode = FB02;
},
{
glyphname = ordfeminine;
lastChange = "2016-09-22 13:09:51 +0000";
layers = (
{
hints = (
{
place = "{45, 81}";
},
{
place = "{244, 75}";
},
{
horizontal = 1;
place = "{361, 55}";
},
{
horizontal = 1;
place = "{522, 40}";
},
{
horizontal = 1;
place = "{689, 42}";
}
);
layerId = UUID0;
paths = (
{
closed = 1;
nodes = (
"244 558 LINE",
"223 562 OFFCURVE",
"204 562 OFFCURVE",
"190 562 CURVE SMOOTH",
"101 562 OFFCURVE",
"45 520 OFFCURVE",
"45 452 CURVE SMOOTH",
"45 399 OFFCURVE",
"86 361 OFFCURVE",
"142 361 CURVE SMOOTH",
"186 361 OFFCURVE",
"223 381 OFFCURVE",
"245 414 CURVE",
"250 377 OFFCURVE",
"268 361 OFFCURVE",
"303 361 CURVE SMOOTH",
"329 361 OFFCURVE",
"361 380 OFFCURVE",
"388 409 CURVE",
"369 435 LINE",
"354 425 OFFCURVE",
"341 420 OFFCURVE",
"333 420 CURVE SMOOTH",
"324 420 OFFCURVE",
"319 425 OFFCURVE",
"319 437 CURVE SMOOTH",
"319 602 LINE SMOOTH",
"319 691 OFFCURVE",
"282 731 OFFCURVE",
"196 731 CURVE SMOOTH",
"124 731 OFFCURVE",
"63 688 OFFCURVE",
"63 636 CURVE SMOOTH",
"63 613 OFFCURVE",
"80 598 OFFCURVE",
"102 598 CURVE SMOOTH",
"116 598 OFFCURVE",
"130 603 OFFCURVE",
"142 613 CURVE",
"142 663 OFFCURVE",
"160 689 OFFCURVE",
"196 689 CURVE SMOOTH",
"228 689 OFFCURVE",
"244 664 OFFCURVE",
"244 615 CURVE SMOOTH"
);
},
{
closed = 1;
nodes = (
"142 416 OFFCURVE",
"126 433 OFFCURVE",
"126 462 CURVE SMOOTH",
"126 500 OFFCURVE",
"154 522 OFFCURVE",
"205 522 CURVE SMOOTH",
"222 522 OFFCURVE",
"236 521 OFFCURVE",
"244 518 CURVE",
"243 458 OFFCURVE",
"214 416 OFFCURVE",
"171 416 CURVE SMOOTH"
);
}
);
width = 398;
}
);
unicode = 00AA;
},
{
glyphname = ordmasculine;
lastChange = "2016-09-22 13:09:51 +0000";
layers = (
{
hints = (
{
place = "{40, 85}";
},
{
place = "{309, 86}";
},
{
horizontal = 1;
place = "{361, 47}";
},
{
horizontal = 1;
place = "{686, 45}";
}
);
layerId = UUID0;
paths = (
{
closed = 1;
nodes = (
"125 632 OFFCURVE",
"158 686 OFFCURVE",
"211 686 CURVE SMOOTH",
"269 686 OFFCURVE",
"309 626 OFFCURVE",
"309 540 CURVE SMOOTH",
"309 459 OFFCURVE",
"275 408 OFFCURVE",
"222 408 CURVE SMOOTH",
"166 408 OFFCURVE",
"125 463 OFFCURVE",
"125 546 CURVE SMOOTH"
);
},
{
closed = 1;
nodes = (
"40 434 OFFCURVE",
"108 361 OFFCURVE",
"217 361 CURVE SMOOTH",
"326 361 OFFCURVE",
"395 434 OFFCURVE",
"395 546 CURVE SMOOTH",
"395 659 OFFCURVE",
"326 731 OFFCURVE",
"217 731 CURVE SMOOTH",
"108 731 OFFCURVE",
"40 659 OFFCURVE",
"40 546 CURVE SMOOTH"
);
}
);
width = 435;
}
);
unicode = 00BA;
},
{
color = 0;
glyphname = uni0411;
lastChange = "2016-09-22 13:09:51 +0000";
layers = (
{
hints = (
{
place = "{132, 99}";
},
{
place = "{492, 104}";
},
{
horizontal = 1;
place = "{0, 52}";
},
{
horizontal = 1;
place = "{369, 50}";
},
{
horizontal = 1;
place = "{661, 57}";
},
{
horizontal = 1;
place = "{752, -20}";
target = down;
type = TopGhost;
}
);
layerId = UUID0;
paths = (
{
closed = 1;
nodes = (
"303 52 OFFCURVE",
"231 58 OFFCURVE",
"231 183 CURVE SMOOTH",
"231 585 LINE SMOOTH",
"231 647 OFFCURVE",
"243 661 OFFCURVE",
"295 661 CURVE SMOOTH",
"392 661 LINE SMOOTH",
"463 661 OFFCURVE",
"482 643 OFFCURVE",
"501 572 CURVE SMOOTH",
"507 549 LINE",
"541 561 LINE",
"541 739 LINE",
"525 752 LINE",
"507 739 LINE SMOOTH",
"487 724 OFFCURVE",
"451 718 OFFCURVE",
"393 718 CURVE SMOOTH",
"87 718 LINE",
"74 702 LINE",
"87 684 LINE SMOOTH",
"120 640 OFFCURVE",
"132 598 OFFCURVE",
"132 517 CURVE SMOOTH",
"132 133 LINE SMOOTH",
"132 71 OFFCURVE",
"118 55 OFFCURVE",
"68 40 CURVE SMOOTH",
"45 34 LINE",
"57 0 LINE",
"336 0 LINE SMOOTH",
"526 0 OFFCURVE",
"596 88 OFFCURVE",
"596 210 CURVE SMOOTH",
"596 322 OFFCURVE",
"503 419 OFFCURVE",
"350 419 CURVE SMOOTH",
"301 419 OFFCURVE",
"253 410 OFFCURVE",
"253 384 CURVE SMOOTH",
"253 372 OFFCURVE",
"257 362 OFFCURVE",
"267 362 CURVE SMOOTH",
"278 362 OFFCURVE",
"292 369 OFFCURVE",
"333 369 CURVE SMOOTH",
"429 369 OFFCURVE",
"492 301 OFFCURVE",
"492 215 CURVE SMOOTH",
"492 120 OFFCURVE",
"438 52 OFFCURVE",
"342 52 CURVE SMOOTH"
);
}
);
width = 651;
}
);
unicode = 0411;
},
{
color = 0;
glyphname = uni0413;
lastChange = "2016-09-22 13:09:51 +0000";
layers = (
{
hints = (
{
place = "{103, 99}";
},
{
horizontal = 1;
place = "{661, 57}";
},
{
horizontal = 1;
place = "{0, 21}";
target = up;
type = BottomGhost;
},
{
horizontal = 1;
place = "{752, -20}";
target = down;
type = TopGhost;
}
);
layerId = UUID0;
paths = (
{
closed = 1;
nodes = (
"58 718 LINE",
"45 702 LINE",
"58 684 LINE SMOOTH",
"91 640 OFFCURVE",
"103 598 OFFCURVE",
"103 517 CURVE SMOOTH",
"103 201 LINE SMOOTH",
"103 120 OFFCURVE",
"91 78 OFFCURVE",
"58 34 CURVE SMOOTH",
"45 16 LINE",
"58 0 LINE",
"277 0 LINE",
"289 34 LINE",
"266 40 LINE SMOOTH",
"216 55 OFFCURVE",
"202 71 OFFCURVE",
"202 133 CURVE SMOOTH",
"202 585 LINE SMOOTH",
"202 647 OFFCURVE",
"214 661 OFFCURVE",
"266 661 CURVE SMOOTH",
"321 661 LINE SMOOTH",
"392 661 OFFCURVE",
"411 643 OFFCURVE",
"430 572 CURVE SMOOTH",
"436 549 LINE",
"470 561 LINE",
"470 739 LINE",
"454 752 LINE",
"436 739 LINE SMOOTH",
"416 724 OFFCURVE",
"380 718 OFFCURVE",
"322 718 CURVE SMOOTH"
);
}
);
width = 490;
}
);
rightKerningGroup = uni0413;
unicode = 0413;
},
{
color = 0;
glyphname = uni0490;
lastChange = "2016-09-22 13:09:51 +0000";
layers = (
{
hints = (
{
place = "{103, 99}";
},
{
horizontal = 1;
place = "{661, 57}";
},
{
horizontal = 1;
place = "{0, 21}";
target = up;
type = BottomGhost;
},
{
horizontal = 1;
place = "{896, -20}";
target = down;
type = TopGhost;
}
);
layerId = UUID0;
paths = (
{
closed = 1;
nodes = (
"58 718 LINE",
"45 702 LINE",
"58 684 LINE SMOOTH",
"91 639 OFFCURVE",
"103 598 OFFCURVE",
"103 517 CURVE SMOOTH",
"103 201 LINE SMOOTH",
"103 119 OFFCURVE",
"90 78 OFFCURVE",
"58 34 CURVE SMOOTH",
"45 16 LINE",
"58 0 LINE",
"277 0 LINE",
"289 34 LINE",
"266 40 LINE SMOOTH",
"216 53 OFFCURVE",
"202 72 OFFCURVE",
"202 133 CURVE SMOOTH",
"202 585 LINE SMOOTH",
"202 647 OFFCURVE",
"214 661 OFFCURVE",
"266 661 CURVE SMOOTH",
"322 661 LINE SMOOTH",
"380 661 OFFCURVE",
"416 655 OFFCURVE",
"436 640 CURVE SMOOTH",
"454 627 LINE",
"470 640 LINE",
"470 884 LINE",
"436 896 LINE",
"430 873 LINE SMOOTH",
"402 767 OFFCURVE",
"372 718 OFFCURVE",
"281 718 CURVE SMOOTH"
);
}
);
width = 490;
}
);
rightKerningGroup = uni0413;
unicode = 0490;
},
{
color = 0;
glyphname = uni0414;
lastChange = "2016-09-22 13:09:51 +0000";
layers = (
{
hints = (
{
place = "{177, 79}";
},
{
place = "{477, 99}";
},
{
horizontal = 1;
place = "{0, 57}";
},
{
horizontal = 1;
place = "{661, 57}";
},
{
horizontal = 1;
place = "{-193, 21}";
target = up;
type = BottomGhost;
}
);
layerId = UUID0;
paths = (
{
closed = 1;
nodes = (
"576 517 LINE SMOOTH",
"576 598 OFFCURVE",
"588 640 OFFCURVE",
"621 684 CURVE SMOOTH",
"634 702 LINE",
"621 718 LINE",
"102 718 LINE",
"90 684 LINE",
"113 678 LINE SMOOTH",
"152 668 OFFCURVE",
"177 651 OFFCURVE",
"177 595 CURVE SMOOTH",
"177 269 OFFCURVE",
"164 67 OFFCURVE",
"22 43 CURVE",
"22 -181 LINE",
"56 -193 LINE",
"62 -170 LINE SMOOTH",
"90 -64 OFFCURVE",
"121 0 OFFCURVE",
"211 0 CURVE SMOOTH",
"496 0 LINE SMOOTH",
"587 0 OFFCURVE",
"617 -64 OFFCURVE",
"645 -170 CURVE SMOOTH",
"651 -193 LINE",
"685 -181 LINE",
"685 42 LINE",
"631 42 OFFCURVE",
"576 61 OFFCURVE",
"576 105 CURVE SMOOTH"
);
},
{
closed = 1;
nodes = (
"160 57 LINE",
"225 113 OFFCURVE",
"256 296 OFFCURVE",
"256 621 CURVE SMOOTH",
"256 655 OFFCURVE",
"282 661 OFFCURVE",
"318 661 CURVE SMOOTH",
"413 661 LINE SMOOTH",
"465 661 OFFCURVE",
"477 647 OFFCURVE",
"477 585 CURVE SMOOTH",
"477 133 LINE SMOOTH",
"477 71 OFFCURVE",
"465 57 OFFCURVE",
"413 57 CURVE SMOOTH"
);
}
);
width = 703;
}
);
unicode = 0414;
},
{
color = 0;
glyphname = uni0416;
lastChange = "2016-09-22 13:09:51 +0000";
layers = (
{
hints = (
{
place = "{425, 99}";
},
{
horizontal = 1;
place = "{-14, 55}";
},
{
horizontal = 1;
place = "{718, -20}";
target = down;
type = TopGhost;
}
);
layerId = UUID0;
paths = (
{
closed = 1;
nodes = (
"595 0 LINE",
"606 32 LINE",
"585 38 LINE SMOOTH",
"537 52 OFFCURVE",
"524 67 OFFCURVE",
"524 126 CURVE SMOOTH",
"524 517 LINE SMOOTH",
"524 598 OFFCURVE",
"536 640 OFFCURVE",
"569 684 CURVE SMOOTH",
"582 702 LINE",
"569 718 LINE",
"350 718 LINE",
"338 684 LINE",
"361 678 LINE SMOOTH",
"411 663 OFFCURVE",
"425 647 OFFCURVE",
"425 585 CURVE SMOOTH",
"425 133 LINE SMOOTH",
"425 71 OFFCURVE",
"411 55 OFFCURVE",
"361 40 CURVE SMOOTH",
"338 34 LINE",
"350 0 LINE"
);
},
{
closed = 1;
nodes = (
"221 583 LINE SMOOTH",
"203 611 OFFCURVE",
"200 623 OFFCURVE",
"200 639 CURVE SMOOTH",
"200 655 OFFCURVE",
"208 673 OFFCURVE",
"213 684 CURVE SMOOTH",
"222 702 LINE",
"203 718 LINE",
"22 718 LINE",
"10 684 LINE",
"33 678 LINE SMOOTH",
"62 670 OFFCURVE",
"87 659 OFFCURVE",
"111 624 CURVE SMOOTH",
"290 364 LINE",
"265 352 OFFCURVE",
"240 332 OFFCURVE",
"222 299 CURVE SMOOTH",
"94 72 LINE SMOOTH",
"84 54 OFFCURVE",
"74 41 OFFCURVE",
"56 41 CURVE SMOOTH",
"43 41 OFFCURVE",
"31 45 OFFCURVE",
"17 55 CURVE",
"0 26 LINE",
"29 -2 OFFCURVE",
"61 -14 OFFCURVE",
"92 -14 CURVE SMOOTH",
"155 -14 OFFCURVE",
"192 22 OFFCURVE",
"226 83 CURVE SMOOTH",
"345 301 LINE SMOOTH",
"360 327 OFFCURVE",
"371 335 OFFCURVE",
"396 346 CURVE SMOOTH",
"400 348 OFFCURVE",
"401 352 OFFCURVE",
"401 357 CURVE SMOOTH",
"401 366 OFFCURVE",
"398 381 OFFCURVE",
"381 381 CURVE SMOOTH",
"373 381 OFFCURVE",
"365 381 OFFCURVE",
"356 380 CURVE"
);
},
{
closed = 1;
nodes = (
"728 299 LINE SMOOTH",
"709 332 OFFCURVE",
"685 352 OFFCURVE",
"659 364 CURVE",
"839 624 LINE SMOOTH",
"863 659 OFFCURVE",
"888 670 OFFCURVE",
"917 678 CURVE SMOOTH",
"940 684 LINE",
"928 718 LINE",
"747 718 LINE",
"728 702 LINE",
"737 684 LINE SMOOTH",
"742 673 OFFCURVE",
"750 655 OFFCURVE",
"750 639 CURVE SMOOTH",
"750 623 OFFCURVE",
"747 611 OFFCURVE",
"729 583 CURVE SMOOTH",
"593 380 LINE",
"585 381 OFFCURVE",
"577 381 OFFCURVE",
"569 381 CURVE SMOOTH",
"552 381 OFFCURVE",
"549 366 OFFCURVE",
"549 357 CURVE SMOOTH",
"549 352 OFFCURVE",
"550 348 OFFCURVE",
"554 346 CURVE SMOOTH",
"579 335 OFFCURVE",
"590 327 OFFCURVE",
"605 301 CURVE SMOOTH",
"724 83 LINE SMOOTH",
"758 22 OFFCURVE",
"795 -14 OFFCURVE",
"858 -14 CURVE SMOOTH",
"889 -14 OFFCURVE",
"921 -2 OFFCURVE",
"950 26 CURVE",
"933 55 LINE",
"919 45 OFFCURVE",
"907 41 OFFCURVE",
"894 41 CURVE SMOOTH",
"876 41 OFFCURVE",
"866 54 OFFCURVE",
"856 72 CURVE SMOOTH"
);
}
);
width = 950;
}
);
rightKerningGroup = uni0416;
unicode = 0416;
},
{
color = 0;
glyphname = uni0417;
lastChange = "2016-09-22 13:09:51 +0000";
layers = (
{
hints = (
{
place = "{45, 98}";
},
{
place = "{399, 109}";
},
{
place = "{429, 109}";
},
{
horizontal = 1;
place = "{-14, 58}";
},
{
horizontal = 1;
place = "{675, 43}";
},
{
horizontal = 1;
place = "{675, 57}";
},
{
horizontal = 1;
place = "{742, -20}";
target = down;
type = TopGhost;
}
);
layerId = UUID0;
paths = (
{
closed = 1;
nodes = (
"90 742 LINE",
"74 729 LINE",
"74 531 LINE",
"108 519 LINE",
"114 542 LINE SMOOTH",
"142 651 OFFCURVE",
"193 675 OFFCURVE",
"256 675 CURVE SMOOTH",
"327 675 OFFCURVE",
"399 634 OFFCURVE",
"399 551 CURVE SMOOTH",
"399 496 OFFCURVE",
"381 424 OFFCURVE",
"259 394 CURVE SMOOTH",
"218 384 OFFCURVE",
"201 379 OFFCURVE",
"201 359 CURVE SMOOTH",
"201 346 OFFCURVE",
"205 339 OFFCURVE",
"213 339 CURVE SMOOTH",
"223 339 OFFCURVE",
"240 345 OFFCURVE",
"271 345 CURVE SMOOTH",
"406 345 OFFCURVE",
"429 245 OFFCURVE",
"429 190 CURVE SMOOTH",
"429 90 OFFCURVE",
"350 44 OFFCURVE",
"274 44 CURVE SMOOTH",
"207 44 OFFCURVE",
"143 84 OFFCURVE",
"143 156 CURVE SMOOTH",
"143 209 OFFCURVE",
"167 233 OFFCURVE",
"167 242 CURVE SMOOTH",
"167 254 OFFCURVE",
"160 254 OFFCURVE",
"146 254 CURVE SMOOTH",
"88 254 OFFCURVE",
"45 211 OFFCURVE",
"45 148 CURVE SMOOTH",
"45 40 OFFCURVE",
"159 -14 OFFCURVE",
"277 -14 CURVE SMOOTH",
"434 -14 OFFCURVE",
"538 56 OFFCURVE",
"538 184 CURVE SMOOTH",
"538 274 OFFCURVE",
"479 351 OFFCURVE",
"360 376 CURVE",
"452 411 OFFCURVE",
"508 468 OFFCURVE",
"508 557 CURVE SMOOTH",
"508 674 OFFCURVE",
"391 732 OFFCURVE",
"278 732 CURVE SMOOTH",
"218 732 OFFCURVE",
"178 718 OFFCURVE",
"146 718 CURVE SMOOTH",
"132 718 OFFCURVE",
"120 720 OFFCURVE",
"108 729 CURVE SMOOTH"
);
}
);
width = 584;
}
);
rightKerningGroup = uni0417;
unicode = 0417;
},
{
color = 0;
glyphname = uni0418;
lastChange = "2016-09-22 13:09:51 +0000";
layers = (
{
hints = (
{
place = "{127, 99}";
},
{
place = "{563, 99}";
},
{
horizontal = 1;
place = "{0, 21}";
target = up;
type = BottomGhost;
},
{
horizontal = 1;
place = "{718, -20}";
target = down;
type = TopGhost;
}
);
layerId = UUID0;
paths = (
{
closed = 1;
nodes = (
"563 133 LINE SMOOTH",
"563 71 OFFCURVE",
"549 55 OFFCURVE",
"499 40 CURVE SMOOTH",
"476 34 LINE",
"488 0 LINE",
"733 0 LINE",
"744 32 LINE",
"723 38 LINE SMOOTH",
"675 52 OFFCURVE",
"662 67 OFFCURVE",
"662 126 CURVE SMOOTH",
"662 517 LINE SMOOTH",
"662 598 OFFCURVE",
"674 640 OFFCURVE",
"707 684 CURVE SMOOTH",
"720 702 LINE",
"707 718 LINE",
"488 718 LINE",
"476 684 LINE",
"499 678 LINE SMOOTH",
"528 669 OFFCURVE",
"545 660 OFFCURVE",
"554 642 CURVE",
"226 189 LINE",
"226 517 LINE SMOOTH",
"226 598 OFFCURVE",
"238 640 OFFCURVE",
"271 684 CURVE SMOOTH",
"284 702 LINE",
"271 718 LINE",
"52 718 LINE",
"40 684 LINE",
"63 678 LINE SMOOTH",
"113 663 OFFCURVE",
"127 647 OFFCURVE",
"127 585 CURVE SMOOTH",
"127 133 LINE SMOOTH",
"127 71 OFFCURVE",
"113 55 OFFCURVE",
"63 40 CURVE SMOOTH",
"40 34 LINE",
"52 0 LINE",
"297 0 LINE",
"308 32 LINE",
"287 38 LINE SMOOTH",
"254 47 OFFCURVE",
"237 57 OFFCURVE",
"230 82 CURVE",
"563 541 LINE"
);
}
);
width = 789;
}
);
unicode = 0418;
},
{
color = 0;
glyphname = uni041B;
lastChange = "2016-09-22 13:09:51 +0000";
layers = (
{
hints = (
{
place = "{187, 75}";
},
{
place = "{471, 99}";
},
{
horizontal = 1;
place = "{661, 57}";
},
{
horizontal = 1;
place = "{-14, 21}";
target = up;
type = BottomGhost;
}
);
layerId = UUID0;
paths = (
{
closed = 1;
nodes = (
"628 702 LINE",
"615 718 LINE",
"131 718 LINE",
"119 684 LINE",
"142 678 LINE SMOOTH",
"181 668 OFFCURVE",
"187 661 OFFCURVE",
"187 595 CURVE SMOOTH",
"187 322 OFFCURVE",
"171 75 OFFCURVE",
"99 75 CURVE SMOOTH",
"73 75 OFFCURVE",
"61 102 OFFCURVE",
"55 128 CURVE SMOOTH",
"50 151 OFFCURVE",
"47 174 OFFCURVE",
"31 174 CURVE SMOOTH",
"0 174 OFFCURVE",
"-21 130 OFFCURVE",
"-21 86 CURVE SMOOTH",
"-21 20 OFFCURVE",
"27 -14 OFFCURVE",
"82 -14 CURVE SMOOTH",
"155 -14 OFFCURVE",
"262 17 OFFCURVE",
"262 621 CURVE SMOOTH",
"262 655 OFFCURVE",
"288 661 OFFCURVE",
"324 661 CURVE SMOOTH",
"407 661 LINE SMOOTH",
"459 661 OFFCURVE",
"471 647 OFFCURVE",
"471 585 CURVE SMOOTH",
"471 133 LINE SMOOTH",
"471 71 OFFCURVE",
"457 55 OFFCURVE",
"407 40 CURVE SMOOTH",
"384 34 LINE",
"396 0 LINE",
"641 0 LINE",
"652 32 LINE",
"631 38 LINE SMOOTH",
"583 52 OFFCURVE",
"570 67 OFFCURVE",
"570 126 CURVE SMOOTH",
"570 517 LINE SMOOTH",
"570 598 OFFCURVE",
"582 640 OFFCURVE",
"615 684 CURVE SMOOTH"
);
}
);
width = 697;
}
);
leftKerningGroup = uni041B;
unicode = 041B;
},
{
color = 0;
glyphname = uni041F;
lastChange = "2016-09-22 13:09:51 +0000";
layers = (
{
hints = (
{
place = "{103, 99}";
},
{
place = "{499, 99}";
},
{
horizontal = 1;
place = "{661, 57}";
},
{
horizontal = 1;
place = "{0, 21}";
target = up;
type = BottomGhost;
}
);
layerId = UUID0;
paths = (
{
closed = 1;
nodes = (
"435 661 LINE",
"487 661 OFFCURVE",
"499 647 OFFCURVE",
"499 585 CURVE SMOOTH",
"499 133 LINE SMOOTH",
"499 71 OFFCURVE",
"485 55 OFFCURVE",
"435 40 CURVE SMOOTH",
"412 34 LINE",
"424 0 LINE",
"669 0 LINE",
"680 32 LINE",
"659 38 LINE SMOOTH",
"611 52 OFFCURVE",
"598 67 OFFCURVE",
"598 126 CURVE SMOOTH",
"598 517 LINE SMOOTH",
"598 598 OFFCURVE",
"610 640 OFFCURVE",
"643 684 CURVE SMOOTH",
"656 702 LINE",
"643 718 LINE",
"58 718 LINE",
"45 702 LINE",
"58 684 LINE SMOOTH",
"91 640 OFFCURVE",
"103 598 OFFCURVE",
"103 517 CURVE SMOOTH",
"103 201 LINE SMOOTH",
"103 120 OFFCURVE",
"91 78 OFFCURVE",
"58 34 CURVE SMOOTH",
"45 16 LINE",
"58 0 LINE",
"277 0 LINE",
"289 34 LINE",
"266 40 LINE SMOOTH",
"216 55 OFFCURVE",
"202 71 OFFCURVE",
"202 133 CURVE SMOOTH",
"202 585 LINE SMOOTH",
"202 647 OFFCURVE",
"214 661 OFFCURVE",
"266 661 CURVE SMOOTH"
);
}
);
width = 725;
}
);
unicode = 041F;
},
{
color = 0;
glyphname = uni0423;
lastChange = "2016-09-22 13:09:51 +0000";
layers = (
{
hints = (
{
place = "{53, 92}";
},
{
horizontal = 1;
place = "{-14, 63}";
},
{
horizontal = 1;
place = "{718, -20}";
target = down;
type = TopGhost;
}
);
layerId = UUID0;
paths = (
{
closed = 1;
nodes = (
"635 702 LINE",
"622 718 LINE",
"432 718 LINE",
"420 684 LINE",
"443 678 LINE SMOOTH",
"472 670 OFFCURVE",
"493 650 OFFCURVE",
"493 614 CURVE SMOOTH",
"493 588 OFFCURVE",
"491 566 OFFCURVE",
"469 518 CURVE SMOOTH",
"360 278 LINE",
"213 571 LINE SMOOTH",
"197 602 OFFCURVE",
"188 620 OFFCURVE",
"188 638 CURVE SMOOTH",
"188 659 OFFCURVE",
"200 671 OFFCURVE",
"227 678 CURVE SMOOTH",
"250 684 LINE",
"238 718 LINE",
"13 718 LINE",
"0 702 LINE",
"43 669 OFFCURVE",
"69 638 OFFCURVE",
"100 576 CURVE SMOOTH",
"307 161 LINE",
"272 74 OFFCURVE",
"226 49 OFFCURVE",
"187 49 CURVE SMOOTH",
"162 49 OFFCURVE",
"145 67 OFFCURVE",
"145 95 CURVE SMOOTH",
"145 133 OFFCURVE",
"166 156 OFFCURVE",
"166 166 CURVE SMOOTH",
"166 173 OFFCURVE",
"160 177 OFFCURVE",
"145 177 CURVE SMOOTH",
"90 177 OFFCURVE",
"53 137 OFFCURVE",
"53 83 CURVE SMOOTH",
"53 19 OFFCURVE",
"98 -14 OFFCURVE",
"168 -14 CURVE SMOOTH",
"238 -14 OFFCURVE",
"308 15 OFFCURVE",
"377 169 CURVE SMOOTH",
"565 584 LINE SMOOTH",
"581 620 OFFCURVE",
"594 653 OFFCURVE",
"620 684 CURVE SMOOTH"
);
}
);
width = 625;
}
);
rightKerningGroup = uni0423;
unicode = 0423;
},
{
color = 0;
glyphname = uni0424;
lastChange = "2016-09-22 13:09:51 +0000";
layers = (
{
hints = (
{
place = "{25, 113}";
},
{
place = "{390, 99}";
},
{
place = "{741, 113}";
},
{
horizontal = 1;
place = "{620, 69}";
},
{
horizontal = 1;
place = "{-40, 21}";
target = up;
type = BottomGhost;
},
{
horizontal = 1;
place = "{813, -20}";
target = down;
type = TopGhost;
}
);
layerId = UUID0;
paths = (
{
closed = 1;
nodes = (
"138 540 OFFCURVE",
"233 620 OFFCURVE",
"361 620 CURVE SMOOTH",
"384 620 OFFCURVE",
"390 603 OFFCURVE",
"390 585 CURVE",
"390 93 LINE SMOOTH",
"390 31 OFFCURVE",
"376 15 OFFCURVE",
"326 0 CURVE SMOOTH",
"303 -6 LINE",
"315 -40 LINE",
"560 -40 LINE",
"571 -8 LINE",
"550 -2 LINE SMOOTH",
"502 12 OFFCURVE",
"489 27 OFFCURVE",
"489 86 CURVE SMOOTH",
"489 585 LINE SMOOTH",
"489 603 OFFCURVE",
"495 620 OFFCURVE",
"518 620 CURVE SMOOTH",
"646 620 OFFCURVE",
"741 542 OFFCURVE",
"741 391 CURVE SMOOTH",
"741 255 OFFCURVE",
"673 163 OFFCURVE",
"528 142 CURVE SMOOTH",
"515 140 OFFCURVE",
"513 132 OFFCURVE",
"513 124 CURVE SMOOTH",
"513 103 OFFCURVE",
"529 95 OFFCURVE",
"552 95 CURVE SMOOTH",
"677 95 OFFCURVE",
"854 177 OFFCURVE",
"854 383 CURVE SMOOTH",
"854 563 OFFCURVE",
"719 674 OFFCURVE",
"495 689 CURVE",
"502 719 OFFCURVE",
"514 749 OFFCURVE",
"534 779 CURVE SMOOTH",
"547 797 LINE",
"534 813 LINE",
"345 813 LINE",
"333 779 LINE",
"356 772 LINE SMOOTH",
"385 763 OFFCURVE",
"389 730 OFFCURVE",
"390 690 CURVE",
"173 677 OFFCURVE",
"25 565 OFFCURVE",
"25 380 CURVE SMOOTH",
"25 177 OFFCURVE",
"202 95 OFFCURVE",
"327 95 CURVE SMOOTH",
"350 95 OFFCURVE",
"366 103 OFFCURVE",
"366 124 CURVE SMOOTH",
"366 132 OFFCURVE",
"364 140 OFFCURVE",
"351 142 CURVE SMOOTH",
"206 163 OFFCURVE",
"138 255 OFFCURVE",
"138 386 CURVE SMOOTH"
);
}
);
width = 879;
}
);
leftKerningGroup = uni041E;
rightKerningGroup = uni041E;
unicode = 0424;
},
{
color = 0;
glyphname = uni0427;
lastChange = "2016-09-22 13:09:51 +0000";
layers = (
{
hints = (
{
place = "{63, 100}";
},
{
place = "{435, 99}";
},
{
horizontal = 1;
place = "{261, 73}";
},
{
horizontal = 1;
place = "{0, 21}";
target = up;
type = BottomGhost;
},
{
horizontal = 1;
place = "{733, -20}";
target = down;
type = TopGhost;
}
);
layerId = UUID0;
paths = (
{
closed = 1;
nodes = (
"360 0 LINE",
"605 0 LINE",
"616 32 LINE",
"595 38 LINE SMOOTH",
"547 52 OFFCURVE",
"534 67 OFFCURVE",
"534 126 CURVE SMOOTH",
"534 517 LINE SMOOTH",
"534 598 OFFCURVE",
"546 640 OFFCURVE",
"579 684 CURVE SMOOTH",
"592 702 LINE",
"579 718 LINE",
"360 718 LINE",
"348 684 LINE",
"371 678 LINE SMOOTH",
"421 663 OFFCURVE",
"435 647 OFFCURVE",
"435 585 CURVE SMOOTH",
"435 403 LINE",
"400 369 OFFCURVE",
"361 334 OFFCURVE",
"280 334 CURVE SMOOTH",
"202 334 OFFCURVE",
"163 366 OFFCURVE",
"163 445 CURVE SMOOTH",
"163 733 LINE",
"33 719 LINE",
"20 702 LINE",
"33 685 LINE SMOOTH",
"57 654 OFFCURVE",
"63 625 OFFCURVE",
"63 544 CURVE SMOOTH",
"63 419 LINE SMOOTH",
"63 313 OFFCURVE",
"128 261 OFFCURVE",
"240 261 CURVE SMOOTH",
"328 261 OFFCURVE",
"380 293 OFFCURVE",
"435 332 CURVE",
"435 133 LINE SMOOTH",
"435 71 OFFCURVE",
"421 55 OFFCURVE",
"371 40 CURVE SMOOTH",
"348 34 LINE"
);
}
);
width = 661;
}
);
unicode = 0427;
},
{
color = 0;
glyphname = uni0426;
lastChange = "2016-09-22 13:09:51 +0000";
layers = (
{
hints = (
{
place = "{127, 99}";
},
{
place = "{523, 99}";
},
{
horizontal = 1;
place = "{0, 57}";
},
{
horizontal = 1;
place = "{-193, 21}";
target = up;
type = BottomGhost;
},
{
horizontal = 1;
place = "{718, -20}";
target = down;
type = TopGhost;
}
);
layerId = UUID0;
paths = (
{
closed = 1;
nodes = (
"40 34 LINE",
"52 0 LINE",
"542 0 LINE SMOOTH",
"633 0 OFFCURVE",
"656 -55 OFFCURVE",
"690 -170 CURVE SMOOTH",
"697 -193 LINE",
"731 -181 LINE",
"731 42 LINE",
"677 42 OFFCURVE",
"622 61 OFFCURVE",
"622 105 CURVE SMOOTH",
"622 517 LINE SMOOTH",
"622 598 OFFCURVE",
"634 640 OFFCURVE",
"667 684 CURVE SMOOTH",
"680 702 LINE",
"667 718 LINE",
"448 718 LINE",
"436 684 LINE",
"459 678 LINE SMOOTH",
"509 663 OFFCURVE",
"523 647 OFFCURVE",
"523 585 CURVE SMOOTH",
"523 133 LINE SMOOTH",
"523 71 OFFCURVE",
"511 57 OFFCURVE",
"459 57 CURVE SMOOTH",
"290 57 LINE SMOOTH",
"238 57 OFFCURVE",
"226 71 OFFCURVE",
"226 133 CURVE SMOOTH",
"226 517 LINE SMOOTH",
"226 598 OFFCURVE",
"238 640 OFFCURVE",
"271 684 CURVE SMOOTH",
"284 702 LINE",
"271 718 LINE",
"52 718 LINE",
"40 684 LINE",
"63 678 LINE SMOOTH",
"113 663 OFFCURVE",
"127 647 OFFCURVE",
"127 585 CURVE SMOOTH",
"127 133 LINE SMOOTH",
"127 71 OFFCURVE",
"113 55 OFFCURVE",
"63 40 CURVE SMOOTH"
);
}
);
width = 749;
}
);
unicode = 0426;
},
{
color = 0;
glyphname = uni0428;
lastChange = "2016-09-22 13:09:51 +0000";
layers = (
{
hints = (
{
place = "{127, 99}";
},
{
place = "{482, 95}";
},
{
place = "{833, 99}";
},
{
horizontal = 1;
place = "{0, 57}";
},
{
horizontal = 1;
place = "{718, -20}";
target = down;
type = TopGhost;
}
);
layerId = UUID0;
paths = (
{
closed = 1;
nodes = (
"1003 0 LINE",
"1014 32 LINE",
"993 38 LINE SMOOTH",
"945 52 OFFCURVE",
"932 67 OFFCURVE",
"932 126 CURVE SMOOTH",
"932 517 LINE SMOOTH",
"932 598 OFFCURVE",
"944 640 OFFCURVE",
"977 684 CURVE SMOOTH",
"990 702 LINE",
"977 718 LINE",
"758 718 LINE",
"746 684 LINE",
"769 678 LINE SMOOTH",
"819 663 OFFCURVE",
"833 647 OFFCURVE",
"833 585 CURVE SMOOTH",
"833 133 LINE SMOOTH",
"833 71 OFFCURVE",
"821 57 OFFCURVE",
"769 57 CURVE SMOOTH",
"627 57 LINE SMOOTH",
"586 57 OFFCURVE",
"577 71 OFFCURVE",
"577 126 CURVE SMOOTH",
"577 517 LINE SMOOTH",
"577 598 OFFCURVE",
"589 640 OFFCURVE",
"622 684 CURVE SMOOTH",
"635 702 LINE",
"622 718 LINE",
"407 718 LINE",
"395 684 LINE",
"418 678 LINE SMOOTH",
"468 663 OFFCURVE",
"482 647 OFFCURVE",
"482 585 CURVE SMOOTH",
"482 133 LINE SMOOTH",
"482 71 OFFCURVE",
"466 57 OFFCURVE",
"414 57 CURVE SMOOTH",
"290 57 LINE SMOOTH",
"238 57 OFFCURVE",
"226 71 OFFCURVE",
"226 133 CURVE SMOOTH",
"226 517 LINE SMOOTH",
"226 598 OFFCURVE",
"238 640 OFFCURVE",
"271 684 CURVE SMOOTH",
"284 702 LINE",
"271 718 LINE",
"52 718 LINE",
"40 684 LINE",
"63 678 LINE SMOOTH",
"113 663 OFFCURVE",
"127 647 OFFCURVE",
"127 585 CURVE SMOOTH",
"127 133 LINE SMOOTH",
"127 71 OFFCURVE",
"113 55 OFFCURVE",
"63 40 CURVE SMOOTH",
"40 34 LINE",
"52 0 LINE"
);
}
);
width = 1059;
}
);
unicode = 0428;
},
{
color = 0;
glyphname = uni0429;
lastChange = "2016-09-22 13:09:51 +0000";
layers = (
{
hints = (
{
place = "{127, 99}";
},
{
place = "{482, 95}";
},
{
place = "{833, 99}";
},
{
horizontal = 1;
place = "{0, 57}";
},
{
horizontal = 1;
place = "{-193, 21}";
target = up;
type = BottomGhost;
},
{
horizontal = 1;
place = "{718, -20}";
target = down;
type = TopGhost;
}
);
layerId = UUID0;
paths = (
{
closed = 1;
nodes = (
"40 34 LINE",
"52 0 LINE",
"852 0 LINE SMOOTH",
"943 0 OFFCURVE",
"973 -64 OFFCURVE",
"1001 -170 CURVE SMOOTH",
"1007 -193 LINE",
"1041 -181 LINE",
"1041 42 LINE",
"987 42 OFFCURVE",
"932 61 OFFCURVE",
"932 105 CURVE SMOOTH",
"932 517 LINE SMOOTH",
"932 598 OFFCURVE",
"944 640 OFFCURVE",
"977 684 CURVE SMOOTH",
"990 702 LINE",
"977 718 LINE",
"758 718 LINE",
"746 684 LINE",
"769 678 LINE SMOOTH",
"819 663 OFFCURVE",
"833 647 OFFCURVE",
"833 585 CURVE SMOOTH",
"833 133 LINE SMOOTH",
"833 71 OFFCURVE",
"821 57 OFFCURVE",
"769 57 CURVE SMOOTH",
"627 57 LINE SMOOTH",
"586 57 OFFCURVE",
"577 71 OFFCURVE",
"577 126 CURVE SMOOTH",
"577 517 LINE SMOOTH",
"577 598 OFFCURVE",
"589 640 OFFCURVE",
"622 684 CURVE SMOOTH",
"635 702 LINE",
"622 718 LINE",
"407 718 LINE",
"395 684 LINE",
"418 678 LINE SMOOTH",
"468 663 OFFCURVE",
"482 647 OFFCURVE",
"482 585 CURVE SMOOTH",
"482 133 LINE SMOOTH",
"482 71 OFFCURVE",
"466 57 OFFCURVE",
"414 57 CURVE SMOOTH",
"290 57 LINE SMOOTH",
"238 57 OFFCURVE",
"226 71 OFFCURVE",
"226 133 CURVE SMOOTH",
"226 517 LINE SMOOTH",
"226 598 OFFCURVE",
"238 640 OFFCURVE",
"271 684 CURVE SMOOTH",
"284 702 LINE",
"271 718 LINE",
"52 718 LINE",
"40 684 LINE",
"63 678 LINE SMOOTH",
"113 663 OFFCURVE",
"127 647 OFFCURVE",
"127 585 CURVE SMOOTH",
"127 133 LINE SMOOTH",
"127 71 OFFCURVE",
"113 55 OFFCURVE",
"63 40 CURVE SMOOTH"
);
}
);
width = 1059;
}
);
unicode = 0429;
},
{
color = 0;
glyphname = uni040F;
lastChange = "2016-09-22 13:09:51 +0000";
layers = (
{
hints = (
{
place = "{127, 99}";
},
{
place = "{523, 99}";
},
{
horizontal = 1;
place = "{0, 57}";
},
{
horizontal = 1;
place = "{-176, 21}";
target = up;
type = BottomGhost;
},
{
horizontal = 1;
place = "{718, -20}";
target = down;
type = TopGhost;
}
);
layerId = UUID0;
paths = (
{
closed = 1;
nodes = (
"183 0 LINE SMOOTH",
"317 0 OFFCURVE",
"352 -17 OFFCURVE",
"387 -153 CURVE SMOOTH",
"393 -176 LINE",
"427 -164 LINE",
"427 0 LINE",
"693 0 LINE",
"704 32 LINE",
"683 38 LINE SMOOTH",
"635 52 OFFCURVE",
"622 67 OFFCURVE",
"622 126 CURVE SMOOTH",
"622 517 LINE SMOOTH",
"622 598 OFFCURVE",
"634 640 OFFCURVE",
"667 684 CURVE SMOOTH",
"680 702 LINE",
"667 718 LINE",
"448 718 LINE",
"436 684 LINE",
"459 678 LINE SMOOTH",
"509 663 OFFCURVE",
"523 647 OFFCURVE",
"523 585 CURVE SMOOTH",
"523 133 LINE SMOOTH",
"523 71 OFFCURVE",
"511 57 OFFCURVE",
"459 57 CURVE SMOOTH",
"290 57 LINE SMOOTH",
"238 57 OFFCURVE",
"226 71 OFFCURVE",
"226 133 CURVE SMOOTH",
"226 517 LINE SMOOTH",
"226 598 OFFCURVE",
"238 640 OFFCURVE",
"271 684 CURVE SMOOTH",
"284 702 LINE",
"271 718 LINE",
"52 718 LINE",
"40 684 LINE",
"63 678 LINE SMOOTH",
"113 663 OFFCURVE",
"127 647 OFFCURVE",
"127 585 CURVE SMOOTH",
"127 133 LINE SMOOTH",
"127 71 OFFCURVE",
"113 55 OFFCURVE",
"63 40 CURVE SMOOTH",
"40 34 LINE",
"52 0 LINE"
);
}
);
width = 749;
}
);
unicode = 040F;
},
{
color = 0;
glyphname = uni042C;
lastChange = "2016-09-22 13:09:51 +0000";
layers = (
{
hints = (
{
place = "{127, 99}";
},
{
place = "{487, 104}";
},
{
horizontal = 1;
place = "{0, 52}";
},
{
horizontal = 1;
place = "{369, 50}";
},
{
horizontal = 1;
place = "{718, -20}";
target = down;
type = TopGhost;
}
);
layerId = UUID0;
paths = (
{
closed = 1;
nodes = (
"226 517 LINE SMOOTH",
"226 598 OFFCURVE",
"239 639 OFFCURVE",
"271 684 CURVE SMOOTH",
"284 702 LINE",
"271 718 LINE",
"52 718 LINE",
"40 684 LINE",
"63 678 LINE SMOOTH",
"113 665 OFFCURVE",
"127 645 OFFCURVE",
"127 585 CURVE SMOOTH",
"127 133 LINE SMOOTH",
"127 72 OFFCURVE",
"113 53 OFFCURVE",
"63 40 CURVE SMOOTH",
"40 34 LINE",
"52 0 LINE",
"331 0 LINE SMOOTH",
"521 0 OFFCURVE",
"591 88 OFFCURVE",
"591 210 CURVE SMOOTH",
"591 322 OFFCURVE",
"498 419 OFFCURVE",
"345 419 CURVE SMOOTH",
"296 419 OFFCURVE",
"248 410 OFFCURVE",
"248 384 CURVE SMOOTH",
"248 372 OFFCURVE",
"252 362 OFFCURVE",
"262 362 CURVE SMOOTH",
"273 362 OFFCURVE",
"287 369 OFFCURVE",
"328 369 CURVE SMOOTH",
"424 369 OFFCURVE",
"487 301 OFFCURVE",
"487 215 CURVE SMOOTH",
"487 120 OFFCURVE",
"433 52 OFFCURVE",
"337 52 CURVE SMOOTH",
"298 52 OFFCURVE",
"226 58 OFFCURVE",
"226 183 CURVE SMOOTH"
);
}
);
width = 636;
}
);
rightKerningGroup = uni042A;
unicode = 042C;
},
{
color = 2;
glyphname = uni042A;
lastChange = "2016-09-22 13:09:51 +0000";
layers = (
{
hints = (
{
place = "{248, 99}";
},
{
place = "{608, 104}";
},
{
horizontal = 1;
place = "{0, 52}";
},
{
horizontal = 1;
place = "{369, 50}";
},
{
horizontal = 1;
place = "{661, 57}";
},
{
horizontal = 1;
place = "{752, -20}";
target = down;
type = TopGhost;
}
);
layerId = UUID0;
paths = (
{
closed = 1;
nodes = (
"452 0 LINE SMOOTH",
"642 0 OFFCURVE",
"712 88 OFFCURVE",
"712 210 CURVE SMOOTH",
"712 322 OFFCURVE",
"619 419 OFFCURVE",
"466 419 CURVE SMOOTH",
"417 419 OFFCURVE",
"369 410 OFFCURVE",
"369 384 CURVE SMOOTH",
"369 372 OFFCURVE",
"373 362 OFFCURVE",
"383 362 CURVE SMOOTH",
"394 362 OFFCURVE",
"408 369 OFFCURVE",
"449 369 CURVE SMOOTH",
"545 369 OFFCURVE",
"608 301 OFFCURVE",
"608 215 CURVE SMOOTH",
"608 120 OFFCURVE",
"554 52 OFFCURVE",
"458 52 CURVE SMOOTH",
"419 52 OFFCURVE",
"347 58 OFFCURVE",
"347 183 CURVE SMOOTH",
"347 517 LINE SMOOTH",
"347 598 OFFCURVE",
"359 639 OFFCURVE",
"392 684 CURVE SMOOTH",
"405 702 LINE",
"392 718 LINE",
"168 718 LINE SMOOTH",
"110 718 OFFCURVE",
"74 724 OFFCURVE",
"54 739 CURVE SMOOTH",
"36 752 LINE",
"20 739 LINE",
"20 561 LINE",
"54 549 LINE",
"60 572 LINE SMOOTH",
"79 643 OFFCURVE",
"98 661 OFFCURVE",
"169 661 CURVE SMOOTH",
"194 661 LINE SMOOTH",
"222 661 OFFCURVE",
"248 647 OFFCURVE",
"248 585 CURVE SMOOTH",
"248 133 LINE SMOOTH",
"248 72 OFFCURVE",
"234 53 OFFCURVE",
"184 40 CURVE SMOOTH",
"161 34 LINE",
"173 0 LINE"
);
}
);
width = 757;
}
);
leftKerningGroup = uni0422;
rightKerningGroup = uni042A;
unicode = 042A;
},
{
color = 0;
glyphname = uni042B;
lastChange = "2016-09-22 13:09:51 +0000";
layers = (
{
components = (
{
name = I;
transform = "{1, 0, 0, 1, 583, 0}";
}
);
hints = (
{
place = "{127, 99}";
},
{
place = "{473, 104}";
},
{
horizontal = 1;
place = "{0, 52}";
},
{
horizontal = 1;
place = "{369, 50}";
},
{
horizontal = 1;
place = "{718, -20}";
target = down;
type = TopGhost;
}
);
layerId = UUID0;
paths = (
{
closed = 1;
nodes = (
"226 517 LINE SMOOTH",
"226 598 OFFCURVE",
"239 639 OFFCURVE",
"271 684 CURVE SMOOTH",
"284 702 LINE",
"271 718 LINE",
"52 718 LINE",
"40 684 LINE",
"63 678 LINE SMOOTH",
"113 665 OFFCURVE",
"127 645 OFFCURVE",
"127 585 CURVE SMOOTH",
"127 133 LINE SMOOTH",
"127 72 OFFCURVE",
"113 53 OFFCURVE",
"63 40 CURVE SMOOTH",
"40 34 LINE",
"52 0 LINE",
"331 0 LINE SMOOTH",
"507 0 OFFCURVE",
"577 88 OFFCURVE",
"577 210 CURVE SMOOTH",
"577 322 OFFCURVE",
"484 419 OFFCURVE",
"345 419 CURVE SMOOTH",
"296 419 OFFCURVE",
"248 410 OFFCURVE",
"248 384 CURVE SMOOTH",
"248 372 OFFCURVE",
"252 362 OFFCURVE",
"262 362 CURVE SMOOTH",
"273 362 OFFCURVE",
"287 369 OFFCURVE",
"328 369 CURVE SMOOTH",
"410 369 OFFCURVE",
"473 301 OFFCURVE",
"473 215 CURVE SMOOTH",
"473 120 OFFCURVE",
"419 52 OFFCURVE",
"337 52 CURVE SMOOTH",
"298 52 OFFCURVE",
"226 58 OFFCURVE",
"226 183 CURVE SMOOTH"
);
}
);
width = 936;
}
);
unicode = 042B;
},
{
color = 0;
glyphname = uni0409;
lastChange = "2016-09-22 13:09:51 +0000";
layers = (
{
hints = (
{
place = "{187, 75}";
},
{
place = "{471, 99}";
},
{
place = "{831, 104}";
},
{
horizontal = 1;
place = "{0, 52}";
},
{
horizontal = 1;
place = "{369, 50}";
},
{
horizontal = 1;
place = "{661, 57}";
},
{
horizontal = 1;
place = "{-14, 21}";
target = up;
type = BottomGhost;
}
);
layerId = UUID0;
paths = (
{
closed = 1;
nodes = (
"570 517 LINE SMOOTH",
"570 598 OFFCURVE",
"582 640 OFFCURVE",
"615 684 CURVE SMOOTH",
"628 702 LINE",
"615 718 LINE",
"131 718 LINE",
"119 684 LINE",
"142 678 LINE SMOOTH",
"181 668 OFFCURVE",
"187 661 OFFCURVE",
"187 595 CURVE SMOOTH",
"187 322 OFFCURVE",
"171 75 OFFCURVE",
"99 75 CURVE SMOOTH",
"73 75 OFFCURVE",
"61 102 OFFCURVE",
"55 128 CURVE SMOOTH",
"50 151 OFFCURVE",
"47 174 OFFCURVE",
"31 174 CURVE SMOOTH",
"0 174 OFFCURVE",
"-21 130 OFFCURVE",
"-21 86 CURVE SMOOTH",
"-21 20 OFFCURVE",
"27 -14 OFFCURVE",
"82 -14 CURVE SMOOTH",
"155 -14 OFFCURVE",
"262 17 OFFCURVE",
"262 621 CURVE SMOOTH",
"262 655 OFFCURVE",
"288 661 OFFCURVE",
"324 661 CURVE SMOOTH",
"407 661 LINE SMOOTH",
"459 661 OFFCURVE",
"471 647 OFFCURVE",
"471 585 CURVE SMOOTH",
"471 133 LINE SMOOTH",
"471 72 OFFCURVE",
"457 53 OFFCURVE",
"407 40 CURVE SMOOTH",
"384 34 LINE",
"396 0 LINE",
"675 0 LINE SMOOTH",
"865 0 OFFCURVE",
"935 88 OFFCURVE",
"935 210 CURVE SMOOTH",
"935 322 OFFCURVE",
"842 419 OFFCURVE",
"689 419 CURVE SMOOTH",
"640 419 OFFCURVE",
"592 410 OFFCURVE",
"592 384 CURVE SMOOTH",
"592 372 OFFCURVE",
"596 362 OFFCURVE",
"606 362 CURVE SMOOTH",
"617 362 OFFCURVE",
"631 369 OFFCURVE",
"672 369 CURVE SMOOTH",
"768 369 OFFCURVE",
"831 301 OFFCURVE",
"831 215 CURVE SMOOTH",
"831 120 OFFCURVE",
"777 52 OFFCURVE",
"681 52 CURVE SMOOTH",
"642 52 OFFCURVE",
"570 58 OFFCURVE",
"570 183 CURVE SMOOTH"
);
}
);
width = 980;
}
);
leftKerningGroup = uni041B;
unicode = 0409;
},
{
color = 0;
glyphname = uni040A;
lastChange = "2016-09-22 13:09:51 +0000";
layers = (
{
hints = (
{
place = "{127, 99}";
},
{
place = "{553, 99}";
},
{
place = "{913, 104}";
},
{
horizontal = 1;
place = "{0, 52}";
},
{
horizontal = 1;
place = "{334, 61}";
},
{
horizontal = 1;
place = "{369, 50}";
},
{
horizontal = 1;
place = "{718, -20}";
target = down;
type = TopGhost;
}
);
layerId = UUID0;
paths = (
{
closed = 1;
nodes = (
"652 517 LINE SMOOTH",
"652 598 OFFCURVE",
"665 639 OFFCURVE",
"697 684 CURVE SMOOTH",
"710 702 LINE",
"697 718 LINE",
"478 718 LINE",
"466 684 LINE",
"489 678 LINE SMOOTH",
"539 665 OFFCURVE",
"553 645 OFFCURVE",
"553 585 CURVE SMOOTH",
"553 395 LINE",
"226 395 LINE",
"226 517 LINE SMOOTH",
"226 598 OFFCURVE",
"238 640 OFFCURVE",
"271 684 CURVE SMOOTH",
"284 702 LINE",
"271 718 LINE",
"52 718 LINE",
"40 684 LINE",
"63 678 LINE SMOOTH",
"113 663 OFFCURVE",
"127 647 OFFCURVE",
"127 585 CURVE SMOOTH",
"127 133 LINE SMOOTH",
"127 71 OFFCURVE",
"113 55 OFFCURVE",
"63 40 CURVE SMOOTH",
"40 34 LINE",
"52 0 LINE",
"297 0 LINE",
"308 32 LINE",
"287 38 LINE SMOOTH",
"239 52 OFFCURVE",
"226 67 OFFCURVE",
"226 126 CURVE SMOOTH",
"226 334 LINE",
"553 334 LINE",
"553 133 LINE SMOOTH",
"553 72 OFFCURVE",
"539 53 OFFCURVE",
"489 40 CURVE SMOOTH",
"466 34 LINE",
"478 0 LINE",
"757 0 LINE SMOOTH",
"947 0 OFFCURVE",
"1017 88 OFFCURVE",
"1017 210 CURVE SMOOTH",
"1017 322 OFFCURVE",
"924 419 OFFCURVE",
"771 419 CURVE SMOOTH",
"722 419 OFFCURVE",
"674 410 OFFCURVE",
"674 384 CURVE SMOOTH",
"674 372 OFFCURVE",
"678 362 OFFCURVE",
"688 362 CURVE SMOOTH",
"699 362 OFFCURVE",
"713 369 OFFCURVE",
"754 369 CURVE SMOOTH",
"850 369 OFFCURVE",
"913 301 OFFCURVE",
"913 215 CURVE SMOOTH",
"913 120 OFFCURVE",
"859 52 OFFCURVE",
"763 52 CURVE SMOOTH",
"724 52 OFFCURVE",
"652 58 OFFCURVE",
"652 183 CURVE SMOOTH"
);
}
);
width = 1062;
}
);
rightKerningGroup = uni042A;
unicode = 040A;
},
{
color = 0;
glyphname = uni0404;
lastChange = "2016-09-22 13:09:51 +0000";
layers = (
{
components = (
{
name = C;
}
);
hints = (
{
horizontal = 1;
place = "{322, 63}";
}
);
layerId = UUID0;
paths = (
{
closed = 1;
nodes = (
"438 322 LINE",
"456 336 OFFCURVE",
"461 363 OFFCURVE",
"461 385 CURVE",
"73 385 LINE",
"55 372 OFFCURVE",
"50 344 OFFCURVE",
"50 322 CURVE"
);
}
);
width = 617;
}
);
leftKerningGroup = uni0421;
unicode = 0404;
},
{
color = 0;
glyphname = uni042D;
lastChange = "2016-09-22 13:09:51 +0000";
layers = (
{
hints = (
{
place = "{30, 98}";
},
{
place = "{462, 114}";
},
{
horizontal = 1;
place = "{-14, 58}";
},
{
horizontal = 1;
place = "{332, 63}";
},
{
horizontal = 1;
place = "{675, 43}";
},
{
horizontal = 1;
place = "{675, 57}";
},
{
horizontal = 1;
place = "{742, -20}";
target = down;
type = TopGhost;
}
);
layerId = UUID0;
paths = (
{
closed = 1;
nodes = (
"203 732 OFFCURVE",
"163 718 OFFCURVE",
"131 718 CURVE SMOOTH",
"117 718 OFFCURVE",
"105 720 OFFCURVE",
"93 729 CURVE SMOOTH",
"75 742 LINE",
"59 729 LINE",
"59 551 LINE",
"93 539 LINE",
"99 562 LINE SMOOTH",
"121 645 OFFCURVE",
"178 675 OFFCURVE",
"241 675 CURVE SMOOTH",
"393 675 OFFCURVE",
"453 534 OFFCURVE",
"462 395 CURVE",
"173 395 LINE",
"155 382 OFFCURVE",
"150 354 OFFCURVE",
"150 332 CURVE",
"462 332 LINE",
"455 172 OFFCURVE",
"379 44 OFFCURVE",
"259 44 CURVE SMOOTH",
"192 44 OFFCURVE",
"128 84 OFFCURVE",
"128 156 CURVE SMOOTH",
"128 209 OFFCURVE",
"152 233 OFFCURVE",
"152 242 CURVE SMOOTH",
"152 254 OFFCURVE",
"145 254 OFFCURVE",
"131 254 CURVE SMOOTH",
"73 254 OFFCURVE",
"30 211 OFFCURVE",
"30 148 CURVE SMOOTH",
"30 40 OFFCURVE",
"144 -14 OFFCURVE",
"262 -14 CURVE SMOOTH",
"474 -14 OFFCURVE",
"576 153 OFFCURVE",
"576 358 CURVE SMOOTH",
"576 565 OFFCURVE",
"475 732 OFFCURVE",
"263 732 CURVE SMOOTH"
);
}
);
width = 611;
}
);
rightKerningGroup = uni0417;
unicode = 042D;
},
{
color = 0;
glyphname = uni0406;
lastChange = "2016-09-22 13:09:51 +0000";
layers = (
{
hints = (
{
place = "{127, 99}";
},
{
horizontal = 1;
place = "{0, 21}";
target = up;
type = BottomGhost;
},
{
horizontal = 1;
place = "{718, -20}";
target = down;
type = TopGhost;
}
);
layerId = UUID0;
paths = (
{
closed = 1;
nodes = (
"297 0 LINE",
"308 32 LINE",
"287 38 LINE SMOOTH",
"239 52 OFFCURVE",
"226 67 OFFCURVE",
"226 126 CURVE SMOOTH",
"226 517 LINE SMOOTH",
"226 598 OFFCURVE",
"238 640 OFFCURVE",
"271 684 CURVE SMOOTH",
"284 702 LINE",
"271 718 LINE",
"52 718 LINE",
"40 684 LINE",
"63 678 LINE SMOOTH",
"113 663 OFFCURVE",
"127 647 OFFCURVE",
"127 585 CURVE SMOOTH",
"127 133 LINE SMOOTH",
"127 71 OFFCURVE",
"113 55 OFFCURVE",
"63 40 CURVE SMOOTH",
"40 34 LINE",
"52 0 LINE"
);
}
);
width = 353;
}
);
unicode = 0406;
},
{
color = 2;
glyphname = uni040B;
lastChange = "2016-09-22 13:09:51 +0000";
layers = (
{
hints = (
{
place = "{248, 99}";
},
{
place = "{619, 90}";
},
{
horizontal = 1;
place = "{384, 73}";
},
{
horizontal = 1;
place = "{661, 57}";
},
{
horizontal = 1;
place = "{-15, 21}";
target = up;
type = BottomGhost;
},
{
horizontal = 1;
place = "{752, -20}";
target = down;
type = TopGhost;
}
);
layerId = UUID0;
paths = (
{
closed = 1;
nodes = (
"347 315 LINE",
"382 349 OFFCURVE",
"421 384 OFFCURVE",
"502 384 CURVE SMOOTH",
"580 384 OFFCURVE",
"619 352 OFFCURVE",
"619 273 CURVE SMOOTH",
"619 -15 LINE",
"739 -1 LINE",
"752 16 LINE",
"739 33 LINE SMOOTH",
"715 64 OFFCURVE",
"709 93 OFFCURVE",
"709 174 CURVE SMOOTH",
"709 299 LINE SMOOTH",
"709 405 OFFCURVE",
"650 457 OFFCURVE",
"542 457 CURVE SMOOTH",
"454 457 OFFCURVE",
"402 425 OFFCURVE",
"347 386 CURVE",
"347 585 LINE SMOOTH",
"347 647 OFFCURVE",
"353 661 OFFCURVE",
"381 661 CURVE SMOOTH",
"426 661 LINE SMOOTH",
"497 661 OFFCURVE",
"516 643 OFFCURVE",
"535 572 CURVE SMOOTH",
"541 549 LINE",
"575 561 LINE",
"575 739 LINE",
"559 752 LINE",
"541 739 LINE SMOOTH",
"521 724 OFFCURVE",
"485 718 OFFCURVE",
"427 718 CURVE SMOOTH",
"168 718 LINE SMOOTH",
"110 718 OFFCURVE",
"74 724 OFFCURVE",
"54 739 CURVE SMOOTH",
"36 752 LINE",
"20 739 LINE",
"20 561 LINE",
"54 549 LINE",
"60 572 LINE SMOOTH",
"79 643 OFFCURVE",
"98 661 OFFCURVE",
"169 661 CURVE SMOOTH",
"214 661 LINE SMOOTH",
"242 661 OFFCURVE",
"248 647 OFFCURVE",
"248 585 CURVE SMOOTH",
"248 201 LINE SMOOTH",
"248 120 OFFCURVE",
"236 78 OFFCURVE",
"203 34 CURVE SMOOTH",
"190 16 LINE",
"203 0 LINE",
"422 0 LINE",
"434 34 LINE",
"411 40 LINE SMOOTH",
"361 55 OFFCURVE",
"347 71 OFFCURVE",
"347 133 CURVE SMOOTH"
);
}
);
width = 789;
}
);
leftKerningGroup = uni0422;
unicode = 040B;
},
{
color = 0;
glyphname = uni042E;
lastChange = "2016-09-22 13:09:51 +0000";
layers = (
{
hints = (
{
place = "{127, 99}";
},
{
place = "{375, 107}";
},
{
place = "{898, 109}";
},
{
horizontal = 1;
place = "{-14, 59}";
},
{
horizontal = 1;
place = "{334, 61}";
},
{
horizontal = 1;
place = "{674, 57}";
}
);
layerId = UUID0;
paths = (
{
closed = 1;
nodes = (
"297 0 LINE",
"308 32 LINE",
"287 38 LINE SMOOTH",
"239 52 OFFCURVE",
"226 67 OFFCURVE",
"226 126 CURVE SMOOTH",
"226 334 LINE",
"374 334 LINE",
"382 139 OFFCURVE",
"484 -14 OFFCURVE",
"690 -14 CURVE SMOOTH",
"903 -14 OFFCURVE",
"1007 152 OFFCURVE",
"1007 358 CURVE SMOOTH",
"1007 564 OFFCURVE",
"903 731 OFFCURVE",
"690 731 CURVE SMOOTH",
"489 731 OFFCURVE",
"386 583 OFFCURVE",
"375 395 CURVE",
"226 395 LINE",
"226 517 LINE SMOOTH",
"226 598 OFFCURVE",
"238 640 OFFCURVE",
"271 684 CURVE SMOOTH",
"284 702 LINE",
"271 718 LINE",
"52 718 LINE",
"40 684 LINE",
"63 678 LINE SMOOTH",
"113 663 OFFCURVE",
"127 647 OFFCURVE",
"127 585 CURVE SMOOTH",
"127 133 LINE SMOOTH",
"127 71 OFFCURVE",
"113 55 OFFCURVE",
"63 40 CURVE SMOOTH",
"40 34 LINE",
"52 0 LINE"
);
},
{
closed = 1;
nodes = (
"898 183 OFFCURVE",
"821 45 OFFCURVE",
"686 45 CURVE SMOOTH",
"551 45 OFFCURVE",
"482 180 OFFCURVE",
"482 350 CURVE SMOOTH",
"482 527 OFFCURVE",
"558 674 OFFCURVE",
"695 674 CURVE SMOOTH",
"853 674 OFFCURVE",
"898 480 OFFCURVE",
"898 355 CURVE SMOOTH"
);
}
);
width = 1042;
}
);
rightKerningGroup = uni0417;
unicode = 042E;
},
{
color = 0;
glyphname = uni042F;
lastChange = "2016-09-22 13:09:51 +0000";
layers = (
{
hints = (
{
place = "{83, 104}";
},
{
place = "{425, 99}";
},
{
horizontal = 1;
place = "{-14, 55}";
},
{
horizontal = 1;
place = "{675, 56}";
}
);
layerId = UUID0;
paths = (
{
closed = 1;
nodes = (
"-6 26 LINE",
"23 -2 OFFCURVE",
"55 -14 OFFCURVE",
"86 -14 CURVE SMOOTH",
"156 -14 OFFCURVE",
"183 31 OFFCURVE",
"224 103 CURVE SMOOTH",
"316 264 LINE SMOOTH",
"331 290 OFFCURVE",
"346 300 OFFCURVE",
"384 314 CURVE SMOOTH",
"400 320 OFFCURVE",
"403 329 OFFCURVE",
"403 337 CURVE SMOOTH",
"403 349 OFFCURVE",
"398 361 OFFCURVE",
"387 361 CURVE SMOOTH",
"379 361 OFFCURVE",
"368 354 OFFCURVE",
"338 354 CURVE SMOOTH",
"241 354 OFFCURVE",
"187 417 OFFCURVE",
"187 510 CURVE SMOOTH",
"187 603 OFFCURVE",
"242 675 OFFCURVE",
"349 675 CURVE SMOOTH",
"417 675 OFFCURVE",
"425 647 OFFCURVE",
"425 629 CURVE SMOOTH",
"425 201 LINE SMOOTH",
"425 119 OFFCURVE",
"412 78 OFFCURVE",
"380 34 CURVE SMOOTH",
"367 16 LINE",
"380 0 LINE",
"599 0 LINE",
"611 34 LINE",
"588 40 LINE SMOOTH",
"538 53 OFFCURVE",
"524 72 OFFCURVE",
"524 133 CURVE SMOOTH",
"524 626 LINE SMOOTH",
"524 644 OFFCURVE",
"531 650 OFFCURVE",
"546 650 CURVE SMOOTH",
"604 650 LINE",
"616 687 LINE",
"565 707 OFFCURVE",
"461 731 OFFCURVE",
"367 731 CURVE SMOOTH",
"165 731 OFFCURVE",
"83 633 OFFCURVE",
"83 513 CURVE SMOOTH",
"83 419 OFFCURVE",
"131 336 OFFCURVE",
"237 310 CURVE",
"219 298 OFFCURVE",
"209 282 OFFCURVE",
"197 261 CURVE SMOOTH",
"88 72 LINE SMOOTH",
"79 56 OFFCURVE",
"68 41 OFFCURVE",
"50 41 CURVE SMOOTH",
"37 41 OFFCURVE",
"26 45 OFFCURVE",
"11 55 CURVE"
);
}
);
width = 656;
}
);
unicode = 042F;
},
{
color = 2;
glyphname = uni0402;
lastChange = "2016-09-22 13:09:51 +0000";
layers = (
{
hints = (
{
place = "{248, 99}";
},
{
place = "{619, 90}";
},
{
horizontal = 1;
place = "{-14, 64}";
},
{
horizontal = 1;
place = "{384, 73}";
},
{
horizontal = 1;
place = "{661, 57}";
},
{
horizontal = 1;
place = "{-14, 80}";
},
{
horizontal = 1;
place = "{752, -20}";
target = down;
type = TopGhost;
}
);
layerId = UUID0;
paths = (
{
closed = 1;
nodes = (
"709 299 LINE SMOOTH",
"709 405 OFFCURVE",
"650 457 OFFCURVE",
"542 457 CURVE SMOOTH",
"454 457 OFFCURVE",
"402 425 OFFCURVE",
"347 386 CURVE",
"347 585 LINE SMOOTH",
"347 647 OFFCURVE",
"353 661 OFFCURVE",
"381 661 CURVE SMOOTH",
"426 661 LINE SMOOTH",
"497 661 OFFCURVE",
"516 643 OFFCURVE",
"535 572 CURVE SMOOTH",
"541 549 LINE",
"575 561 LINE",
"575 739 LINE",
"559 752 LINE",
"541 739 LINE SMOOTH",
"521 724 OFFCURVE",
"485 718 OFFCURVE",
"427 718 CURVE SMOOTH",
"168 718 LINE SMOOTH",
"110 718 OFFCURVE",
"74 724 OFFCURVE",
"54 739 CURVE SMOOTH",
"36 752 LINE",
"20 739 LINE",
"20 561 LINE",
"54 549 LINE",
"60 572 LINE SMOOTH",
"79 643 OFFCURVE",
"98 661 OFFCURVE",
"169 661 CURVE SMOOTH",
"214 661 LINE SMOOTH",
"242 661 OFFCURVE",
"248 647 OFFCURVE",
"248 585 CURVE SMOOTH",
"248 201 LINE SMOOTH",
"248 120 OFFCURVE",
"236 78 OFFCURVE",
"203 34 CURVE SMOOTH",
"190 16 LINE",
"203 0 LINE",
"422 0 LINE",
"434 34 LINE",
"411 40 LINE SMOOTH",
"361 55 OFFCURVE",
"347 71 OFFCURVE",
"347 133 CURVE SMOOTH",
"347 315 LINE",
"382 349 OFFCURVE",
"421 384 OFFCURVE",
"502 384 CURVE SMOOTH",
"580 384 OFFCURVE",
"619 352 OFFCURVE",
"619 273 CURVE SMOOTH",
"619 139 LINE SMOOTH",
"619 70 OFFCURVE",
"594 50 OFFCURVE",
"564 50 CURVE SMOOTH",
"530 50 OFFCURVE",
"521 66 OFFCURVE",
"511 66 CURVE SMOOTH",
"503 66 OFFCURVE",
"498 60 OFFCURVE",
"498 45 CURVE SMOOTH",
"498 17 OFFCURVE",
"525 -14 OFFCURVE",
"586 -14 CURVE SMOOTH",
"661 -14 OFFCURVE",
"709 35 OFFCURVE",
"709 159 CURVE SMOOTH"
);
}
);
width = 789;
}
);
leftKerningGroup = uni0422;
unicode = 0402;
},
{
color = (187,255,0,1);
glyphname = uni0430;
lastChange = "2016-09-22 13:09:51 +0000";
layers = (
{
hints = (
{
place = "{45, 105}";
},
{
place = "{401, 89}";
},
{
horizontal = 1;
place = "{-14, 77}";
},
{
horizontal = 1;
place = "{455, 55}";
}
);
layerId = UUID0;
paths = (
{
closed = 1;
nodes = (
"401 17 OFFCURVE",
"423 -14 OFFCURVE",
"478 -14 CURVE SMOOTH",
"512 -14 OFFCURVE",
"554 10 OFFCURVE",
"589 49 CURVE",
"570 75 LINE",
"553 63 OFFCURVE",
"535 57 OFFCURVE",
"520 57 CURVE SMOOTH",
"501 57 OFFCURVE",
"490 67 OFFCURVE",
"490 88 CURVE SMOOTH",
"490 415 LINE SMOOTH",
"490 432 OFFCURVE",
"495 442 OFFCURVE",
"503 454 CURVE SMOOTH",
"515 472 LINE",
"504 485 LINE",
"436 490 OFFCURVE",
"366 510 OFFCURVE",
"304 510 CURVE SMOOTH",
"145 510 OFFCURVE",
"45 402 OFFCURVE",
"45 229 CURVE SMOOTH",
"45 67 OFFCURVE",
"130 -14 OFFCURVE",
"224 -14 CURVE SMOOTH",
"286 -14 OFFCURVE",
"343 11 OFFCURVE",
"401 92 CURVE"
);
},
{
closed = 1;
nodes = (
"150 379 OFFCURVE",
"206 455 OFFCURVE",
"303 455 CURVE SMOOTH",
"336 455 OFFCURVE",
"370 445 OFFCURVE",
"401 424 CURVE",
"401 154 LINE",
"364 91 OFFCURVE",
"315 63 OFFCURVE",
"264 63 CURVE SMOOTH",
"205 63 OFFCURVE",
"150 112 OFFCURVE",
"150 248 CURVE SMOOTH"
);
}
);
width = 604;
}
);
leftKerningGroup = uni0454;
unicode = 0430;
},
{
color = 0;
glyphname = uni0431;
lastChange = "2016-09-22 13:09:51 +0000";
layers = (
{
hints = (
{
place = "{35, 104}";
},
{
place = "{428, 105}";
},
{
horizontal = 1;
place = "{-14, 54}";
},
{
horizontal = 1;
place = "{446, 52}";
},
{
horizontal = 1;
place = "{671, 55}";
},
{
horizontal = 1;
place = "{787, -20}";
target = down;
type = TopGhost;
}
);
layerId = UUID0;
paths = (
{
closed = 1;
nodes = (
"133 411 LINE",
"149 535 OFFCURVE",
"177 625 OFFCURVE",
"226 658 CURVE SMOOTH",
"240 668 OFFCURVE",
"255 671 OFFCURVE",
"271 671 CURVE SMOOTH",
"320 671 OFFCURVE",
"380 638 OFFCURVE",
"444 638 CURVE SMOOTH",
"501 638 OFFCURVE",
"542 664 OFFCURVE",
"542 727 CURVE SMOOTH",
"542 754 OFFCURVE",
"525 787 OFFCURVE",
"514 787 CURVE SMOOTH",
"500 787 OFFCURVE",
"500 754 OFFCURVE",
"473 736 CURVE SMOOTH",
"461 728 OFFCURVE",
"441 726 OFFCURVE",
"417 726 CURVE SMOOTH",
"394 726 OFFCURVE",
"367 728 OFFCURVE",
"339 728 CURVE SMOOTH",
"287 728 OFFCURVE",
"229 722 OFFCURVE",
"179 689 CURVE SMOOTH",
"98 636 OFFCURVE",
"35 511 OFFCURVE",
"35 308 CURVE SMOOTH",
"35 110 OFFCURVE",
"136 -14 OFFCURVE",
"294 -14 CURVE SMOOTH",
"446 -14 OFFCURVE",
"533 100 OFFCURVE",
"533 249 CURVE SMOOTH",
"533 416 OFFCURVE",
"420 498 OFFCURVE",
"306 498 CURVE SMOOTH",
"236 498 OFFCURVE",
"178 467 OFFCURVE",
"141 411 CURVE"
);
},
{
closed = 1;
nodes = (
"186 40 OFFCURVE",
"139 131 OFFCURVE",
"139 247 CURVE SMOOTH",
"139 372 OFFCURVE",
"193 446 OFFCURVE",
"279 446 CURVE SMOOTH",
"386 446 OFFCURVE",
"428 333 OFFCURVE",
"428 244 CURVE SMOOTH",
"428 134 OFFCURVE",
"372 40 OFFCURVE",
"278 40 CURVE SMOOTH"
);
}
);
width = 582;
}
);
leftKerningGroup = uni0421;
unicode = 0431;
},
{
color = (0,159,255,1);
glyphname = uni0432;
lastChange = "2016-09-22 13:09:51 +0000";
layers = (
{
hints = (
{
place = "{120, 90}";
},
{
place = "{418, 97}";
},
{
place = "{446, 69}";
},
{
place = "{446, 104}";
},
{
horizontal = 1;
place = "{0, 49}";
},
{
horizontal = 1;
place = "{229, 42}";
},
{
horizontal = 1;
place = "{435, 75}";
},
{
horizontal = 1;
place = "{458, 52}";
}
);
layerId = UUID0;
paths = (
{
closed = 1;
nodes = (
"51 0 LINE",
"40 32 LINE",
"61 37 LINE SMOOTH",
"108 48 OFFCURVE",
"120 66 OFFCURVE",
"120 123 CURVE SMOOTH",
"120 413 LINE SMOOTH",
"120 430 OFFCURVE",
"113 435 OFFCURVE",
"100 435 CURVE SMOOTH",
"46 435 LINE",
"35 469 LINE",
"85 488 OFFCURVE",
"187 510 OFFCURVE",
"277 510 CURVE SMOOTH",
"444 510 OFFCURVE",
"515 457 OFFCURVE",
"515 372 CURVE SMOOTH",
"515 323 OFFCURVE",
"490 283 OFFCURVE",
"446 258 CURVE",
"512 239 OFFCURVE",
"550 199 OFFCURVE",
"550 140 CURVE SMOOTH",
"550 42 OFFCURVE",
"469 0 OFFCURVE",
"322 0 CURVE SMOOTH"
);
},
{
closed = 1;
nodes = (
"319 229 LINE",
"279 229 OFFCURVE",
"245 241 OFFCURVE",
"245 261 CURVE SMOOTH",
"245 270 OFFCURVE",
"249 278 OFFCURVE",
"258 278 CURVE SMOOTH",
"265 278 OFFCURVE",
"276 271 OFFCURVE",
"304 271 CURVE SMOOTH",
"376 271 OFFCURVE",
"418 307 OFFCURVE",
"418 365 CURVE SMOOTH",
"418 421 OFFCURVE",
"377 458 OFFCURVE",
"287 458 CURVE SMOOTH",
"219 458 OFFCURVE",
"210 432 OFFCURVE",
"210 416 CURVE SMOOTH",
"210 169 LINE SMOOTH",
"210 54 OFFCURVE",
"284 49 OFFCURVE",
"324 49 CURVE SMOOTH",
"383 49 OFFCURVE",
"446 76 OFFCURVE",
"446 144 CURVE SMOOTH",
"446 198 OFFCURVE",
"399 226 OFFCURVE",
"328 229 CURVE SMOOTH"
);
}
);
width = 615;
}
);
leftKerningGroup = uni0456;
unicode = 0432;
},
{
color = (0,159,255,1);
glyphname = uni0433;
lastChange = "2016-09-22 13:09:51 +0000";
layers = (
{
hints = (
{
place = "{103, 90}";
},
{
horizontal = 1;
place = "{439, 53}";
},
{
horizontal = 1;
place = "{0, 21}";
target = up;
type = BottomGhost;
},
{
horizontal = 1;
place = "{523, -20}";
target = down;
type = TopGhost;
}
);
layerId = UUID0;
paths = (
{
closed = 1;
nodes = (
"62 492 LINE",
"50 477 LINE",
"62 460 LINE SMOOTH",
"92 420 OFFCURVE",
"103 381 OFFCURVE",
"103 307 CURVE SMOOTH",
"103 175 LINE SMOOTH",
"103 100 OFFCURVE",
"92 72 OFFCURVE",
"62 31 CURVE SMOOTH",
"50 15 LINE",
"62 0 LINE",
"262 0 LINE",
"273 31 LINE",
"252 37 LINE SMOOTH",
"206 51 OFFCURVE",
"193 65 OFFCURVE",
"193 122 CURVE SMOOTH",
"193 369 LINE SMOOTH",
"193 426 OFFCURVE",
"204 439 OFFCURVE",
"252 439 CURVE SMOOTH",
"263 439 LINE SMOOTH",
"328 439 OFFCURVE",
"346 423 OFFCURVE",
"363 357 CURVE SMOOTH",
"369 336 LINE",
"400 347 LINE",
"400 511 LINE",
"385 523 LINE",
"369 511 LINE SMOOTH",
"350 497 OFFCURVE",
"317 492 OFFCURVE",
"264 492 CURVE SMOOTH"
);
}
);
width = 420;
}
);
leftKerningGroup = uni0456;
unicode = 0433;
},
{
color = (0,159,255,1);
glyphname = uni0491;
lastChange = "2016-09-22 13:09:51 +0000";
layers = (
{
hints = (
{
place = "{103, 90}";
},
{
horizontal = 1;
place = "{439, 53}";
},
{
horizontal = 1;
place = "{0, 21}";
target = up;
type = BottomGhost;
},
{
horizontal = 1;
place = "{662, -20}";
target = down;
type = TopGhost;
}
);
layerId = UUID0;
paths = (
{
closed = 1;
nodes = (
"62 492 LINE",
"50 477 LINE",
"62 460 LINE SMOOTH",
"92 420 OFFCURVE",
"103 381 OFFCURVE",
"103 307 CURVE SMOOTH",
"103 175 LINE SMOOTH",
"103 100 OFFCURVE",
"92 72 OFFCURVE",
"62 31 CURVE SMOOTH",
"50 15 LINE",
"62 0 LINE",
"262 0 LINE",
"273 31 LINE",
"252 37 LINE SMOOTH",
"206 51 OFFCURVE",
"193 65 OFFCURVE",
"193 122 CURVE SMOOTH",
"193 369 LINE SMOOTH",
"193 426 OFFCURVE",
"204 439 OFFCURVE",
"252 439 CURVE SMOOTH",
"289 439 LINE SMOOTH",
"314 439 OFFCURVE",
"343 436 OFFCURVE",
"368 419 CURVE SMOOTH",
"385 407 LINE",
"400 419 LINE",
"400 651 LINE",
"368 662 LINE",
"362 640 LINE SMOOTH",
"335 540 OFFCURVE",
"307 492 OFFCURVE",
"220 492 CURVE SMOOTH"
);
}
);
width = 420;
}
);
leftKerningGroup = uni0456;
unicode = 0491;
},
{
color = (0,159,255,1);
glyphname = uni0434;
lastChange = "2016-09-22 13:09:51 +0000";
layers = (
{
hints = (
{
place = "{142, 73}";
},
{
place = "{380, 91}";
},
{
horizontal = 1;
place = "{0, 52}";
},
{
horizontal = 1;
place = "{442, 55}";
},
{
horizontal = 1;
place = "{-180, 21}";
target = up;
type = BottomGhost;
}
);
layerId = UUID0;
paths = (
{
closed = 1;
nodes = (
"471 312 LINE SMOOTH",
"471 387 OFFCURVE",
"482 425 OFFCURVE",
"512 466 CURVE SMOOTH",
"524 482 LINE",
"512 497 LINE",
"91 497 LINE",
"80 466 LINE",
"101 460 LINE SMOOTH",
"137 451 OFFCURVE",
"142 445 OFFCURVE",
"142 384 CURVE SMOOTH",
"142 180 OFFCURVE",
"130 54 OFFCURVE",
"0 39 CURVE",
"0 -168 LINE",
"31 -179 LINE",
"37 -158 LINE SMOOTH",
"67 -51 OFFCURVE",
"91 0 OFFCURVE",
"174 0 CURVE SMOOTH",
"387 0 LINE SMOOTH",
"470 0 OFFCURVE",
"499 -51 OFFCURVE",
"525 -159 CURVE SMOOTH",
"530 -180 LINE",
"561 -169 LINE",
"561 39 LINE",
"512 39 OFFCURVE",
"471 56 OFFCURVE",
"471 97 CURVE SMOOTH"
);
},
{
closed = 1;
nodes = (
"127 52 LINE",
"187 88 OFFCURVE",
"215 200 OFFCURVE",
"215 405 CURVE SMOOTH",
"215 436 OFFCURVE",
"239 442 OFFCURVE",
"272 442 CURVE SMOOTH",
"321 442 LINE SMOOTH",
"369 442 OFFCURVE",
"380 429 OFFCURVE",
"380 372 CURVE SMOOTH",
"380 122 LINE SMOOTH",
"380 65 OFFCURVE",
"369 52 OFFCURVE",
"321 52 CURVE SMOOTH"
);
}
);
width = 571;
}
);
leftKerningGroup = uni0456;
unicode = 0434;
},
{
color = (187,255,0,1);
glyphname = uni0435;
lastChange = "2016-09-22 13:09:51 +0000";
layers = (
{
hints = (
{
place = "{35, 103}";
},
{
place = "{384, 95}";
},
{
horizontal = 1;
place = "{-14, 66}";
},
{
horizontal = 1;
place = "{194, 56}";
},
{
horizontal = 1;
place = "{460, 50}";
}
);
layerId = UUID0;
paths = (
{
closed = 1;
nodes = (
"480 77 OFFCURVE",
"482 80 OFFCURVE",
"482 84 CURVE SMOOTH",
"482 97 OFFCURVE",
"467 113 OFFCURVE",
"456 113 CURVE SMOOTH",
"451 113 OFFCURVE",
"449 111 OFFCURVE",
"447 109 CURVE SMOOTH",
"405 70 OFFCURVE",
"352 52 OFFCURVE",
"294 52 CURVE SMOOTH",
"192 52 OFFCURVE",
"138 125 OFFCURVE",
"138 242 CURVE SMOOTH",
"138 383 OFFCURVE",
"204 460 OFFCURVE",
"289 460 CURVE SMOOTH",
"352 460 OFFCURVE",
"384 413 OFFCURVE",
"384 364 CURVE SMOOTH",
"384 307 OFFCURVE",
"342 250 OFFCURVE",
"257 250 CURVE SMOOTH",
"216 250 OFFCURVE",
"203 263 OFFCURVE",
"193 263 CURVE SMOOTH",
"185 263 OFFCURVE",
"178 252 OFFCURVE",
"178 241 CURVE SMOOTH",
"178 206 OFFCURVE",
"260 194 OFFCURVE",
"288 194 CURVE SMOOTH",
"413 194 OFFCURVE",
"479 281 OFFCURVE",
"479 363 CURVE SMOOTH",
"479 438 OFFCURVE",
"424 510 OFFCURVE",
"309 510 CURVE SMOOTH",
"149 510 OFFCURVE",
"35 403 OFFCURVE",
"35 242 CURVE SMOOTH",
"35 88 OFFCURVE",
"128 -14 OFFCURVE",
"273 -14 CURVE SMOOTH",
"355 -14 OFFCURVE",
"426 17 OFFCURVE",
"478 75 CURVE SMOOTH"
);
}
);
width = 527;
}
);
leftKerningGroup = uni0454;
unicode = 0435;
},
{
color = (0,159,255,1);
glyphname = uni0436;
lastChange = "2016-09-22 13:09:51 +0000";
layers = (
{
hints = (
{
place = "{354, 90}";
},
{
horizontal = 1;
place = "{-14, 51}";
},
{
horizontal = 1;
place = "{497, -20}";
target = down;
type = TopGhost;
}
);
layerId = UUID0;
paths = (
{
closed = 1;
nodes = (
"490 0 LINE",
"500 29 LINE",
"481 35 LINE SMOOTH",
"450 45 OFFCURVE",
"444 60 OFFCURVE",
"444 116 CURVE SMOOTH",
"444 312 LINE SMOOTH",
"444 388 OFFCURVE",
"456 425 OFFCURVE",
"485 466 CURVE SMOOTH",
"497 483 LINE",
"485 497 LINE",
"285 497 LINE",
"274 466 LINE",
"295 460 LINE SMOOTH",
"341 447 OFFCURVE",
"354 432 OFFCURVE",
"354 375 CURVE SMOOTH",
"354 122 LINE SMOOTH",
"354 65 OFFCURVE",
"341 50 OFFCURVE",
"295 37 CURVE SMOOTH",
"274 31 LINE",
"285 0 LINE"
);
},
{
closed = 1;
nodes = (
"634 190 LINE SMOOTH",
"617 221 OFFCURVE",
"595 240 OFFCURVE",
"571 251 CURVE",
"677 410 LINE SMOOTH",
"698 442 OFFCURVE",
"722 453 OFFCURVE",
"749 460 CURVE SMOOTH",
"770 465 LINE",
"759 497 LINE",
"597 497 LINE",
"580 482 LINE",
"588 465 LINE SMOOTH",
"593 455 OFFCURVE",
"600 439 OFFCURVE",
"600 424 CURVE SMOOTH",
"600 409 OFFCURVE",
"598 397 OFFCURVE",
"581 373 CURVE SMOOTH",
"506 265 LINE",
"499 266 OFFCURVE",
"493 266 OFFCURVE",
"487 266 CURVE SMOOTH",
"472 266 OFFCURVE",
"469 256 OFFCURVE",
"469 249 CURVE SMOOTH",
"469 222 OFFCURVE",
"516 228 OFFCURVE",
"542 178 CURVE SMOOTH",
"580 104 LINE SMOOTH",
"622 20 OFFCURVE",
"645 -14 OFFCURVE",
"703 -14 CURVE SMOOTH",
"732 -14 OFFCURVE",
"761 -3 OFFCURVE",
"788 23 CURVE",
"772 50 LINE",
"759 41 OFFCURVE",
"748 37 OFFCURVE",
"736 37 CURVE SMOOTH",
"720 37 OFFCURVE",
"710 48 OFFCURVE",
"701 65 CURVE SMOOTH"
);
},
{
closed = 1;
nodes = (
"217 373 LINE SMOOTH",
"200 397 OFFCURVE",
"198 409 OFFCURVE",
"198 424 CURVE SMOOTH",
"198 439 OFFCURVE",
"205 455 OFFCURVE",
"210 465 CURVE SMOOTH",
"218 482 LINE",
"201 497 LINE",
"39 497 LINE",
"28 465 LINE",
"49 460 LINE SMOOTH",
"76 453 OFFCURVE",
"100 442 OFFCURVE",
"121 410 CURVE SMOOTH",
"227 251 LINE",
"203 240 OFFCURVE",
"181 221 OFFCURVE",
"164 190 CURVE SMOOTH",
"97 65 LINE SMOOTH",
"88 48 OFFCURVE",
"78 37 OFFCURVE",
"62 37 CURVE SMOOTH",
"50 37 OFFCURVE",
"39 41 OFFCURVE",
"26 50 CURVE",
"10 23 LINE",
"37 -3 OFFCURVE",
"66 -14 OFFCURVE",
"95 -14 CURVE SMOOTH",
"153 -14 OFFCURVE",
"176 20 OFFCURVE",
"218 104 CURVE SMOOTH",
"256 178 LINE SMOOTH",
"282 228 OFFCURVE",
"329 222 OFFCURVE",
"329 249 CURVE SMOOTH",
"329 256 OFFCURVE",
"326 266 OFFCURVE",
"311 266 CURVE SMOOTH",
"305 266 OFFCURVE",
"298 266 OFFCURVE",
"292 265 CURVE"
);
}
);
width = 798;
}
);
leftKerningGroup = uni0456;
unicode = 0436;
},
{
color = (0,159,255,1);
glyphname = uni0437;
lastChange = "2016-09-22 13:09:51 +0000";
layers = (
{
hints = (
{
place = "{55, 86}";
},
{
place = "{344, 97}";
},
{
place = "{365, 76}";
},
{
place = "{365, 97}";
},
{
horizontal = 1;
place = "{-14, 54}";
},
{
horizontal = 1;
place = "{457, 40}";
},
{
horizontal = 1;
place = "{457, 53}";
},
{
horizontal = 1;
place = "{519, -20}";
target = down;
type = TopGhost;
}
);
layerId = UUID0;
paths = (
{
closed = 1;
nodes = (
"190 40 OFFCURVE",
"141 67 OFFCURVE",
"141 116 CURVE SMOOTH",
"141 150 OFFCURVE",
"151 160 OFFCURVE",
"151 171 CURVE SMOOTH",
"151 180 OFFCURVE",
"140 183 OFFCURVE",
"129 183 CURVE SMOOTH",
"87 183 OFFCURVE",
"55 153 OFFCURVE",
"55 112 CURVE SMOOTH",
"55 29 OFFCURVE",
"147 -14 OFFCURVE",
"247 -14 CURVE SMOOTH",
"390 -14 OFFCURVE",
"462 61 OFFCURVE",
"462 135 CURVE SMOOTH",
"462 188 OFFCURVE",
"425 240 OFFCURVE",
"352 265 CURVE",
"406 288 OFFCURVE",
"441 329 OFFCURVE",
"441 387 CURVE SMOOTH",
"441 463 OFFCURVE",
"384 510 OFFCURVE",
"252 510 CURVE SMOOTH",
"206 510 OFFCURVE",
"175 497 OFFCURVE",
"150 497 CURVE SMOOTH",
"137 497 OFFCURVE",
"126 499 OFFCURVE",
"115 507 CURVE SMOOTH",
"99 519 LINE",
"84 507 LINE",
"84 343 LINE",
"115 332 LINE",
"121 353 LINE SMOOTH",
"143 430 OFFCURVE",
"192 457 OFFCURVE",
"251 457 CURVE SMOOTH",
"315 457 OFFCURVE",
"344 421 OFFCURVE",
"344 380 CURVE SMOOTH",
"344 331 OFFCURVE",
"305 299 OFFCURVE",
"254 287 CURVE SMOOTH",
"219 279 OFFCURVE",
"201 275 OFFCURVE",
"201 259 CURVE SMOOTH",
"201 250 OFFCURVE",
"204 242 OFFCURVE",
"222 242 CURVE SMOOTH",
"231 242 LINE SMOOTH",
"312 240 OFFCURVE",
"365 207 OFFCURVE",
"365 144 CURVE SMOOTH",
"365 70 OFFCURVE",
"302 40 OFFCURVE",
"247 40 CURVE SMOOTH"
);
}
);
width = 502;
}
);
leftKerningGroup = uni0456;
unicode = 0437;
},
{
color = (0,159,255,1);
glyphname = uni0438;
lastChange = "2016-09-22 13:09:51 +0000";
layers = (
{
hints = (
{
place = "{115, 91}";
},
{
place = "{452, 91}";
},
{
horizontal = 1;
place = "{0, 21}";
target = up;
type = BottomGhost;
},
{
horizontal = 1;
place = "{497, -20}";
target = down;
type = TopGhost;
}
);
layerId = UUID0;
paths = (
{
closed = 1;
nodes = (
"452 122 LINE SMOOTH",
"452 65 OFFCURVE",
"439 50 OFFCURVE",
"393 37 CURVE SMOOTH",
"372 31 LINE",
"383 0 LINE",
"608 0 LINE",
"618 29 LINE",
"599 35 LINE SMOOTH",
"555 49 OFFCURVE",
"543 60 OFFCURVE",
"543 116 CURVE SMOOTH",
"543 312 LINE SMOOTH",
"543 389 OFFCURVE",
"554 424 OFFCURVE",
"584 466 CURVE SMOOTH",
"596 483 LINE",
"584 497 LINE",
"383 497 LINE",
"372 466 LINE",
"393 460 LINE SMOOTH",
"422 451 OFFCURVE",
"438 442 OFFCURVE",
"446 421 CURVE",
"206 150 LINE",
"206 312 LINE SMOOTH",
"206 389 OFFCURVE",
"217 424 OFFCURVE",
"247 466 CURVE SMOOTH",
"259 483 LINE",
"247 497 LINE",
"46 497 LINE",
"35 466 LINE",
"56 460 LINE SMOOTH",
"102 447 OFFCURVE",
"115 432 OFFCURVE",
"115 375 CURVE SMOOTH",
"115 122 LINE SMOOTH",
"115 65 OFFCURVE",
"102 50 OFFCURVE",
"56 37 CURVE SMOOTH",
"35 31 LINE",
"46 0 LINE",
"271 0 LINE",
"281 29 LINE",
"262 35 LINE SMOOTH",
"232 44 OFFCURVE",
"217 52 OFFCURVE",
"210 74 CURVE",
"452 345 LINE"
);
}
);
width = 663;
}
);
leftKerningGroup = uni0456;
unicode = 0438;
},
{
color = (0,159,255,1);
glyphname = uni043A;
lastChange = "2016-09-22 13:09:51 +0000";
layers = (
{
hints = (
{
place = "{110, 90}";
},
{
horizontal = 1;
place = "{-14, 51}";
},
{
horizontal = 1;
place = "{497, -20}";
target = down;
type = TopGhost;
}
);
layerId = UUID0;
paths = (
{
closed = 1;
nodes = (
"265 0 LINE",
"275 29 LINE",
"256 35 LINE SMOOTH",
"212 49 OFFCURVE",
"200 60 OFFCURVE",
"200 116 CURVE SMOOTH",
"200 312 LINE SMOOTH",
"200 388 OFFCURVE",
"212 425 OFFCURVE",
"241 466 CURVE SMOOTH",
"253 483 LINE",
"241 497 LINE",
"41 497 LINE",
"30 466 LINE",
"51 460 LINE SMOOTH",
"97 447 OFFCURVE",
"110 432 OFFCURVE",
"110 375 CURVE SMOOTH",
"110 122 LINE SMOOTH",
"110 65 OFFCURVE",
"97 50 OFFCURVE",
"51 37 CURVE SMOOTH",
"30 31 LINE",
"41 0 LINE"
);
},
{
closed = 1;
nodes = (
"390 190 LINE",
"375 222 OFFCURVE",
"353 241 OFFCURVE",
"329 252 CURVE",
"443 410 LINE SMOOTH",
"465 440 OFFCURVE",
"488 453 OFFCURVE",
"515 460 CURVE SMOOTH",
"536 465 LINE",
"525 497 LINE",
"363 497 LINE",
"346 482 LINE",
"354 465 LINE SMOOTH",
"359 454 OFFCURVE",
"362 443 OFFCURVE",
"362 431 CURVE SMOOTH",
"362 412 OFFCURVE",
"354 393 OFFCURVE",
"340 373 CURVE SMOOTH",
"262 265 LINE",
"255 266 OFFCURVE",
"249 266 OFFCURVE",
"243 266 CURVE SMOOTH",
"228 266 OFFCURVE",
"225 252 OFFCURVE",
"225 244 CURVE SMOOTH",
"225 239 OFFCURVE",
"226 235 OFFCURVE",
"230 233 CURVE SMOOTH",
"253 223 OFFCURVE",
"263 216 OFFCURVE",
"277 192 CURVE SMOOTH",
"346 76 LINE SMOOTH",
"379 20 OFFCURVE",
"411 -14 OFFCURVE",
"469 -14 CURVE SMOOTH",
"498 -14 OFFCURVE",
"527 -3 OFFCURVE",
"554 23 CURVE",
"538 50 LINE",
"525 41 OFFCURVE",
"514 37 OFFCURVE",
"502 37 CURVE SMOOTH",
"486 37 OFFCURVE",
"477 49 OFFCURVE",
"467 65 CURVE SMOOTH"
);
}
);
width = 564;
}
);
leftKerningGroup = uni0456;
unicode = 043A;
},
{
color = 0;
glyphname = uni043B;
lastChange = "2016-09-22 13:09:51 +0000";
layers = (
{
hints = (
{
place = "{149, 67}";
},
{
place = "{371, 91}";
},
{
horizontal = 1;
place = "{444, 53}";
},
{
horizontal = 1;
place = "{-14, 21}";
target = up;
type = BottomGhost;
}
);
layerId = UUID0;
paths = (
{
closed = 1;
nodes = (
"515 482 LINE",
"503 497 LINE",
"98 497 LINE",
"87 465 LINE",
"108 460 LINE SMOOTH",
"144 451 OFFCURVE",
"149 444 OFFCURVE",
"149 384 CURVE SMOOTH",
"149 215 OFFCURVE",
"137 68 OFFCURVE",
"73 68 CURVE SMOOTH",
"47 68 OFFCURVE",
"41 93 OFFCURVE",
"36 117 CURVE SMOOTH",
"31 138 OFFCURVE",
"28 159 OFFCURVE",
"14 159 CURVE SMOOTH",
"-17 159 OFFCURVE",
"-34 114 OFFCURVE",
"-34 76 CURVE SMOOTH",
"-34 22 OFFCURVE",
"1 -14 OFFCURVE",
"65 -14 CURVE SMOOTH",
"119 -14 OFFCURVE",
"216 8 OFFCURVE",
"216 407 CURVE SMOOTH",
"216 439 OFFCURVE",
"240 444 OFFCURVE",
"273 444 CURVE SMOOTH",
"312 444 LINE SMOOTH",
"360 444 OFFCURVE",
"371 431 OFFCURVE",
"371 374 CURVE SMOOTH",
"371 123 LINE SMOOTH",
"371 65 OFFCURVE",
"358 51 OFFCURVE",
"312 37 CURVE SMOOTH",
"291 31 LINE",
"302 0 LINE",
"527 0 LINE",
"537 30 LINE",
"518 35 LINE SMOOTH",
"474 48 OFFCURVE",
"462 62 OFFCURVE",
"462 116 CURVE SMOOTH",
"462 312 LINE SMOOTH",
"462 386 OFFCURVE",
"473 425 OFFCURVE",
"503 465 CURVE SMOOTH"
);
}
);
width = 581;
}
);
leftKerningGroup = uni0459;
unicode = 043B;
},
{
color = (0,159,255,1);
glyphname = uni043C;
lastChange = "2016-09-22 13:09:51 +0000";
layers = (
{
hints = (
{
place = "{113, 60}";
},
{
place = "{531, 86}";
},
{
horizontal = 1;
place = "{497, -20}";
target = down;
type = TopGhost;
},
{
horizontal = 1;
place = "{0, 21}";
target = up;
type = BottomGhost;
}
);
layerId = UUID0;
paths = (
{
closed = 1;
nodes = (
"622 267 LINE SMOOTH",
"621 281 OFFCURVE",
"617 339 OFFCURVE",
"617 350 CURVE SMOOTH",
"617 402 OFFCURVE",
"627 433 OFFCURVE",
"650 466 CURVE SMOOTH",
"661 483 LINE",
"647 497 LINE",
"515 497 LINE",
"370 191 LINE",
"227 497 LINE",
"60 497 LINE",
"50 466 LINE",
"71 460 LINE SMOOTH",
"111 450 OFFCURVE",
"124 437 OFFCURVE",
"124 394 CURVE SMOOTH",
"124 380 OFFCURVE",
"121 331 OFFCURVE",
"120 323 CURVE SMOOTH",
"107 122 LINE SMOOTH",
"103 65 OFFCURVE",
"89 50 OFFCURVE",
"42 37 CURVE SMOOTH",
"20 31 LINE",
"31 0 LINE",
"204 0 LINE",
"217 14 LINE",
"206 31 LINE SMOOTH",
"183 64 OFFCURVE",
"173 95 OFFCURVE",
"173 147 CURVE SMOOTH",
"173 158 OFFCURVE",
"177 205 OFFCURVE",
"179 237 CURVE SMOOTH",
"189 386 LINE",
"341 66 LINE",
"371 66 LINE",
"522 386 LINE",
"540 137 LINE SMOOTH",
"541 127 OFFCURVE",
"542 111 OFFCURVE",
"542 103 CURVE SMOOTH",
"542 65 OFFCURVE",
"529 48 OFFCURVE",
"489 37 CURVE SMOOTH",
"468 31 LINE",
"479 0 LINE",
"681 0 LINE",
"693 14 LINE",
"651 56 OFFCURVE",
"635 104 OFFCURVE",
"629 178 CURVE SMOOTH"
);
}
);
width = 743;
}
);
leftKerningGroup = uni0456;
unicode = 043C;
},
{
color = (0,159,255,1);
glyphname = uni043D;
lastChange = "2016-09-22 13:09:51 +0000";
layers = (
{
hints = (
{
place = "{115, 90}";
},
{
place = "{445, 90}";
},
{
horizontal = 1;
place = "{221, 57}";
},
{
horizontal = 1;
place = "{0, 21}";
target = up;
type = BottomGhost;
},
{
horizontal = 1;
place = "{497, -20}";
target = down;
type = TopGhost;
}
);
layerId = UUID0;
paths = (
{
closed = 1;
nodes = (
"600 0 LINE",
"610 29 LINE",
"591 35 LINE SMOOTH",
"547 48 OFFCURVE",
"535 61 OFFCURVE",
"535 116 CURVE SMOOTH",
"535 312 LINE SMOOTH",
"535 387 OFFCURVE",
"546 426 OFFCURVE",
"576 466 CURVE SMOOTH",
"588 483 LINE",
"576 497 LINE",
"376 497 LINE",
"365 466 LINE",
"386 460 LINE SMOOTH",
"432 447 OFFCURVE",
"445 432 OFFCURVE",
"445 375 CURVE SMOOTH",
"445 278 LINE",
"205 278 LINE",
"205 312 LINE SMOOTH",
"205 387 OFFCURVE",
"216 426 OFFCURVE",
"246 466 CURVE SMOOTH",
"258 483 LINE",
"246 497 LINE",
"46 497 LINE",
"35 466 LINE",
"56 460 LINE SMOOTH",
"102 447 OFFCURVE",
"115 432 OFFCURVE",
"115 375 CURVE SMOOTH",
"115 122 LINE SMOOTH",
"115 65 OFFCURVE",
"102 50 OFFCURVE",
"56 37 CURVE SMOOTH",
"35 31 LINE",
"46 0 LINE",
"270 0 LINE",
"280 29 LINE",
"261 35 LINE SMOOTH",
"217 48 OFFCURVE",
"205 61 OFFCURVE",
"205 116 CURVE SMOOTH",
"205 221 LINE",
"445 221 LINE",
"445 122 LINE SMOOTH",
"445 65 OFFCURVE",
"432 50 OFFCURVE",
"386 37 CURVE SMOOTH",
"365 31 LINE",
"376 0 LINE"
);
}
);
width = 655;
}
);
leftKerningGroup = uni0456;
unicode = 043D;
},
{
color = (187,255,0,1);
glyphname = uni043E;
lastChange = "2016-09-22 13:09:51 +0000";
layers = (
{
hints = (
{
place = "{35, 104}";
},
{
place = "{448, 105}";
},
{
horizontal = 1;
place = "{-14, 54}";
},
{
horizontal = 1;
place = "{458, 52}";
}
);
layerId = UUID0;
paths = (
{
closed = 1;
nodes = (
"448 122 OFFCURVE",
"383 40 OFFCURVE",
"291 40 CURVE SMOOTH",
"198 40 OFFCURVE",
"139 121 OFFCURVE",
"139 247 CURVE SMOOTH",
"139 372 OFFCURVE",
"203 458 OFFCURVE",
"297 458 CURVE SMOOTH",
"415 458 OFFCURVE",
"448 326 OFFCURVE",
"448 245 CURVE SMOOTH"
);
},
{
closed = 1;
nodes = (
"35 88 OFFCURVE",
"135 -14 OFFCURVE",
"294 -14 CURVE SMOOTH",
"452 -14 OFFCURVE",
"553 88 OFFCURVE",
"553 248 CURVE SMOOTH",
"553 409 OFFCURVE",
"452 510 OFFCURVE",
"294 510 CURVE SMOOTH",
"135 510 OFFCURVE",
"35 409 OFFCURVE",
"35 248 CURVE SMOOTH"
);
}
);
width = 588;
}
);
leftKerningGroup = uni0454;
unicode = 043E;
},
{
color = (0,159,255,1);
glyphname = uni043F;
lastChange = "2016-09-22 13:09:51 +0000";
layers = (
{
hints = (
{
place = "{108, 90}";
},
{
place = "{444, 90}";
},
{
horizontal = 1;
place = "{442, 55}";
},
{
horizontal = 1;
place = "{0, 21}";
target = up;
type = BottomGhost;
}
);
layerId = UUID0;
paths = (
{
closed = 1;
nodes = (
"380 442 LINE",
"432 442 OFFCURVE",
"444 428 OFFCURVE",
"444 366 CURVE SMOOTH",
"444 133 LINE SMOOTH",
"444 71 OFFCURVE",
"430 55 OFFCURVE",
"380 40 CURVE SMOOTH",
"357 34 LINE",
"369 0 LINE",
"605 0 LINE",
"616 32 LINE",
"595 38 LINE SMOOTH",
"547 52 OFFCURVE",
"534 67 OFFCURVE",
"534 126 CURVE SMOOTH",
"534 296 LINE SMOOTH",
"534 377 OFFCURVE",
"546 419 OFFCURVE",
"579 463 CURVE SMOOTH",
"592 481 LINE",
"579 497 LINE",
"63 497 LINE",
"50 481 LINE",
"63 463 LINE SMOOTH",
"96 419 OFFCURVE",
"108 377 OFFCURVE",
"108 296 CURVE SMOOTH",
"108 201 LINE SMOOTH",
"108 120 OFFCURVE",
"96 78 OFFCURVE",
"63 34 CURVE SMOOTH",
"50 16 LINE",
"63 0 LINE",
"273 0 LINE",
"285 34 LINE",
"262 40 LINE SMOOTH",
"212 55 OFFCURVE",
"198 71 OFFCURVE",
"198 133 CURVE SMOOTH",
"198 366 LINE SMOOTH",
"198 428 OFFCURVE",
"210 442 OFFCURVE",
"262 442 CURVE SMOOTH"
);
}
);
width = 661;
}
);
leftKerningGroup = uni0456;
unicode = 043F;
},
{
color = (0,159,255,1);
glyphname = uni0440;
lastChange = "2016-09-22 13:09:51 +0000";
layers = (
{
hints = (
{
place = "{103, 90}";
},
{
place = "{454, 106}";
},
{
horizontal = 1;
place = "{-14, 54}";
},
{
horizontal = 1;
place = "{444, 66}";
},
{
horizontal = 1;
place = "{-14, 70}";
},
{
horizontal = 1;
place = "{-266, 21}";
target = up;
type = BottomGhost;
}
);
layerId = UUID0;
paths = (
{
closed = 1;
nodes = (
"193 452 LINE SMOOTH",
"193 482 OFFCURVE",
"185 498 OFFCURVE",
"169 498 CURVE SMOOTH",
"125 498 OFFCURVE",
"52 477 OFFCURVE",
"30 458 CURVE",
"30 425 LINE",
"82 414 LINE SMOOTH",
"99 410 OFFCURVE",
"103 401 OFFCURVE",
"103 381 CURVE SMOOTH",
"103 -106 LINE SMOOTH",
"103 -169 OFFCURVE",
"95 -201 OFFCURVE",
"71 -235 CURVE SMOOTH",
"59 -251 LINE",
"71 -266 LINE",
"245 -266 LINE",
"256 -235 LINE",
"235 -230 LINE SMOOTH",
"201 -222 OFFCURVE",
"193 -205 OFFCURVE",
"193 -155 CURVE SMOOTH",
"193 405 LINE",
"228 432 OFFCURVE",
"263 444 OFFCURVE",
"305 444 CURVE SMOOTH",
"397 444 OFFCURVE",
"454 364 OFFCURVE",
"454 248 CURVE SMOOTH",
"454 128 OFFCURVE",
"397 40 OFFCURVE",
"307 40 CURVE SMOOTH",
"262 40 OFFCURVE",
"247 56 OFFCURVE",
"236 56 CURVE SMOOTH",
"225 56 OFFCURVE",
"221 43 OFFCURVE",
"221 31 CURVE SMOOTH",
"221 24 OFFCURVE",
"224 17 OFFCURVE",
"230 13 CURVE SMOOTH",
"257 -5 OFFCURVE",
"292 -14 OFFCURVE",
"330 -14 CURVE SMOOTH",
"477 -14 OFFCURVE",
"560 106 OFFCURVE",
"560 268 CURVE SMOOTH",
"560 410 OFFCURVE",
"482 510 OFFCURVE",
"337 510 CURVE SMOOTH",
"284 510 OFFCURVE",
"235 488 OFFCURVE",
"193 447 CURVE"
);
}
);
width = 595;
}
);
leftKerningGroup = uni0456;
unicode = 0440;
},
{
color = (187,255,0,1);
glyphname = uni0441;
lastChange = "2016-09-22 13:09:51 +0000";
layers = (
{
hints = (
{
place = "{35, 104}";
},
{
place = "{370, 93}";
},
{
horizontal = 1;
place = "{-14, 67}";
},
{
horizontal = 1;
place = "{458, 52}";
}
);
layerId = UUID0;
paths = (
{
closed = 1;
nodes = (
"393 69 OFFCURVE",
"349 53 OFFCURVE",
"298 53 CURVE SMOOTH",
"200 53 OFFCURVE",
"139 131 OFFCURVE",
"139 255 CURVE SMOOTH",
"139 376 OFFCURVE",
"193 458 OFFCURVE",
"272 458 CURVE SMOOTH",
"332 458 OFFCURVE",
"370 424 OFFCURVE",
"370 371 CURVE SMOOTH",
"370 315 OFFCURVE",
"346 298 OFFCURVE",
"346 289 CURVE SMOOTH",
"346 281 OFFCURVE",
"352 278 OFFCURVE",
"365 278 CURVE SMOOTH",
"422 278 OFFCURVE",
"463 318 OFFCURVE",
"463 376 CURVE SMOOTH",
"463 455 OFFCURVE",
"390 510 OFFCURVE",
"285 510 CURVE SMOOTH",
"133 510 OFFCURVE",
"35 407 OFFCURVE",
"35 247 CURVE SMOOTH",
"35 96 OFFCURVE",
"139 -14 OFFCURVE",
"282 -14 CURVE SMOOTH",
"353 -14 OFFCURVE",
"419 15 OFFCURVE",
"466 69 CURVE SMOOTH",
"468 71 OFFCURVE",
"469 74 OFFCURVE",
"469 78 CURVE SMOOTH",
"469 91 OFFCURVE",
"455 106 OFFCURVE",
"444 106 CURVE SMOOTH",
"439 106 OFFCURVE",
"436 104 OFFCURVE",
"435 103 CURVE SMOOTH"
);
}
);
width = 509;
}
);
leftKerningGroup = uni0454;
unicode = 0441;
},
{
color = (0,159,255,1);
glyphname = uni0442;
lastChange = "2016-09-22 13:09:51 +0000";
layers = (
{
hints = (
{
place = "{200, 90}";
},
{
horizontal = 1;
place = "{439, 53}";
},
{
horizontal = 1;
place = "{523, -20}";
target = down;
type = TopGhost;
},
{
horizontal = 1;
place = "{0, 21}";
target = up;
type = BottomGhost;
}
);
layerId = UUID0;
paths = (
{
closed = 1;
nodes = (
"439 336 LINE",
"470 347 LINE",
"470 511 LINE",
"455 523 LINE",
"439 511 LINE SMOOTH",
"420 497 OFFCURVE",
"387 492 OFFCURVE",
"334 492 CURVE SMOOTH",
"156 492 LINE SMOOTH",
"103 492 OFFCURVE",
"70 497 OFFCURVE",
"51 511 CURVE SMOOTH",
"35 523 LINE",
"20 511 LINE",
"20 347 LINE",
"51 336 LINE",
"57 357 LINE SMOOTH",
"74 423 OFFCURVE",
"92 439 OFFCURVE",
"157 439 CURVE SMOOTH",
"169 439 LINE SMOOTH",
"194 439 OFFCURVE",
"200 426 OFFCURVE",
"200 369 CURVE SMOOTH",
"200 185 LINE SMOOTH",
"200 110 OFFCURVE",
"189 72 OFFCURVE",
"159 31 CURVE SMOOTH",
"147 15 LINE",
"159 0 LINE",
"359 0 LINE",
"370 31 LINE",
"349 37 LINE SMOOTH",
"303 51 OFFCURVE",
"290 65 OFFCURVE",
"290 122 CURVE SMOOTH",
"290 369 LINE SMOOTH",
"290 426 OFFCURVE",
"296 439 OFFCURVE",
"321 439 CURVE SMOOTH",
"333 439 LINE SMOOTH",
"398 439 OFFCURVE",
"416 423 OFFCURVE",
"433 357 CURVE SMOOTH"
);
}
);
width = 490;
}
);
leftKerningGroup = uni0456;
unicode = 0442;
},
{
color = (0,159,255,1);
glyphname = uni0443;
lastChange = "2016-09-22 13:09:51 +0000";
layers = (
{
hints = (
{
place = "{103, 91}";
},
{
place = "{120, 97}";
},
{
place = "{442, 83}";
},
{
horizontal = 1;
place = "{-278, 52}";
},
{
horizontal = 1;
place = "{15, 67}";
},
{
horizontal = 1;
place = "{511, -20}";
target = down;
type = TopGhost;
}
);
layerId = UUID0;
paths = (
{
closed = 1;
nodes = (
"438 -278 OFFCURVE",
"525 -188 OFFCURVE",
"525 -22 CURVE SMOOTH",
"525 511 LINE",
"403 498 LINE",
"391 483 LINE",
"403 467 LINE SMOOTH",
"439 420 OFFCURVE",
"442 370 OFFCURVE",
"442 272 CURVE SMOOTH",
"442 153 OFFCURVE",
"389 82 OFFCURVE",
"300 82 CURVE SMOOTH",
"231 82 OFFCURVE",
"194 124 OFFCURVE",
"194 204 CURVE SMOOTH",
"194 479 LINE SMOOTH",
"194 498 OFFCURVE",
"181 511 OFFCURVE",
"162 511 CURVE SMOOTH",
"121 511 OFFCURVE",
"65 486 OFFCURVE",
"30 451 CURVE",
"39 425 LINE",
"83 425 LINE SMOOTH",
"97 425 OFFCURVE",
"103 419 OFFCURVE",
"103 403 CURVE SMOOTH",
"103 181 LINE SMOOTH",
"103 76 OFFCURVE",
"163 15 OFFCURVE",
"266 15 CURVE SMOOTH",
"340 15 OFFCURVE",
"405 52 OFFCURVE",
"436 110 CURVE",
"436 -38 LINE SMOOTH",
"436 -146 OFFCURVE",
"402 -226 OFFCURVE",
"316 -226 CURVE SMOOTH",
"253 -226 OFFCURVE",
"217 -184 OFFCURVE",
"217 -133 CURVE SMOOTH",
"217 -60 OFFCURVE",
"266 -38 OFFCURVE",
"266 -25 CURVE SMOOTH",
"266 -20 OFFCURVE",
"261 -14 OFFCURVE",
"247 -14 CURVE SMOOTH",
"164 -14 OFFCURVE",
"120 -73 OFFCURVE",
"120 -135 CURVE SMOOTH",
"120 -205 OFFCURVE",
"179 -278 OFFCURVE",
"303 -278 CURVE SMOOTH"
);
}
);
width = 622;
}
);
leftKerningGroup = uni0456;
unicode = 0443;
},
{
color = (187,255,0,1);
glyphname = uni0444;
lastChange = "2016-09-22 13:09:51 +0000";
layers = (
{
hints = (
{
place = "{35, 106}";
},
{
place = "{374, 90}";
},
{
place = "{697, 106}";
},
{
horizontal = 1;
place = "{-14, 54}";
},
{
horizontal = 1;
place = "{444, 66}";
},
{
horizontal = 1;
place = "{-14, 70}";
},
{
horizontal = 1;
place = "{-266, 21}";
target = up;
type = BottomGhost;
},
{
horizontal = 1;
place = "{782, -20}";
target = down;
type = TopGhost;
}
);
layerId = UUID0;
paths = (
{
closed = 1;
nodes = (
"374 -106 LINE SMOOTH",
"374 -169 OFFCURVE",
"366 -201 OFFCURVE",
"342 -235 CURVE SMOOTH",
"330 -251 LINE",
"342 -266 LINE",
"516 -266 LINE",
"527 -235 LINE",
"506 -230 LINE SMOOTH",
"472 -222 OFFCURVE",
"464 -205 OFFCURVE",
"464 -155 CURVE SMOOTH",
"464 409 LINE",
"494 433 OFFCURVE",
"524 444 OFFCURVE",
"560 444 CURVE SMOOTH",
"637 444 OFFCURVE",
"697 367 OFFCURVE",
"697 225 CURVE SMOOTH",
"697 107 OFFCURVE",
"639 40 OFFCURVE",
"579 40 CURVE SMOOTH",
"528 40 OFFCURVE",
"514 56 OFFCURVE",
"505 56 CURVE SMOOTH",
"495 56 OFFCURVE",
"492 43 OFFCURVE",
"492 31 CURVE SMOOTH",
"492 24 OFFCURVE",
"495 17 OFFCURVE",
"501 13 CURVE SMOOTH",
"529 -5 OFFCURVE",
"566 -14 OFFCURVE",
"607 -14 CURVE SMOOTH",
"726 -14 OFFCURVE",
"803 83 OFFCURVE",
"803 247 CURVE SMOOTH",
"803 417 OFFCURVE",
"713 510 OFFCURVE",
"593 510 CURVE SMOOTH",
"545 510 OFFCURVE",
"502 490 OFFCURVE",
"464 451 CURVE",
"464 736 LINE SMOOTH",
"464 766 OFFCURVE",
"456 782 OFFCURVE",
"440 782 CURVE SMOOTH",
"396 782 OFFCURVE",
"323 761 OFFCURVE",
"301 742 CURVE",
"301 709 LINE",
"353 698 LINE SMOOTH",
"370 694 OFFCURVE",
"374 685 OFFCURVE",
"374 665 CURVE SMOOTH",
"374 451 LINE",
"336 490 OFFCURVE",
"292 510 OFFCURVE",
"245 510 CURVE SMOOTH",
"125 510 OFFCURVE",
"35 417 OFFCURVE",
"35 247 CURVE SMOOTH",
"35 83 OFFCURVE",
"112 -14 OFFCURVE",
"231 -14 CURVE SMOOTH",
"272 -14 OFFCURVE",
"309 -5 OFFCURVE",
"337 13 CURVE SMOOTH",
"343 17 OFFCURVE",
"346 24 OFFCURVE",
"346 31 CURVE SMOOTH",
"346 43 OFFCURVE",
"343 56 OFFCURVE",
"333 56 CURVE SMOOTH",
"324 56 OFFCURVE",
"310 40 OFFCURVE",
"259 40 CURVE SMOOTH",
"199 40 OFFCURVE",
"141 107 OFFCURVE",
"141 225 CURVE SMOOTH",
"141 367 OFFCURVE",
"201 444 OFFCURVE",
"278 444 CURVE SMOOTH",
"313 444 OFFCURVE",
"343 433 OFFCURVE",
"374 409 CURVE"
);
}
);
width = 838;
}
);
leftKerningGroup = uni0454;
unicode = 0444;
},
{
color = (0,159,255,1);
glyphname = uni0447;
lastChange = "2016-09-22 13:09:51 +0000";
layers = (
{
hints = (
{
place = "{59, 92}";
},
{
place = "{361, 91}";
},
{
horizontal = 1;
place = "{164, 68}";
},
{
horizontal = 1;
place = "{511, -20}";
target = down;
type = TopGhost;
},
{
horizontal = 1;
place = "{0, 21}";
target = up;
type = BottomGhost;
}
);
layerId = UUID0;
paths = (
{
closed = 1;
nodes = (
"527 30 LINE",
"508 35 LINE SMOOTH",
"464 48 OFFCURVE",
"452 62 OFFCURVE",
"452 116 CURVE SMOOTH",
"452 312 LINE SMOOTH",
"452 386 OFFCURVE",
"463 425 OFFCURVE",
"493 466 CURVE SMOOTH",
"505 482 LINE",
"493 497 LINE",
"292 497 LINE",
"281 466 LINE",
"302 460 LINE SMOOTH",
"348 446 OFFCURVE",
"361 432 OFFCURVE",
"361 375 CURVE SMOOTH",
"361 272 LINE",
"328 246 OFFCURVE",
"289 232 OFFCURVE",
"245 232 CURVE SMOOTH",
"187 232 OFFCURVE",
"151 256 OFFCURVE",
"151 325 CURVE SMOOTH",
"151 511 LINE",
"31 498 LINE",
"20 482 LINE",
"32 467 LINE SMOOTH",
"56 434 OFFCURVE",
"59 429 OFFCURVE",
"59 337 CURVE SMOOTH",
"59 312 LINE SMOOTH",
"59 213 OFFCURVE",
"111 164 OFFCURVE",
"212 164 CURVE SMOOTH",
"279 164 OFFCURVE",
"324 186 OFFCURVE",
"361 214 CURVE",
"361 123 LINE SMOOTH",
"361 66 OFFCURVE",
"349 48 OFFCURVE",
"302 37 CURVE SMOOTH",
"281 32 LINE",
"292 0 LINE",
"517 0 LINE"
);
}
);
width = 572;
}
);
leftKerningGroup = uni0456;
unicode = 0447;
},
{
color = (0,159,255,1);
glyphname = uni0446;
lastChange = "2016-09-22 13:09:51 +0000";
layers = (
{
hints = (
{
place = "{115, 90}";
},
{
place = "{441, 90}";
},
{
horizontal = 1;
place = "{0, 52}";
},
{
horizontal = 1;
place = "{497, -20}";
target = down;
type = TopGhost;
},
{
horizontal = 1;
place = "{-180, 21}";
target = up;
type = BottomGhost;
}
);
layerId = UUID0;
paths = (
{
closed = 1;
nodes = (
"531 312 LINE SMOOTH",
"531 387 OFFCURVE",
"542 425 OFFCURVE",
"572 466 CURVE SMOOTH",
"584 482 LINE",
"572 497 LINE",
"372 497 LINE",
"361 466 LINE",
"382 460 LINE SMOOTH",
"428 447 OFFCURVE",
"441 432 OFFCURVE",
"441 375 CURVE SMOOTH",
"441 122 LINE SMOOTH",
"441 65 OFFCURVE",
"430 52 OFFCURVE",
"382 52 CURVE SMOOTH",
"264 52 LINE SMOOTH",
"216 52 OFFCURVE",
"205 65 OFFCURVE",
"205 122 CURVE SMOOTH",
"205 312 LINE SMOOTH",
"205 387 OFFCURVE",
"216 425 OFFCURVE",
"246 466 CURVE SMOOTH",
"258 482 LINE",
"246 497 LINE",
"46 497 LINE",
"35 466 LINE",
"56 460 LINE SMOOTH",
"102 447 OFFCURVE",
"115 432 OFFCURVE",
"115 375 CURVE SMOOTH",
"115 122 LINE SMOOTH",
"115 65 OFFCURVE",
"103 47 OFFCURVE",
"56 36 CURVE SMOOTH",
"35 31 LINE",
"46 0 LINE",
"446 0 LINE SMOOTH",
"529 0 OFFCURVE",
"559 -51 OFFCURVE",
"585 -159 CURVE SMOOTH",
"590 -180 LINE",
"621 -169 LINE",
"621 39 LINE",
"572 39 OFFCURVE",
"531 56 OFFCURVE",
"531 97 CURVE SMOOTH"
);
}
);
width = 631;
}
);
leftKerningGroup = uni0456;
unicode = 0446;
},
{
color = (0,159,255,1);
glyphname = uni0448;
lastChange = "2016-09-22 13:09:51 +0000";
layers = (
{
hints = (
{
place = "{115, 91}";
},
{
place = "{424, 87}";
},
{
place = "{728, 91}";
},
{
horizontal = 1;
place = "{0, 52}";
},
{
horizontal = 1;
place = "{497, -20}";
target = down;
type = TopGhost;
}
);
layerId = UUID0;
paths = (
{
closed = 1;
nodes = (
"885 0 LINE",
"895 29 LINE",
"875 35 LINE SMOOTH",
"831 48 OFFCURVE",
"819 61 OFFCURVE",
"819 116 CURVE SMOOTH",
"819 312 LINE SMOOTH",
"819 387 OFFCURVE",
"830 426 OFFCURVE",
"861 466 CURVE SMOOTH",
"873 483 LINE",
"861 497 LINE",
"659 497 LINE",
"648 466 LINE",
"669 460 LINE SMOOTH",
"715 447 OFFCURVE",
"728 432 OFFCURVE",
"728 375 CURVE SMOOTH",
"728 122 LINE SMOOTH",
"728 65 OFFCURVE",
"717 52 OFFCURVE",
"669 52 CURVE SMOOTH",
"567 52 LINE SMOOTH",
"521 52 OFFCURVE",
"511 61 OFFCURVE",
"511 116 CURVE SMOOTH",
"511 312 LINE SMOOTH",
"511 387 OFFCURVE",
"522 426 OFFCURVE",
"552 466 CURVE SMOOTH",
"564 483 LINE",
"552 497 LINE",
"355 497 LINE",
"344 466 LINE",
"365 460 LINE SMOOTH",
"411 447 OFFCURVE",
"424 432 OFFCURVE",
"424 375 CURVE SMOOTH",
"424 122 LINE SMOOTH",
"424 65 OFFCURVE",
"409 52 OFFCURVE",
"361 52 CURVE SMOOTH",
"265 52 LINE SMOOTH",
"218 52 OFFCURVE",
"206 65 OFFCURVE",
"206 122 CURVE SMOOTH",
"206 312 LINE SMOOTH",
"206 387 OFFCURVE",
"218 426 OFFCURVE",
"248 466 CURVE SMOOTH",
"260 483 LINE",
"248 497 LINE",
"46 497 LINE",
"35 466 LINE",
"57 460 LINE SMOOTH",
"103 447 OFFCURVE",
"115 432 OFFCURVE",
"115 375 CURVE SMOOTH",
"115 122 LINE SMOOTH",
"115 65 OFFCURVE",
"103 50 OFFCURVE",
"57 37 CURVE SMOOTH",
"35 31 LINE",
"46 0 LINE"
);
}
);
width = 940;
}
);
leftKerningGroup = uni0456;
unicode = 0448;
},
{
color = (0,159,255,1);
glyphname = uni0449;
lastChange = "2016-09-22 13:09:51 +0000";
layers = (
{
hints = (
{
place = "{115, 91}";
},
{
place = "{424, 87}";
},
{
place = "{728, 91}";
},
{
horizontal = 1;
place = "{0, 52}";
},
{
horizontal = 1;
place = "{497, -20}";
target = down;
type = TopGhost;
},
{
horizontal = 1;
place = "{-180, 21}";
target = up;
type = BottomGhost;
}
);
layerId = UUID0;
paths = (
{
closed = 1;
nodes = (
"819 312 LINE SMOOTH",
"819 387 OFFCURVE",
"830 425 OFFCURVE",
"861 466 CURVE SMOOTH",
"873 482 LINE",
"861 497 LINE",
"659 497 LINE",
"648 466 LINE",
"669 460 LINE SMOOTH",
"715 447 OFFCURVE",
"728 432 OFFCURVE",
"728 375 CURVE SMOOTH",
"728 122 LINE SMOOTH",
"728 65 OFFCURVE",
"717 52 OFFCURVE",
"669 52 CURVE SMOOTH",
"567 52 LINE SMOOTH",
"521 52 OFFCURVE",
"511 61 OFFCURVE",
"511 116 CURVE SMOOTH",
"511 312 LINE SMOOTH",
"511 387 OFFCURVE",
"522 425 OFFCURVE",
"552 466 CURVE SMOOTH",
"564 482 LINE",
"552 497 LINE",
"355 497 LINE",
"344 466 LINE",
"365 460 LINE SMOOTH",
"411 447 OFFCURVE",
"424 432 OFFCURVE",
"424 375 CURVE SMOOTH",
"424 122 LINE SMOOTH",
"424 65 OFFCURVE",
"409 52 OFFCURVE",
"361 52 CURVE SMOOTH",
"265 52 LINE SMOOTH",
"218 52 OFFCURVE",
"206 65 OFFCURVE",
"206 122 CURVE SMOOTH",
"206 312 LINE SMOOTH",
"206 387 OFFCURVE",
"218 425 OFFCURVE",
"248 466 CURVE SMOOTH",
"260 482 LINE",
"248 497 LINE",
"46 497 LINE",
"35 466 LINE",
"57 460 LINE SMOOTH",
"103 447 OFFCURVE",
"115 432 OFFCURVE",
"115 375 CURVE SMOOTH",
"115 122 LINE SMOOTH",
"115 65 OFFCURVE",
"104 47 OFFCURVE",
"57 36 CURVE SMOOTH",
"35 31 LINE",
"46 0 LINE",
"734 0 LINE SMOOTH",
"817 0 OFFCURVE",
"847 -51 OFFCURVE",
"873 -159 CURVE SMOOTH",
"878 -180 LINE",
"909 -169 LINE",
"909 39 LINE",
"860 39 OFFCURVE",
"819 56 OFFCURVE",
"819 96 CURVE SMOOTH"
);
}
);
width = 919;
}
);
leftKerningGroup = uni0456;
unicode = 0449;
},
{
color = (0,159,255,1);
glyphname = uni045F;
lastChange = "2016-09-22 13:09:51 +0000";
layers = (
{
hints = (
{
place = "{115, 90}";
},
{
place = "{442, 90}";
},
{
horizontal = 1;
place = "{0, 52}";
},
{
horizontal = 1;
place = "{-162, 21}";
target = up;
type = BottomGhost;
},
{
horizontal = 1;
place = "{498, -20}";
target = down;
type = TopGhost;
}
);
layerId = UUID0;
paths = (
{
closed = 1;
nodes = (
"147 0 LINE SMOOTH",
"270 0 OFFCURVE",
"303 -16 OFFCURVE",
"335 -141 CURVE SMOOTH",
"340 -162 LINE",
"372 -151 LINE",
"372 0 LINE",
"597 0 LINE",
"607 29 LINE",
"588 35 LINE SMOOTH",
"544 48 OFFCURVE",
"532 61 OFFCURVE",
"532 116 CURVE SMOOTH",
"532 313 LINE SMOOTH",
"532 388 OFFCURVE",
"543 426 OFFCURVE",
"573 467 CURVE SMOOTH",
"585 484 LINE",
"573 498 LINE",
"373 498 LINE",
"362 467 LINE",
"383 461 LINE SMOOTH",
"429 448 OFFCURVE",
"442 433 OFFCURVE",
"442 376 CURVE SMOOTH",
"442 122 LINE SMOOTH",
"442 65 OFFCURVE",
"431 52 OFFCURVE",
"383 52 CURVE SMOOTH",
"264 52 LINE SMOOTH",
"216 52 OFFCURVE",
"205 65 OFFCURVE",
"205 122 CURVE SMOOTH",
"205 313 LINE SMOOTH",
"205 388 OFFCURVE",
"216 426 OFFCURVE",
"246 467 CURVE SMOOTH",
"258 484 LINE",
"246 498 LINE",
"46 498 LINE",
"35 467 LINE",
"56 461 LINE SMOOTH",
"102 448 OFFCURVE",
"115 433 OFFCURVE",
"115 376 CURVE SMOOTH",
"115 122 LINE SMOOTH",
"115 65 OFFCURVE",
"102 50 OFFCURVE",
"56 36 CURVE",
"35 31 LINE",
"46 0 LINE"
);
}
);
width = 652;
}
);
leftKerningGroup = uni0456;
unicode = 045F;
},
{
color = (0,159,255,1);
glyphname = uni044C;
lastChange = "2016-09-22 13:09:51 +0000";
layers = (
{
hints = (
{
place = "{115, 90}";
},
{
place = "{430, 104}";
},
{
horizontal = 1;
place = "{0, 48}";
},
{
horizontal = 1;
place = "{249, 46}";
},
{
horizontal = 1;
place = "{497, -20}";
target = down;
type = TopGhost;
}
);
layerId = UUID0;
paths = (
{
closed = 1;
nodes = (
"205 312 LINE SMOOTH",
"205 387 OFFCURVE",
"217 425 OFFCURVE",
"247 466 CURVE SMOOTH",
"259 483 LINE",
"247 497 LINE",
"46 497 LINE",
"35 466 LINE",
"56 460 LINE SMOOTH",
"101 447 OFFCURVE",
"115 430 OFFCURVE",
"115 375 CURVE SMOOTH",
"115 122 LINE SMOOTH",
"115 66 OFFCURVE",
"101 50 OFFCURVE",
"56 37 CURVE SMOOTH",
"35 31 LINE",
"46 0 LINE",
"303 0 LINE SMOOTH",
"472 0 OFFCURVE",
"534 62 OFFCURVE",
"534 148 CURVE SMOOTH",
"534 227 OFFCURVE",
"465 295 OFFCURVE",
"324 295 CURVE SMOOTH",
"279 295 OFFCURVE",
"228 285 OFFCURVE",
"228 260 CURVE SMOOTH",
"228 250 OFFCURVE",
"232 240 OFFCURVE",
"241 240 CURVE SMOOTH",
"253 240 OFFCURVE",
"263 249 OFFCURVE",
"308 249 CURVE SMOOTH",
"382 249 OFFCURVE",
"430 206 OFFCURVE",
"430 152 CURVE SMOOTH",
"430 91 OFFCURVE",
"386 48 OFFCURVE",
"318 48 CURVE SMOOTH",
"270 48 OFFCURVE",
"205 53 OFFCURVE",
"205 185 CURVE SMOOTH"
);
}
);
width = 564;
}
);
leftKerningGroup = uni0456;
unicode = 044C;
},
{
color = (0,159,255,1);
glyphname = uni044A;
lastChange = "2016-09-22 13:09:51 +0000";
layers = (
{
hints = (
{
place = "{192, 90}";
},
{
place = "{507, 104}";
},
{
horizontal = 1;
place = "{0, 48}";
},
{
horizontal = 1;
place = "{249, 46}";
},
{
horizontal = 1;
place = "{439, 53}";
},
{
horizontal = 1;
place = "{523, -20}";
target = down;
type = TopGhost;
}
);
layerId = UUID0;
paths = (
{
closed = 1;
nodes = (
"282 307 LINE SMOOTH",
"282 382 OFFCURVE",
"294 420 OFFCURVE",
"324 461 CURVE SMOOTH",
"336 478 LINE",
"324 492 LINE",
"156 492 LINE SMOOTH",
"103 492 OFFCURVE",
"70 497 OFFCURVE",
"51 511 CURVE SMOOTH",
"35 523 LINE",
"20 511 LINE",
"20 347 LINE",
"51 336 LINE",
"57 357 LINE SMOOTH",
"74 423 OFFCURVE",
"92 439 OFFCURVE",
"157 439 CURVE SMOOTH",
"161 439 LINE SMOOTH",
"186 439 OFFCURVE",
"192 426 OFFCURVE",
"192 402 CURVE SMOOTH",
"192 122 LINE SMOOTH",
"192 66 OFFCURVE",
"178 50 OFFCURVE",
"133 37 CURVE SMOOTH",
"112 31 LINE",
"123 0 LINE",
"380 0 LINE SMOOTH",
"549 0 OFFCURVE",
"611 62 OFFCURVE",
"611 148 CURVE SMOOTH",
"611 227 OFFCURVE",
"542 295 OFFCURVE",
"401 295 CURVE SMOOTH",
"356 295 OFFCURVE",
"305 285 OFFCURVE",
"305 260 CURVE SMOOTH",
"305 250 OFFCURVE",
"309 240 OFFCURVE",
"318 240 CURVE SMOOTH",
"330 240 OFFCURVE",
"340 249 OFFCURVE",
"385 249 CURVE SMOOTH",
"459 249 OFFCURVE",
"507 206 OFFCURVE",
"507 152 CURVE SMOOTH",
"507 91 OFFCURVE",
"463 48 OFFCURVE",
"395 48 CURVE SMOOTH",
"347 48 OFFCURVE",
"282 53 OFFCURVE",
"282 185 CURVE SMOOTH"
);
}
);
width = 641;
}
);
leftKerningGroup = uni0456;
unicode = 044A;
},
{
color = (0,159,255,1);
glyphname = uni044B;
lastChange = "2016-09-22 13:09:51 +0000";
layers = (
{
hints = (
{
place = "{115, 90}";
},
{
place = "{420, 104}";
},
{
place = "{632, 90}";
},
{
horizontal = 1;
place = "{0, 48}";
},
{
horizontal = 1;
place = "{249, 46}";
},
{
horizontal = 1;
place = "{497, -20}";
target = down;
type = TopGhost;
}
);
layerId = UUID0;
paths = (
{
closed = 1;
nodes = (
"205 312 LINE SMOOTH",
"205 387 OFFCURVE",
"217 425 OFFCURVE",
"247 466 CURVE SMOOTH",
"259 483 LINE",
"247 497 LINE",
"46 497 LINE",
"35 466 LINE",
"56 460 LINE SMOOTH",
"101 447 OFFCURVE",
"115 430 OFFCURVE",
"115 375 CURVE SMOOTH",
"115 122 LINE SMOOTH",
"115 66 OFFCURVE",
"101 50 OFFCURVE",
"56 37 CURVE SMOOTH",
"35 31 LINE",
"46 0 LINE",
"303 0 LINE SMOOTH",
"462 0 OFFCURVE",
"524 62 OFFCURVE",
"524 148 CURVE SMOOTH",
"524 227 OFFCURVE",
"454 295 OFFCURVE",
"324 295 CURVE SMOOTH",
"279 295 OFFCURVE",
"228 285 OFFCURVE",
"228 260 CURVE SMOOTH",
"228 250 OFFCURVE",
"232 240 OFFCURVE",
"241 240 CURVE SMOOTH",
"253 240 OFFCURVE",
"263 249 OFFCURVE",
"308 249 CURVE SMOOTH",
"373 249 OFFCURVE",
"420 206 OFFCURVE",
"420 152 CURVE SMOOTH",
"420 91 OFFCURVE",
"377 48 OFFCURVE",
"318 48 CURVE SMOOTH",
"271 48 OFFCURVE",
"205 53 OFFCURVE",
"205 185 CURVE SMOOTH"
);
},
{
closed = 1;
nodes = (
"787 0 LINE",
"797 29 LINE",
"778 35 LINE SMOOTH",
"734 48 OFFCURVE",
"722 61 OFFCURVE",
"722 116 CURVE SMOOTH",
"722 312 LINE SMOOTH",
"722 387 OFFCURVE",
"733 426 OFFCURVE",
"763 466 CURVE SMOOTH",
"775 483 LINE",
"763 497 LINE",
"563 497 LINE",
"552 466 LINE",
"573 460 LINE SMOOTH",
"619 447 OFFCURVE",
"632 432 OFFCURVE",
"632 375 CURVE SMOOTH",
"632 122 LINE SMOOTH",
"632 65 OFFCURVE",
"619 50 OFFCURVE",
"573 37 CURVE SMOOTH",
"552 31 LINE",
"563 0 LINE"
);
}
);
width = 842;
}
);
leftKerningGroup = uni0456;
unicode = 044B;
},
{
color = 0;
glyphname = uni0459;
lastChange = "2016-09-22 13:09:51 +0000";
layers = (
{
hints = (
{
place = "{149, 67}";
},
{
place = "{371, 90}";
},
{
place = "{686, 104}";
},
{
horizontal = 1;
place = "{0, 48}";
},
{
horizontal = 1;
place = "{249, 46}";
},
{
horizontal = 1;
place = "{444, 53}";
},
{
horizontal = 1;
place = "{-14, 21}";
target = up;
type = BottomGhost;
}
);
layerId = UUID0;
paths = (
{
closed = 1;
nodes = (
"503 497 LINE",
"98 497 LINE",
"87 465 LINE",
"108 460 LINE SMOOTH",
"144 451 OFFCURVE",
"149 444 OFFCURVE",
"149 384 CURVE SMOOTH",
"149 215 OFFCURVE",
"137 68 OFFCURVE",
"73 68 CURVE SMOOTH",
"47 68 OFFCURVE",
"41 93 OFFCURVE",
"36 117 CURVE SMOOTH",
"31 138 OFFCURVE",
"28 159 OFFCURVE",
"14 159 CURVE SMOOTH",
"-17 159 OFFCURVE",
"-34 114 OFFCURVE",
"-34 76 CURVE SMOOTH",
"-34 22 OFFCURVE",
"1 -14 OFFCURVE",
"65 -14 CURVE SMOOTH",
"119 -14 OFFCURVE",
"216 8 OFFCURVE",
"216 407 CURVE SMOOTH",
"216 439 OFFCURVE",
"240 444 OFFCURVE",
"273 444 CURVE SMOOTH",
"312 444 LINE SMOOTH",
"360 444 OFFCURVE",
"371 431 OFFCURVE",
"371 374 CURVE SMOOTH",
"371 122 LINE SMOOTH",
"371 66 OFFCURVE",
"357 50 OFFCURVE",
"312 37 CURVE SMOOTH",
"291 31 LINE",
"302 0 LINE",
"559 0 LINE SMOOTH",
"728 0 OFFCURVE",
"790 62 OFFCURVE",
"790 148 CURVE SMOOTH",
"790 227 OFFCURVE",
"721 295 OFFCURVE",
"580 295 CURVE SMOOTH",
"535 295 OFFCURVE",
"484 285 OFFCURVE",
"484 260 CURVE SMOOTH",
"484 250 OFFCURVE",
"488 240 OFFCURVE",
"497 240 CURVE SMOOTH",
"509 240 OFFCURVE",
"519 249 OFFCURVE",
"564 249 CURVE SMOOTH",
"638 249 OFFCURVE",
"686 206 OFFCURVE",
"686 152 CURVE SMOOTH",
"686 91 OFFCURVE",
"642 48 OFFCURVE",
"574 48 CURVE SMOOTH",
"526 48 OFFCURVE",
"461 53 OFFCURVE",
"461 185 CURVE SMOOTH",
"461 312 LINE SMOOTH",
"461 387 OFFCURVE",
"473 425 OFFCURVE",
"503 466 CURVE SMOOTH",
"515 483 LINE"
);
}
);
width = 820;
}
);
leftKerningGroup = uni0459;
unicode = 0459;
},
{
color = (0,159,255,1);
glyphname = uni045A;
lastChange = "2016-09-22 13:09:51 +0000";
layers = (
{
hints = (
{
place = "{115, 90}";
},
{
place = "{445, 90}";
},
{
place = "{760, 104}";
},
{
horizontal = 1;
place = "{0, 48}";
},
{
horizontal = 1;
place = "{221, 57}";
},
{
horizontal = 1;
place = "{249, 46}";
},
{
horizontal = 1;
place = "{497, -20}";
target = down;
type = TopGhost;
}
);
layerId = UUID0;
paths = (
{
closed = 1;
nodes = (
"535 312 LINE SMOOTH",
"535 387 OFFCURVE",
"547 425 OFFCURVE",
"577 466 CURVE SMOOTH",
"589 483 LINE",
"577 497 LINE",
"376 497 LINE",
"365 466 LINE",
"386 460 LINE SMOOTH",
"431 447 OFFCURVE",
"445 430 OFFCURVE",
"445 375 CURVE SMOOTH",
"445 278 LINE",
"205 278 LINE",
"205 312 LINE SMOOTH",
"205 387 OFFCURVE",
"216 426 OFFCURVE",
"246 466 CURVE SMOOTH",
"258 483 LINE",
"246 497 LINE",
"46 497 LINE",
"35 466 LINE",
"56 460 LINE SMOOTH",
"102 447 OFFCURVE",
"115 432 OFFCURVE",
"115 375 CURVE SMOOTH",
"115 122 LINE SMOOTH",
"115 65 OFFCURVE",
"102 50 OFFCURVE",
"56 37 CURVE SMOOTH",
"35 31 LINE",
"46 0 LINE",
"270 0 LINE",
"280 29 LINE",
"261 35 LINE SMOOTH",
"217 48 OFFCURVE",
"205 61 OFFCURVE",
"205 116 CURVE SMOOTH",
"205 221 LINE",
"445 221 LINE",
"445 122 LINE SMOOTH",
"445 66 OFFCURVE",
"431 50 OFFCURVE",
"386 37 CURVE SMOOTH",
"365 31 LINE",
"376 0 LINE",
"633 0 LINE SMOOTH",
"802 0 OFFCURVE",
"864 62 OFFCURVE",
"864 148 CURVE SMOOTH",
"864 227 OFFCURVE",
"795 295 OFFCURVE",
"654 295 CURVE SMOOTH",
"609 295 OFFCURVE",
"558 285 OFFCURVE",
"558 260 CURVE SMOOTH",
"558 250 OFFCURVE",
"562 240 OFFCURVE",
"571 240 CURVE SMOOTH",
"583 240 OFFCURVE",
"593 249 OFFCURVE",
"638 249 CURVE SMOOTH",
"712 249 OFFCURVE",
"760 206 OFFCURVE",
"760 152 CURVE SMOOTH",
"760 91 OFFCURVE",
"716 48 OFFCURVE",
"648 48 CURVE SMOOTH",
"600 48 OFFCURVE",
"535 53 OFFCURVE",
"535 185 CURVE SMOOTH"
);
}
);
width = 894;
}
);
leftKerningGroup = uni0456;
unicode = 045A;
},
{
color = (187,255,0,1);
glyphname = uni0454;
lastChange = "2016-09-22 13:09:51 +0000";
layers = (
{
hints = (
{
place = "{35, 104}";
},
{
place = "{373, 90}";
},
{
horizontal = 1;
place = "{-14, 67}";
},
{
horizontal = 1;
place = "{212, 63}";
},
{
horizontal = 1;
place = "{458, 52}";
}
);
layerId = UUID0;
paths = (
{
closed = 1;
nodes = (
"393 69 OFFCURVE",
"349 53 OFFCURVE",
"298 53 CURVE SMOOTH",
"212 53 OFFCURVE",
"154 113 OFFCURVE",
"142 212 CURVE",
"318 212 LINE",
"336 226 OFFCURVE",
"341 253 OFFCURVE",
"341 275 CURVE",
"139 275 LINE",
"145 385 OFFCURVE",
"197 458 OFFCURVE",
"272 458 CURVE SMOOTH",
"332 458 OFFCURVE",
"373 424 OFFCURVE",
"373 381 CURVE SMOOTH",
"373 339 OFFCURVE",
"363 332 OFFCURVE",
"363 323 CURVE SMOOTH",
"363 315 OFFCURVE",
"369 313 OFFCURVE",
"379 313 CURVE SMOOTH",
"426 313 OFFCURVE",
"463 341 OFFCURVE",
"463 388 CURVE SMOOTH",
"463 457 OFFCURVE",
"390 510 OFFCURVE",
"285 510 CURVE SMOOTH",
"133 510 OFFCURVE",
"35 407 OFFCURVE",
"35 247 CURVE SMOOTH",
"35 96 OFFCURVE",
"139 -14 OFFCURVE",
"282 -14 CURVE SMOOTH",
"353 -14 OFFCURVE",
"419 15 OFFCURVE",
"466 69 CURVE SMOOTH",
"468 71 OFFCURVE",
"469 74 OFFCURVE",
"469 78 CURVE SMOOTH",
"469 91 OFFCURVE",
"455 106 OFFCURVE",
"444 106 CURVE SMOOTH",
"439 106 OFFCURVE",
"436 104 OFFCURVE",
"435 103 CURVE SMOOTH"
);
}
);
width = 509;
}
);
leftKerningGroup = uni0454;
unicode = 0454;
},
{
color = (0,159,255,1);
glyphname = uni044D;
lastChange = "2016-09-22 13:09:51 +0000";
layers = (
{
hints = (
{
place = "{50, 86}";
},
{
place = "{384, 105}";
},
{
horizontal = 1;
place = "{-14, 54}";
},
{
horizontal = 1;
place = "{225, 57}";
},
{
horizontal = 1;
place = "{457, 40}";
},
{
horizontal = 1;
place = "{457, 53}";
},
{
horizontal = 1;
place = "{519, -20}";
target = down;
type = TopGhost;
}
);
layerId = UUID0;
paths = (
{
closed = 1;
nodes = (
"182 40 OFFCURVE",
"136 67 OFFCURVE",
"136 116 CURVE SMOOTH",
"136 150 OFFCURVE",
"146 160 OFFCURVE",
"146 171 CURVE SMOOTH",
"146 180 OFFCURVE",
"135 183 OFFCURVE",
"124 183 CURVE SMOOTH",
"82 183 OFFCURVE",
"50 153 OFFCURVE",
"50 112 CURVE SMOOTH",
"50 29 OFFCURVE",
"142 -14 OFFCURVE",
"242 -14 CURVE SMOOTH",
"385 -14 OFFCURVE",
"489 96 OFFCURVE",
"489 247 CURVE SMOOTH",
"489 407 OFFCURVE",
"391 510 OFFCURVE",
"239 510 CURVE SMOOTH",
"193 510 OFFCURVE",
"162 497 OFFCURVE",
"137 497 CURVE SMOOTH",
"124 497 OFFCURVE",
"113 499 OFFCURVE",
"102 507 CURVE SMOOTH",
"86 519 LINE",
"71 507 LINE",
"71 343 LINE",
"102 332 LINE",
"108 353 LINE SMOOTH",
"130 430 OFFCURVE",
"179 457 OFFCURVE",
"238 457 CURVE SMOOTH",
"318 457 OFFCURVE",
"375 387 OFFCURVE",
"384 282 CURVE",
"193 282 LINE",
"176 271 OFFCURVE",
"171 245 OFFCURVE",
"171 225 CURVE",
"384 225 LINE",
"376 110 OFFCURVE",
"320 40 OFFCURVE",
"235 40 CURVE SMOOTH"
);
}
);
width = 524;
}
);
leftKerningGroup = uni0456;
unicode = 044D;
},
{
color = 0;
glyphname = uni045B;
lastChange = "2016-09-22 13:09:51 +0000";
layers = (
{
hints = (
{
place = "{108, 91}";
},
{
place = "{430, 90}";
},
{
horizontal = 1;
place = "{-14, 68}";
},
{
horizontal = 1;
place = "{373, 78}";
},
{
horizontal = 1;
place = "{544, 63}";
},
{
horizontal = 1;
place = "{782, -20}";
target = down;
type = TopGhost;
}
);
layerId = UUID0;
paths = (
{
closed = 1;
nodes = (
"199 750 LINE SMOOTH",
"199 769 OFFCURVE",
"186 782 OFFCURVE",
"167 782 CURVE SMOOTH",
"129 782 OFFCURVE",
"74 757 OFFCURVE",
"35 722 CURVE",
"44 696 LINE",
"88 696 LINE SMOOTH",
"102 696 OFFCURVE",
"108 690 OFFCURVE",
"108 674 CURVE SMOOTH",
"108 607 LINE",
"20 607 LINE",
"6 596 OFFCURVE",
"-3 573 OFFCURVE",
"-3 544 CURVE",
"108 544 LINE",
"108 111 LINE SMOOTH",
"108 61 OFFCURVE",
"100 44 OFFCURVE",
"66 36 CURVE SMOOTH",
"45 31 LINE",
"56 0 LINE",
"231 0 LINE",
"243 15 LINE",
"231 31 LINE SMOOTH",
"207 65 OFFCURVE",
"199 97 OFFCURVE",
"199 160 CURVE SMOOTH",
"199 239 OFFCURVE",
"258 373 OFFCURVE",
"344 373 CURVE SMOOTH",
"408 373 OFFCURVE",
"430 337 OFFCURVE",
"430 269 CURVE SMOOTH",
"430 92 LINE SMOOTH",
"430 17 OFFCURVE",
"452 -14 OFFCURVE",
"507 -14 CURVE SMOOTH",
"541 -14 OFFCURVE",
"584 10 OFFCURVE",
"619 49 CURVE",
"600 75 LINE",
"583 61 OFFCURVE",
"565 54 OFFCURVE",
"550 54 CURVE SMOOTH",
"530 54 OFFCURVE",
"520 66 OFFCURVE",
"520 88 CURVE SMOOTH",
"520 269 LINE SMOOTH",
"520 394 OFFCURVE",
"486 451 OFFCURVE",
"386 451 CURVE SMOOTH",
"310 451 OFFCURVE",
"233 389 OFFCURVE",
"199 302 CURVE",
"199 544 LINE",
"404 544 LINE",
"418 555 OFFCURVE",
"427 578 OFFCURVE",
"427 607 CURVE",
"199 607 LINE"
);
}
);
width = 639;
}
);
unicode = 045B;
},
